<svg xmlns="http://www.w3.org/2000/svg" width="807.161" height="482.513" viewBox="0 0 807.161 482.513">
  <g id="contact-image" transform="translate(-975.012 -5283.704)">
    <path id="Path_2783" data-name="Path 2783" d="M854,233.341a6.177,6.177,0,1,1-1.8-4.376A6.191,6.191,0,0,1,854,233.341Z" transform="translate(168.555 5371.134)" fill="#fec55e"/>
    <path id="Path_2797" data-name="Path 2797" d="M854,233.341a6.177,6.177,0,1,1-1.8-4.376A6.191,6.191,0,0,1,854,233.341Z" transform="translate(168.555 5371.134)" fill="#ebf7fa"/>
    <path id="Path_2799" data-name="Path 2799" d="M677.3,98.807a24.443,24.443,0,1,0-24.444-24.43A24.444,24.444,0,0,0,677.3,98.807Zm0-47.488a23.059,23.059,0,1,1-23.059,23.059A23.059,23.059,0,0,1,677.3,51.319Z" transform="translate(582.223 5302.918)" fill="#75adff"/>
    <ellipse id="Ellipse_170" data-name="Ellipse 170" cx="20.981" cy="20.981" rx="20.981" ry="20.981" transform="translate(1238.545 5356.314)" fill="#002d70"/>
    <rect id="Rectangle_1325" data-name="Rectangle 1325" width="0.886" height="23.848" transform="translate(1258.266 5359.929)" fill="#ebf7fa"/>
    <path id="Path_2800" data-name="Path 2800" d="M671.723,66.49A2.327,2.327,0,1,1,669.41,68.8a2.327,2.327,0,0,1,2.313-2.313Z" transform="translate(586.987 5309.296)" fill="#75adff"/>
    <rect id="Rectangle_1326" data-name="Rectangle 1326" width="16.023" height="2.451" transform="matrix(-0.582, -0.814, 0.814, -0.582, 1260.975, 5383.435)" fill="#75adff"/>
    <path id="Path_2801" data-name="Path 2801" d="M632.089,196.972,634,181.835c1.246-9.459,9.583-17.187,18.516-17.145l57.737.194c11.9,0,14.818,12.395,14.389,21.189,0,.942-14.957,113.562-14.957,113.562-1.246,9.473-17.838,20.095-26.77,20.067l-42.059-.208c-8.933,0-15.234-7.811-13.987-17.284l8.78-66.96a20.413,20.413,0,0,1,7.714-13.281,4.543,4.543,0,0,0,1.731-3.019h0c.665-3.989-2.091-8.212-6.121-8.212C633.2,210.738,631.411,202.124,632.089,196.972Z" transform="translate(595.501 5347.093)" fill="#4c86ae"/>
    <path id="Path_2802" data-name="Path 2802" d="M699.146,302.209l8.808-67.015a20.4,20.4,0,0,1,7.7-13.281,4.611,4.611,0,0,0,1.745-3.019c.665-3.989-2.1-8.212-6.135-8.212-5.8,0-7.575-8.614-6.925-13.752l1.925-15.137A20.109,20.109,0,0,1,721.319,165.1a15.528,15.528,0,0,0-2.327-.18l-57.737-.194c-8.933,0-17.27,7.686-18.516,17.145l-1.911,15.082c-.679,5.138,1.108,13.752,6.925,13.752,4.03,0,6.786,4.224,6.121,8.212a4.544,4.544,0,0,1-1.731,3.019,20.413,20.413,0,0,0-7.714,13.281l-8.822,66.988c-1.246,9.473,5.055,17.256,13.987,17.284l42.059.208c3.338,0,7.769-1.482,12.063-3.836A15.511,15.511,0,0,1,699.146,302.209Z" transform="translate(586.762 5347.109)" fill="#5ca2cd"/>
    <path id="Path_2803" data-name="Path 2803" d="M704.352,198.136a5.138,5.138,0,0,1-2.618-.706H638.209a5.1,5.1,0,0,0,2.617.706c4.03,0,6.786,4.224,6.121,8.212a4.544,4.544,0,0,1-1.731,3.019,21.093,21.093,0,0,0-3.6,3.6h63.539a21.011,21.011,0,0,1,3.587-3.6,4.611,4.611,0,0,0,1.745-3.019C711.151,202.374,708.382,198.136,704.352,198.136Z" transform="translate(593.675 5359.695)" fill="#4c86ae"/>
    <path id="Path_2804" data-name="Path 2804" d="M639.137,210.742h.471c-2.77-2.77-3.67-8.406-3.171-12.2l1.911-15.137c1.246-9.473,9.583-17.187,18.516-17.159l57.736.208a13.974,13.974,0,0,1,2.77.249,12.907,12.907,0,0,0-6.924-1.828l-57.737-.194c-8.933,0-17.27,7.686-18.516,17.145l-1.967,15.151C631.548,202.128,633.334,210.742,639.137,210.742Z" transform="translate(595.364 5347.089)" fill="#4c86ae"/>
    <path id="Path_2805" data-name="Path 2805" d="M685.415,290.608l8.808-67.029a20.483,20.483,0,0,1,7.714-13.267,4.57,4.57,0,0,0,1.731-3.033c.665-3.975-2.091-8.2-6.121-8.2h-.318a7.492,7.492,0,0,1,2.23,6.648,4.542,4.542,0,0,1-1.731,3.019,20.413,20.413,0,0,0-7.714,13.281l-8.808,66.96c-1.108,8.448,3.781,15.539,11.19,17.007C687.451,303.183,684.543,297.3,685.415,290.608Z" transform="translate(541.164 5360.331)" fill="#888a9e"/>
    <rect id="Rectangle_1327" data-name="Rectangle 1327" width="5.027" height="12.921" rx="0.79" transform="translate(1232.645 5752.631)" fill="#3f3d4e"/>
    <path id="Path_2806" data-name="Path 2806" d="M716.638,281.9H674.37l-5.47-5.429h53.194Z" transform="translate(539.662 5390.118)" fill="#4c86ae"/>
    <path id="Path_2807" data-name="Path 2807" d="M757.032,323.7v7.783L696.47,346.717H690.1Z" transform="translate(475.364 5408.296)" fill="#505168"/>
    <path id="Path_2808" data-name="Path 2808" d="M2.493,74.258h.568A2.479,2.479,0,0,0,5.54,71.779V0H0V71.766a2.479,2.479,0,0,0,2.493,2.493Z" transform="translate(1232.382 5671.767)" fill="#3f3d4e"/>
    <rect id="Rectangle_1328" data-name="Rectangle 1328" width="13.697" height="7.229" rx="1.18" transform="translate(1228.311 5671.753)" fill="#505168"/>
    <path id="Path_2809" data-name="Path 2809" d="M735.515,345.137a6.287,6.287,0,1,1-6.287-6.287A6.287,6.287,0,0,1,735.515,345.137Z" transform="translate(451.401 5414.128)" fill="#3f3d4e"/>
    <path id="Path_2810" data-name="Path 2810" d="M729.444,343.813a1.537,1.537,0,1,1-1.537-1.523,1.537,1.537,0,0,1,1.537,1.523Z" transform="translate(452.721 5415.452)" fill="#505168"/>
    <path id="Path_2811" data-name="Path 2811" d="M637.78,323.7v7.783l60.576,15.234h6.357Z" transform="translate(600.142 5408.296)" fill="#505168"/>
    <path id="Path_2812" data-name="Path 2812" d="M644.19,345.137a6.287,6.287,0,1,0,6.287-6.287A6.287,6.287,0,0,0,644.19,345.137Z" transform="translate(639.212 5414.128)" fill="#3f3d4e"/>
    <path id="Path_2813" data-name="Path 2813" d="M647.61,343.813a1.537,1.537,0,1,0,1.523-1.523,1.537,1.537,0,0,0-1.523,1.523Z" transform="translate(640.556 5415.452)" fill="#505168"/>
    <path id="Path_2814" data-name="Path 2814" d="M687.993,346.717h1.759l1.883-23.017H686.11Z" transform="translate(546.286 5408.296)" fill="#505168"/>
    <path id="Path_2815" data-name="Path 2815" d="M687.54,347.6h3.047l1.994-24.4H685.56Zm1.759-1.385h-.485l-1.759-21.632h4.016Z" transform="translate(546.102 5408.104)" fill="#505168"/>
    <path id="Path_2816" data-name="Path 2816" d="M685.032,164.894,627.3,164.7h-.568l49.856.166c11.91,0,14.818,12.395,14.389,21.189,0,.942-14.957,113.562-14.957,113.562-1.2,9.154-16.716,19.389-25.828,20.026h7.478c8.933,0,25.524-10.594,26.77-20.067,0,0,14.9-112.662,14.957-113.562C699.85,177.289,696.928,164.894,685.032,164.894Z" transform="translate(620.722 5347.098)" fill="#002d70"/>
    <path id="Path_2817" data-name="Path 2817" d="M666.516,280.285H771.99c2.77,0,4.972-1.7,4.972-3.767v-5.941c0-2.077-2.244-3.767-4.972-3.767H674.382c-7.063,0-12.852,4.362-12.852,9.694h0C661.53,278.582,663.773,280.285,666.516,280.285Z" transform="translate(495.001 5386.399)" fill="#5ca2cd"/>
    <rect id="Rectangle_1329" data-name="Rectangle 1329" width="1.385" height="45.757" transform="translate(1237.229 5678.982)" fill="#505168"/>
    <path id="Path_2818" data-name="Path 2818" d="M725.288,153.107l.969-3.13a2.327,2.327,0,0,1,2.244-1.662h5.789V146.93h-5.747a3.711,3.711,0,0,0-3.573,2.631l-.97,3.13Z" transform="translate(451.158 5340.257)" fill="#5ca2cd"/>
    <path id="Path_2819" data-name="Path 2819" d="M746.06,230.2c3.628-6.177,9.265-10.165,15.608-10.165s11.979,3.989,15.608,10.165Z" transform="translate(377.622 5368.394)" fill="#2b3244"/>
    <path id="Path_2820" data-name="Path 2820" d="M718.9,311.384s11.9,16.2,9.888,23.419-7.8,16.189-15.234,20.427-3.864,10.207-2.063,10.29,20.773-2.534,26.729-8.642,6.924-6.924,9.625-7.34,12.63-3.573,14.14-8.988-4.155-10.1-7.146-11.744-19.776-32.656-19.776-32.656Z" transform="translate(443.93 5397.692)" fill="#5ca2cd"/>
    <rect id="Rectangle_1330" data-name="Rectangle 1330" width="4.57" height="1.385" transform="matrix(-0.625, -0.781, 0.781, -0.625, 1174.486, 5737.789)" fill="#ebf7fa"/>
    <rect id="Rectangle_1331" data-name="Rectangle 1331" width="4.57" height="1.385" transform="matrix(-0.625, -0.781, 0.781, -0.625, 1173.076, 5741.25)" fill="#ebf7fa"/>
    <rect id="Rectangle_1332" data-name="Rectangle 1332" width="4.57" height="1.385" transform="matrix(-0.625, -0.781, 0.781, -0.625, 1171.725, 5744.596)" fill="#ebf7fa"/>
    <rect id="Rectangle_1333" data-name="Rectangle 1333" width="4.57" height="1.385" transform="matrix(-0.625, -0.781, 0.781, -0.625, 1169.69, 5747.17)" fill="#ebf7fa"/>
    <path id="Path_2821" data-name="Path 2821" d="M749.554,333.839c4.57-2.2,8.836-4.861,11.412-9.362a1.72,1.72,0,0,0,.138-.277,7.34,7.34,0,0,1,.762,5.54c-1.509,5.415-11.508,8.628-14.14,8.988s-3.684,1.219-9.625,7.34-24.928,8.725-26.729,8.642c-.789,0-1.925-1.219-2.313-2.881C731.717,348.851,747.352,334.891,749.554,333.839Z" transform="translate(444.037 5408.489)" fill="#406f8f"/>
    <path id="Path_2822" data-name="Path 2822" d="M709.049,327.12s2.77,2.16,14.625-.651c4.986,8.766,14.14,12.215,12.644,17.63a8.878,8.878,0,0,1-3.462,4.445c3.947-1.385,9.348-4.155,10.414-7.991,1.51-5.415-4.155-10.1-7.16-11.744s-19.763-32.67-19.763-32.67Z" transform="translate(462.633 5397.689)" fill="#4c86ae"/>
    <path id="Path_2823" data-name="Path 2823" d="M714.79,223.448c.194-1.385,9.847-11.689,14.389-8.185,5.623,4.335,19.07,3.365,22.671,2.77,9.833-1.551,22.5-4.916,34.858-6.343v16.9c-12.146-.831-24.651,1.177-36.007,1.177-4.612,0-6.121,2.327-9.944.3-6.689-3.545-11.079-.277-12.977.4-1.51.512-4.446,1.385-6.343.443s-.775-1.177.457-1.925c.36-.208-2.936.3-3.739-.609s-.762-.18-2.257-1.053,2.77-3.545,3.587-4.044C718.654,223.794,714.361,226.342,714.79,223.448Z" transform="translate(411.536 5365.184)" fill="#efccbb"/>
    <path id="Path_2824" data-name="Path 2824" d="M763.282,339.826s11.952,1.509,20.358-6.426c-3.684-11.605-24.056-75.394-41.159-86.778-5.36-3.573-25.039,1.011-23.9,8.877C721.721,277.325,756.676,320.617,763.282,339.826Z" transform="translate(409.384 5378.155)" fill="#002d70"/>
    <path id="Path_2825" data-name="Path 2825" d="M805.849,249.059c4.362,17.824-4.376,26.313-40.633,25.3s-70.935,2.3-88.634,1.385c-12.769-.651-35-19.015,0-32.808C715.8,227.454,800.642,227.7,805.849,249.059Z" transform="translate(470.269 5373.032)" fill="#002d70"/>
    <path id="Path_2826" data-name="Path 2826" d="M781.7,281.574c-38.694-.679-88.634,1.2-108.23,2.285-13.627.762-36.464-22.255.609-37.392,21.563-8.836,63.165-20.5,87.747-20.5C790.656,225.9,820.39,282.266,781.7,281.574Z" transform="translate(482.346 5370.68)" fill="#104798"/>
    <path id="Path_2827" data-name="Path 2827" d="M771.93,312.438s.332,20.095-5.54,24.831-15.719,8.7-24.25,7.839-9.057,6.094-7.631,7.2,18.433,9.971,26.812,8.406,9.694-1.648,12.09-.415,12.367,4.39,16.73.845,2.437-10.636.956-13.71,2.77-38.085,2.77-38.085Z" transform="translate(377.87 5402.773)" fill="#5ca2cd"/>
    <rect id="Rectangle_1334" data-name="Rectangle 1334" width="4.57" height="1.385" transform="matrix(-0.059, -0.998, 0.998, -0.059, 1142.68, 5745.41)" fill="#ebf7fa"/>
    <rect id="Rectangle_1335" data-name="Rectangle 1335" width="4.57" height="1.385" transform="matrix(-0.059, -0.998, 0.998, -0.059, 1139.593, 5747.373)" fill="#ebf7fa"/>
    <rect id="Rectangle_1336" data-name="Rectangle 1336" width="4.57" height="1.385" transform="matrix(-0.059, -0.998, 0.998, -0.059, 1136.493, 5749.349)" fill="#ebf7fa"/>
    <rect id="Rectangle_1337" data-name="Rectangle 1337" width="4.57" height="1.385" transform="matrix(-0.059, -0.998, 0.998, -0.059, 1133.377, 5750.238)" fill="#ebf7fa"/>
    <path id="Path_2828" data-name="Path 2828" d="M778.556,346.425c5,.859,10,1.149,14.708-1.025l.277-.138a7.3,7.3,0,0,1-2.59,4.958c-4.362,3.545-14.375.388-16.73-.845s-3.711-1.136-12.09.415-25.4-7.3-26.812-8.406a3.518,3.518,0,0,1-.222-3.684C755.372,348.378,776.132,346.037,778.556,346.425Z" transform="translate(377.117 5413.685)" fill="#406f8f"/>
    <path id="Path_2829" data-name="Path 2829" d="M733.86,330.4s1.053,3.379,12.312,7.922c-1.011,10.027,4.473,18.142.125,21.688a8.9,8.9,0,0,1-5.4,1.634c4.016,1.149,10.013,2.036,13.115-.5,4.362-3.545,2.437-10.65.956-13.71s2.77-38.085,2.77-38.085Z" transform="translate(414.057 5402.773)" fill="#4c86ae"/>
    <path id="Path_2830" data-name="Path 2830" d="M656.268,279.025c1.883-1.468,3.338-3.6,5.373-4.833a17.518,17.518,0,0,1,4.916-1.69,48.872,48.872,0,0,1,11.287-.8c8.434,0,33.888.831,42.129-1.468,8.614-2.4,12.547-9.833,6.08-16.993-5.041-5.54-7.949-12.561-13.226-18,16.937-3.2,34.166-5.3,46.269-5.3,24.5,0,33.57,50.673-.789,50.064-38.14-.665-87.65,1.149-107.357,2.244a30.665,30.665,0,0,0,5.318-3.213Z" transform="translate(505.734 5372.204)" fill="#002d70"/>
    <path id="Path_2831" data-name="Path 2831" d="M741.382,348.76s12.09,7.063,25.316,3.975c0,0,3.642-46.782,3.338-72.68a167.383,167.383,0,0,0-1.51-22.643L732.3,257.08C732.228,274.641,744.152,329.053,741.382,348.76Z" transform="translate(403.904 5382.655)" fill="#104798"/>
    <path id="Path_2832" data-name="Path 2832" d="M733.95,348.743c22.228-20.344,11.605-61.656,20.33-87.927a.462.462,0,0,1,.1-.346c.388,3.809.872,10.013.97,18.281.3,25.9-3.338,72.68-3.338,72.68a35.69,35.69,0,0,1-19.763-1.593,7.218,7.218,0,0,0,1.7-1.094Z" transform="translate(418.662 5383.959)" fill="#002d70"/>
    <path id="Path_2833" data-name="Path 2833" d="M673.483,355.236c4.155-11.855,9.237-82.8,10.276-89.852,1.593-.512,13.669-1.842,40.245-3.282,39.4-2.147,49.067-15.109,49.455-15.663l-2.3-1.648c-.1.125-9.528,12.464-47.308,14.486-36.575,1.98-42.447,3.393-42.766,4.653,0,.208-6.246,78.842-10.276,90.379Z" transform="translate(485.652 5377.924)" fill="#ebf7fa"/>
    <path id="Path_2834" data-name="Path 2834" d="M677.22,151.895c3.31,4.639,9.431,3.878,16.134,6.648,11.342,4.667,29.817,28.28,34.622,53.623s12.159,23.945,15.594,55.4,0,34.221,0,34.221S687.94,285.676,674.769,266c0,0-7.326-.249-11.716-8.628s-14.029-49.732-13.7-64.079C649.744,174.316,666.39,136.661,677.22,151.895Z" transform="translate(543.737 5340.805)" fill="#21e09d"/>
    <path id="Path_2835" data-name="Path 2835" d="M711.68,176.755s6.592,33.238,5.318,42.2-5.318,31.8-5.318,31.8-8.129-45.106-3.836-74.66Z" transform="translate(492.395 5351.481)" fill="#505168"/>
    <path id="Path_2836" data-name="Path 2836" d="M715.166,174.074l-2.77,4.155s-1.025,1.246-3.836-.706l.083-5.443,1.676,2.285Z" transform="translate(491.665 5349.938)" fill="#505168"/>
    <path id="Path_2837" data-name="Path 2837" d="M660.4,231.755c3.892-5.941,5.4-12.187,6.287-19.1.817-6.2-8.309-13.309-6.564-19.306,1.856-6.384,27.892,9.445,29.8-7.658,1.385-12.464-22.269-27.587-25.081-32.033a39.564,39.564,0,0,1,9.625,2.839c11.287,5.54,29.817,28.28,34.623,53.623s12.159,23.945,15.594,55.4,0,34.221,0,34.221a238.2,238.2,0,0,1-28.46-15.3c2.562-1.5,19.389-8.933,19.638-14.084.194-5.415-2.479-4.473-6.412-8.309s1.163-28.086-4.736-28.017c-4.93,0,1.98,33.335-19.181,30.634-4.155-3.268-33.875-18.572-36.187-21.4A44.235,44.235,0,0,0,660.4,231.755Z" transform="translate(562.621 5342.848)" fill="#21e09d"/>
    <path id="Path_2838" data-name="Path 2838" d="M697.78,160.822s17.353-3.144,11.91,23.1c0,0,19.389-12.3,19.763-28.709,0,0-13.517-1.523-15.234-6.8S697.78,160.822,697.78,160.822Z" transform="translate(492.307 5340.45)" fill="#efccbb"/>
    <path id="Path_2839" data-name="Path 2839" d="M721.625,150.629c-6.01-7.063-17.464,6.924-13.1,9.154C715.379,163.37,727.3,157.318,721.625,150.629Z" transform="translate(485.109 5340.921)" fill="#d8a895"/>
    <path id="Path_2840" data-name="Path 2840" d="M701.5,153.829c1.025,1.26,3.531,1.551,2.521,3.268s-.263,2.521.388,2.908a2.909,2.909,0,0,0,.72.3,1.425,1.425,0,0,0-1.052,1.925c.263.914,1.039,1.385,1.053,1.634a6.691,6.691,0,0,1-.415,3.005c-.942,3.435,0,6.19,11.675,3.7s12.3-7.562,12.3-10.276c0,0,8.683.969,12.063-9.071s-2.894-39.816-26.313-25.939a16.051,16.051,0,0,0-7.229,15.026C707.687,146.268,699,150.8,701.5,153.829Z" transform="translate(475.642 5330.533)" fill="#efccbb"/>
    <path id="Path_2841" data-name="Path 2841" d="M724.64,149.674a1.384,1.384,0,0,0-.443.166,9.4,9.4,0,0,0,2.881.263,6.62,6.62,0,0,0,2.368-.776,6.26,6.26,0,0,1-2.382.069,12.561,12.561,0,0,0-3.144,0,2.909,2.909,0,0,0,.72.277Z" transform="translate(456.113 5341.169)" fill="#d8a895"/>
    <path id="Path_2842" data-name="Path 2842" d="M724.256,145.176a.512.512,0,0,1,.415-.152s4.016,1.26,4.155,1.274a1.855,1.855,0,0,0,.623-.845,2.05,2.05,0,0,0-.623-2.313,2.2,2.2,0,0,1,1.385.859,2.41,2.41,0,0,1,.346,1.717,2.769,2.769,0,0,1-.845,1.634,1.682,1.682,0,0,1-.263.18,1.176,1.176,0,0,1-.4.125c-.235,0-4.75-1.842-4.75-1.842V145.7a.526.526,0,0,1-.042-.526Z" transform="translate(454.572 5338.799)" fill="#d8a895"/>
    <path id="Path_2843" data-name="Path 2843" d="M720.519,135.288a5.637,5.637,0,0,1,2.507,1.385A12.251,12.251,0,0,1,724.619,139l.388-.983-2.174.762a20.974,20.974,0,0,1-2.23.762,5.885,5.885,0,0,0,2.451.235,10.8,10.8,0,0,0,2.382-.457.679.679,0,0,0,.457-.845v-.1h0a6.826,6.826,0,0,0-2.05-2.576,3.448,3.448,0,0,0-1.634-.6,3.961,3.961,0,0,0-1.69.083Z" transform="translate(464.347 5335.724)" fill="#505168"/>
    <path id="Path_2844" data-name="Path 2844" d="M723.744,139.41a5.54,5.54,0,0,1-.346-4.03h.512a5.457,5.457,0,0,1,.138,4.03Z" transform="translate(462.231 5335.812)" fill="#3f3d4e"/>
    <path id="Path_2845" data-name="Path 2845" d="M697.115,138.309s3.85.8,2.063,5.069,8.725,4.972,6.107,8.309-.429,9.21,9.777,9.944c5.4.4,8.309-1.385,7.506-4.653S727.015,129.543,697.115,138.309Z" transform="translate(499.98 5336.207)" fill="#3f3d4e"/>
    <path id="Path_2846" data-name="Path 2846" d="M740.332,144.286s3.725-4.155-5.54-9.874-2.978-15.7-13.669-13.849-17.256-6.412-25.87-1.385-4.972,15,2.6,18.253C703.314,139.854,740.332,144.286,740.332,144.286Z" transform="translate(491.094 5328.942)" fill="#505168"/>
    <path id="Path_2847" data-name="Path 2847" d="M694.3,119.2c-.111,1.385,4.362,3.1,4.362,3.1a21.39,21.39,0,0,0-2.424,2.091c-4.543,7.021,11.315,13.115,17.367,3.573,1.26-2.008,7.88-7.174,11.55-6.343-2.77,1.385-3.462,2.936-3.518,6.371,0,2.95,3.85,2.548,6.412,3.739,3.878,1.814,5.775,4.515,9.777,4.155,5.36,4.57,2.562,7.7,2.562,7.7s-37.018-4.432-42.53-6.814C690.592,133.7,686.936,124.463,694.3,119.2Z" transform="translate(491.034 5329.584)" fill="#3f3d4e"/>
    <path id="Path_2848" data-name="Path 2848" d="M691.39,125.11s8.448,11.19,20.053,8.974,35.758,1.717,29.886,13.988-8.822,5.914-8.988,12.824-12.547-4.044-11.2-12.076-5.346-4.847-15.372-6.343S686.944,130.594,691.39,125.11Z" transform="translate(490.014 5331.859)" fill="#505168"/>
    <path id="Path_2849" data-name="Path 2849" d="M692.344,134.348a30.828,30.828,0,0,0,16.051,2.867c21.48-2.022,27.3,7.409,29.083,7.7-5.844,12.118-8.766,5.817-8.933,12.713s-12.547-4.044-11.2-12.076S712,140.7,701.969,139.209A21.217,21.217,0,0,1,690.89,133.6,7.528,7.528,0,0,0,692.344,134.348Z" transform="translate(493.824 5335.127)" fill="#3f3d4e"/>
    <path id="Path_2850" data-name="Path 2850" d="M746.273,165.606c10.816-2.313,29.388,8.157,16.619,36.963-12.464,28.349-22.657,46.283-30.828,47.9-1.385.277-52.169,3.116-52.169,3.116s-7.714-3.878-4.266-18.128l39.137-6.135s-2.673-3.338,4.224-5.456S727.245,169.692,746.273,165.606Z" transform="translate(486.455 5347.327)" fill="#31c28f"/>
    <path id="Path_2851" data-name="Path 2851" d="M733.681,152.95a2.313,2.313,0,1,1,.178-1.771A2.327,2.327,0,0,1,733.681,152.95Z" transform="translate(444.15 5341.259)" fill="#406f8f"/>
    <path id="Path_2852" data-name="Path 2852" d="M720.478,144.45a7.894,7.894,0,1,1-7.88-7.88A7.894,7.894,0,0,1,720.478,144.45Z" transform="translate(491.712 5336.27)" fill="#406f8f"/>
    <path id="Path_2853" data-name="Path 2853" d="M716.16,143.515a4.5,4.5,0,1,1-1.313-3.192,4.515,4.515,0,0,1,1.313,3.192Z" transform="translate(492.652 5337.206)" fill="#5ca2cd"/>
    <path id="Path_2854" data-name="Path 2854" d="M709.1,154.556a2.548,2.548,0,0,1-1.025-2.894c1.925-6.107,5.54-23.543-.969-31.174a2.562,2.562,0,0,1,3.892-3.324c9.694,11.259,2.285,35.024,1.966,36.007a2.548,2.548,0,0,1-3.864,1.385Z" transform="translate(493.621 5328.491)" fill="#4c86ae"/>
    <path id="Path_2855" data-name="Path 2855" d="M707.921,185.571l.5-.415c.332-.291,8.309-7.243,10.318-26.687l-1.385-.138c-1.676,16.148-7.659,23.543-9.376,25.316l-4.944-5.152-8.212.554.1,1.385,7.575-.512Z" transform="translate(507.122 5344.646)" fill="#505168"/>
    <path id="Path_2856" data-name="Path 2856" d="M389.318,196.972l1.911-15.137c1.246-9.459,9.57-17.187,18.5-17.145l57.75.194c11.9,0,14.818,12.395,14.375,21.189,0,.942-14.957,113.562-14.957,113.562-1.246,9.473-17.837,20.095-26.77,20.067l-42.046-.208c-8.946,0-15.234-7.811-13.987-17.284L392.9,235.2a20.455,20.455,0,0,1,7.7-13.281,4.556,4.556,0,0,0,1.745-3.019h0c.665-3.989-2.091-8.212-6.135-8.212C390.412,210.738,388.639,202.124,389.318,196.972Z" transform="translate(1174.499 5347.093)" fill="#4c86ae"/>
    <path id="Path_2857" data-name="Path 2857" d="M456.353,302.209l8.808-67.015a20.482,20.482,0,0,1,7.714-13.281,4.542,4.542,0,0,0,1.731-3.019c.665-3.989-2.091-8.212-6.121-8.212-5.8,0-7.589-8.614-6.924-13.752l1.911-15.137A20.15,20.15,0,0,1,478.539,165.1a15.692,15.692,0,0,0-2.327-.18l-57.75-.194c-8.933,0-17.256,7.686-18.5,17.145l-1.911,15.082c-.679,5.138,1.094,13.752,6.925,13.752,4.044,0,6.8,4.224,6.135,8.212a4.556,4.556,0,0,1-1.745,3.019,20.455,20.455,0,0,0-7.7,13.281l-8.836,66.988c-1.246,9.473,5.041,17.256,13.988,17.284l42.046.208c3.352,0,7.783-1.482,12.076-3.836A15.552,15.552,0,0,1,456.353,302.209Z" transform="translate(1165.768 5347.109)" fill="#5ca2cd"/>
    <path id="Path_2858" data-name="Path 2858" d="M461.587,198.136a5.1,5.1,0,0,1-2.617-.706H395.431a5.138,5.138,0,0,0,2.617.706c4.044,0,6.8,4.224,6.135,8.212a4.557,4.557,0,0,1-1.745,3.019,21.011,21.011,0,0,0-3.587,3.6h63.525a21.1,21.1,0,0,1,3.6-3.6,4.543,4.543,0,0,0,1.731-3.019C468.415,202.374,465.645,198.136,461.587,198.136Z" transform="translate(1172.665 5359.695)" fill="#4c86ae"/>
    <path id="Path_2859" data-name="Path 2859" d="M396.394,210.742h.471c-2.77-2.77-3.656-8.406-3.158-12.2l1.911-15.137c1.246-9.473,9.57-17.187,18.516-17.159l57.736.208a13.972,13.972,0,0,1,2.7.249,12.907,12.907,0,0,0-6.924-1.828l-57.75-.194c-8.933,0-17.256,7.686-18.5,17.145l-1.9,15.151C388.818,202.128,390.591,210.742,396.394,210.742Z" transform="translate(1174.32 5347.089)" fill="#4c86ae"/>
    <path id="Path_2860" data-name="Path 2860" d="M442.635,290.608l8.808-67.029a20.455,20.455,0,0,1,7.7-13.267,4.584,4.584,0,0,0,1.745-3.033c.665-3.975-2.091-8.2-6.135-8.2h-.319a7.492,7.492,0,0,1,2.23,6.648,4.557,4.557,0,0,1-1.745,3.019,20.455,20.455,0,0,0-7.7,13.281l-8.794,66.96c-1.108,8.448,3.781,15.539,11.176,17.007C444.657,303.183,441.749,297.3,442.635,290.608Z" transform="translate(1120.171 5360.331)" fill="#888a9e"/>
    <rect id="Rectangle_1338" data-name="Rectangle 1338" width="5.027" height="12.921" rx="0.79" transform="translate(1568.871 5752.631)" fill="#3f3d4e"/>
    <path id="Path_2861" data-name="Path 2861" d="M473.844,281.9H431.576l-5.456-5.429h53.194Z" transform="translate(1118.668 5390.118)" fill="#4c86ae"/>
    <path id="Path_2862" data-name="Path 2862" d="M514.252,323.7v7.783l-60.576,15.234H447.32Z" transform="translate(1054.37 5408.296)" fill="#505168"/>
    <path id="Path_2863" data-name="Path 2863" d="M2.493,67.334h.568A2.479,2.479,0,0,0,5.54,64.855V0H0V64.841a2.479,2.479,0,0,0,2.493,2.493Z" transform="translate(1568.608 5671.767)" fill="#3f3d4e"/>
    <rect id="Rectangle_1339" data-name="Rectangle 1339" width="13.697" height="7.229" rx="1.18" transform="translate(1564.537 5671.753)" fill="#505168"/>
    <path id="Path_2864" data-name="Path 2864" d="M492.735,345.137a6.287,6.287,0,1,1-6.287-6.287A6.287,6.287,0,0,1,492.735,345.137Z" transform="translate(1030.407 5414.128)" fill="#3f3d4e"/>
    <path id="Path_2865" data-name="Path 2865" d="M486.647,343.813a1.523,1.523,0,1,1-1.523-1.523A1.523,1.523,0,0,1,486.647,343.813Z" transform="translate(1031.731 5415.452)" fill="#505168"/>
    <path id="Path_2866" data-name="Path 2866" d="M395,323.7v7.783l60.562,15.234h6.37Z" transform="translate(1179.148 5408.296)" fill="#505168"/>
    <path id="Path_2867" data-name="Path 2867" d="M401.41,345.137a6.287,6.287,0,1,0,6.287-6.287A6.287,6.287,0,0,0,401.41,345.137Z" transform="translate(1218.218 5414.128)" fill="#3f3d4e"/>
    <path id="Path_2868" data-name="Path 2868" d="M404.85,343.813a1.523,1.523,0,1,0,1.523-1.523,1.523,1.523,0,0,0-1.523,1.523Z" transform="translate(1219.542 5415.452)" fill="#505168"/>
    <path id="Path_2869" data-name="Path 2869" d="M445.213,346.717h1.759l1.883-23.017H443.33Z" transform="translate(1125.292 5408.296)" fill="#505168"/>
    <path id="Path_2870" data-name="Path 2870" d="M444.784,347.6h3.033l1.994-24.4H442.79Zm1.759-1.385h-.485l-1.773-21.632H448.3Z" transform="translate(1125.084 5408.104)" fill="#505168"/>
    <path id="Path_2871" data-name="Path 2871" d="M442.26,164.894l-57.75-.194h-.554l49.856.166c11.9,0,14.818,12.395,14.375,21.189,0,.942-14.957,113.562-14.957,113.562-1.191,9.154-16.716,19.389-25.815,20.026h7.465c8.933,0,25.524-10.594,26.77-20.067,0,0,14.915-112.662,14.957-113.562C457.079,177.289,454.156,164.894,442.26,164.894Z" transform="translate(1199.72 5347.098)" fill="#002d70"/>
    <path id="Path_2872" data-name="Path 2872" d="M423.722,280.285H529.2c2.77,0,4.986-1.7,4.986-3.767v-5.941c0-2.077-2.244-3.767-4.986-3.767H431.6c-7.077,0-12.852,4.362-12.852,9.694h0C418.75,278.582,420.994,280.285,423.722,280.285Z" transform="translate(1074.007 5386.399)" fill="#5ca2cd"/>
    <rect id="Rectangle_1340" data-name="Rectangle 1340" width="1.385" height="45.757" transform="translate(1573.455 5678.982)" fill="#505168"/>
    <rect id="Rectangle_1341" data-name="Rectangle 1341" width="1.385" height="7.908" transform="translate(1524.371 5518.422) rotate(-157.77)" fill="#e2a26c"/>
    <path id="Path_2873" data-name="Path 2873" d="M528.724,215.4h0c-1.274,1.108.983,2.437,2.659.554h0a8.31,8.31,0,0,1-2.659-.554Z" transform="translate(925.021 5366.612)" fill="#d6d6e4"/>
    <path id="Path_2874" data-name="Path 2874" d="M506.4,223.494a17.861,17.861,0,0,0,.706-6.2,25.4,25.4,0,0,1-1.385,2.271c-1.676,1.883-3.933.554-2.659-.554s2.077-4.252,2.05-8.309,11.453-5.263,24.54-4.155a47.974,47.974,0,0,0,8.49-.443l3.088,9.694c-10.151-2.008-11.384,3.13-16.19,2.964-6.149-.208-8.42-6.107-9.14-2.77-.4,1.939-3.49,4.376-3.49,4.376,2.257.734,3.324,2.382,2.617,2.673-5.415,2.244-5.443-2.188-5.443-2.188C509.365,223.577,505.792,225.184,506.4,223.494Z" transform="translate(950.709 5363.032)" fill="#efccbb"/>
    <path id="Path_2875" data-name="Path 2875" d="M493.518,218.172c2.382-4.792,14.071-32.13,18.475-40.841,6.107-12.132,29.208-.139,21.812,18.641-2.964,7.548-23.031,42.1-35.44,42.143s-52.418-2.894-52.418-2.894c.776-9.265.706-16.73.706-16.73C454.852,218.49,493.518,218.172,493.518,218.172Z" transform="translate(1035.274 5350.074)" fill="#31c28f"/>
    <path id="Path_2876" data-name="Path 2876" d="M473.952,335.88c1.994-5.11,1.288-16.439-1.676-21.037-1.634-2.521,19.07-10.553,19.07-10.553s6.786,12.852,8.5,14.375c3.642,3.241,11.758,11.979,6.855,20.635-1.745,3.088-6.717,6.274-11.689,10.345-8.974,7.34-19.389,14.306-25,14.943-8.766,1-13.461-5.263-9.154-11.758S471.93,341,473.952,335.88Z" transform="translate(1043.872 5400.826)" fill="#4c86ae"/>
    <path id="Path_2877" data-name="Path 2877" d="M468.395,365.634a17.777,17.777,0,0,0,1.883-.111c7.409-.845,21.272-11.772,25.344-15.109,1.385-1.094,2.673-2.119,3.947-3.1,3.531-2.77,6.578-5.055,7.922-7.437,5.332-9.417-4.016-18.821-7.008-21.48-1.191-1.066-5.65-9.071-8.309-14.2l-.291-.54-.568.222c-3.088,1.191-18.516,7.326-19.541,10.456a1.247,1.247,0,0,0,.138,1.122c2.77,4.238,3.615,15.3,1.62,20.413h0c-1.094,2.77-3.753,5.761-6.578,8.9a70.172,70.172,0,0,0-6.44,7.922c-2.036,3.061-2.313,6.287-.734,8.863S464.462,365.634,468.395,365.634Zm22.8-60.229c1.385,2.673,6.758,12.589,8.379,14.029,2.77,2.479,11.536,11.245,6.717,19.763-1.2,2.133-4.155,4.4-7.561,7.021-1.288,1-2.631,2.022-3.975,3.13-10.664,8.725-19.873,14.264-24.624,14.791-4.155.485-7.645-.748-9.21-3.3-1.274-2.091-1.025-4.792.706-7.381a70.764,70.764,0,0,1,6.329-7.769c2.908-3.227,5.65-6.287,6.827-9.307h0c1.967-5.055,1.468-16.688-1.745-21.674C473.2,313.3,482.465,308.812,491.19,305.4Z" transform="translate(1043.668 5400.583)" fill="#406f8f"/>
    <path id="Path_2878" data-name="Path 2878" d="M484.307,334.884c2.59-1.551,12.118-11.647,14.4-12.464,4.584-1.648,11.273,1.385,6.371,10.068-1.745,3.088-6.717,6.274-11.689,10.345-8.974,7.34-19.389,14.306-25,14.943-8.766,1-11.592-3.6-7.271-10.1S472.535,341.891,484.307,334.884Z" transform="translate(1045.469 5407.638)" fill="#406f8f"/>
    <path id="Path_2879" data-name="Path 2879" d="M509.292,271.1A590.54,590.54,0,0,1,541.034,337.4c-39.664,6.855-46.353,30.011-46.353,30.011s-33.93-104.7-28.377-116.858C469.517,243.536,489.363,235.988,509.292,271.1Z" transform="translate(1002.148 5377.863)" fill="#104798"/>
    <path id="Path_2880" data-name="Path 2880" d="M434.213,249.258c13.766-11.079,101.5-18.918,101.5-18.918s26.105,19.25,18.807,39.248c-6.924,18.876-70.021,8.476-92.456,6.066C440.791,273.41,415.461,264.353,434.213,249.258Z" transform="translate(1040.042 5372.362)" fill="#104798"/>
    <path id="Path_2881" data-name="Path 2881" d="M490.8,347.294c6.26-3.421,27.92-1.149,33.238-20.773h16.148s-.679,10.761,1.233,16.993,2.77,12.713-6.5,12.464c-7.714-.194-33.376-.152-41.63-.125a5.235,5.235,0,0,1-5.027-3.462C487.673,350.811,487.95,348.872,490.8,347.294Z" transform="translate(969.617 5409.382)" fill="#5ca2cd"/>
    <path id="Path_2882" data-name="Path 2882" d="M535.618,356.916c3.227,0,5.415-.817,6.7-2.507,2.05-2.77,1.122-7.008,0-10.858-1.856-6.052-1.219-16.619-1.2-16.757v-.734H523.708l-.138.526c-3.808,14.154-16.245,16.536-25.33,18.281a28.848,28.848,0,0,0-7.534,2.064c-3.421,1.87-3.462,4.279-2.908,5.969a5.9,5.9,0,0,0,5.678,3.933h0c7.8,0,33.861-.069,41.547.125Zm4.016-29.471c-.111,2.562-.36,11.079,1.3,16.508,1.025,3.31,1.967,7.4.277,9.625-1.039,1.385-3.074,2.022-6.08,1.939-7.769-.194-33.861-.152-41.672-.125h0A4.515,4.515,0,0,1,489.1,352.4c-.582-1.745.152-3.158,2.257-4.321h0a28.755,28.755,0,0,1,7.132-1.9c8.808-1.69,22.062-4.238,26.313-18.779Z" transform="translate(969.395 5409.205)" fill="#406f8f"/>
    <path id="Path_2883" data-name="Path 2883" d="M509.5,247.364c8.185-1.7,21.978,4.916,23.973,16.453,1.9,10.844-3.365,102.247-3.435,102.247-.817.249-11.079-.443-20.773.706-14.264,1.69-24.928-6.232-24.928-6.454-.138-5.914,17.214-97.968,16.868-102.123C500.55,250.951,504.206,248.458,509.5,247.364Z" transform="translate(983.482 5378.813)" fill="#0f4798"/>
    <path id="Path_2884" data-name="Path 2884" d="M486.6,263.634c.36.956,3.961,68.386,2.77,76.557a109.609,109.609,0,0,1-4.986,21.092c8.822-.762,17.3-.208,18-.443.069,0,4.847-82.914,3.656-100.17A90.943,90.943,0,0,1,486.6,263.634Z" transform="translate(1011.062 5384.036)" fill="#002d70"/>
    <path id="Path_2885" data-name="Path 2885" d="M421.333,252.507c14.375-11.273,101.485-23.737,101.485-23.737s26.646,18,19.707,38.777c-6.551,19.583-66.932,15.594-89.548,14.458C431.526,280.953,402.4,267.353,421.333,252.507Z" transform="translate(1069.402 5371.758)" fill="#104798"/>
    <path id="Path_2886" data-name="Path 2886" d="M511.873,228.77s-23.543,3.365-48.1,8.171a15.679,15.679,0,0,1,3.185,2.188,12.954,12.954,0,0,1,1.51,1.385c5.913,6.343,4.944,15.691-.748,21.7-9.694,10.207-26.244,14.389-39.927,13.572-4.224-.249-8.406-.582-12.589-.831a68.734,68.734,0,0,0,26.826,7.091c22.615,1.136,83,5.124,89.548-14.458C538.574,246.829,511.873,228.77,511.873,228.77Z" transform="translate(1080.348 5371.758)" fill="#002d70"/>
    <path id="Path_2887" data-name="Path 2887" d="M457.675,175.059c.526-2.008,3.628-5.789,3.628-5.789s5.235,3.518,4.542,7.409-7.742,23.308-7.742,23.308c-.1-2.216-1.551-9.777.706-15.663C461.581,177.205,457.135,177.081,457.675,175.059Z" transform="translate(1088.539 5348.856)" fill="#5ca2cd"/>
    <path id="Path_2888" data-name="Path 2888" d="M465.291,154.6a24.388,24.388,0,0,0,8.766,12.146l-14.68,19.79c-.4-12.076-10.5-14.846-10.5-14.846C450.736,166.36,463.463,148.689,465.291,154.6Z" transform="translate(1092.404 5342.75)" fill="#efccbb"/>
    <path id="Path_2889" data-name="Path 2889" d="M468.843,164.95c-1.759,3.407-9.611,5.623-9.611,5.623,1.856-5.332,3.642-16.536,9.168-13.849C470.491,157.749,470.6,161.585,468.843,164.95Z" transform="translate(1082.052 5343.87)" fill="#d8a895"/>
    <path id="Path_2890" data-name="Path 2890" d="M489.213,139.319s8.309,34.179,2.382,24.8-10.636-8.863-9.874-18.17S489.213,139.319,489.213,139.319Z" transform="translate(1027.364 5337.191)" fill="#3f3d4e"/>
    <path id="Path_2891" data-name="Path 2891" d="M449.4,129.139c6.564-1.066,17.117,10.8,15.552,20.275S454.7,162.5,447.115,155.895s-4.639-11.148-3.213-14.6S442.836,130.191,449.4,129.139Z" transform="translate(1110.705 5333.384)" fill="#505168"/>
    <path id="Path_2892" data-name="Path 2892" d="M462.787,136.34a8.891,8.891,0,0,1-1.246,5.193,8.185,8.185,0,0,1-11.3,2.534,7.963,7.963,0,0,1-2.839-3.158c-.471-.485-1-.928-1.482-1.385a6.925,6.925,0,0,1-1.606-2.576,6.165,6.165,0,0,1-.388,1.565c-1.385,3.448-4.39,7.991,3.213,14.6s16.259,2.991,17.838-6.481a16.466,16.466,0,0,0-2.188-10.29Z" transform="translate(1110.682 5336.182)" fill="#3f3d4e"/>
    <path id="Path_2893" data-name="Path 2893" d="M459.549,129.88a7.409,7.409,0,0,0-4.155-.748c-4.681.748-4.778,4.93-4.944,8.476A16.065,16.065,0,0,1,459.549,129.88Z" transform="translate(1104.739 5333.39)" fill="#3f3d4e"/>
    <path id="Path_2894" data-name="Path 2894" d="M498.368,159.4c-.54,15.982-14.251,25.828-18.2,22.366-2.2-1.939-1.316-2.521-3.047-3.5-.8-.457-1.3-.1-2.894-.485-.9-.222.152-1.814.152-1.814a2.064,2.064,0,0,1-1.911-.36c-.346-.291-.291-2.77-.678-2.617-3.753,1.385-3.961,0-3.961-1.385,0-5.193.1-9.819-1.565-11.619-11.2-12.173-2.95-18.724,2.285-21.217C479.437,133.561,498.909,143.436,498.368,159.4Z" transform="translate(1051.738 5336.578)" fill="#efccbb"/>
    <path id="Path_2895" data-name="Path 2895" d="M464.52,132.08c9.459-12.062,23.793-2.507,24.928,2.008,13.087,2.105,18.89,37.545-5.069,35.467-16.508-1.385-17.048-13.558-21.8-16.079-2.147-1.122-9.833-5.069-10.678-6.772C446.585,135.944,464.52,132.08,464.52,132.08Z" transform="translate(1062.832 5332.284)" fill="#505168"/>
    <path id="Path_2896" data-name="Path 2896" d="M489.567,130.9l.374-.194c-1.191,1.842-1.08,2.022-.983,4.307a2.9,2.9,0,0,0,0,.346c-1.828-1.2-10.11,1.288-12.3,3.185C480.178,132.593,489.567,130.9,489.567,130.9Z" transform="translate(1038.048 5334.015)" fill="#3f3d4e"/>
    <path id="Path_2897" data-name="Path 2897" d="M462.212,154.674c12.187,1.26,17.768-4.487,19.181-10.484.859,10.207-1.2,20.386-14.472,20.192-10.539-.152-16.813-14.721-15.552-17.007a15.234,15.234,0,0,0,10.844,7.3Z" transform="translate(1081.676 5339.203)" fill="#3f3d4e"/>
    <path id="Path_2898" data-name="Path 2898" d="M418.021,202.339c2.437-4.833,1.537-14.071,4.584-18.225,4.293-5.844-.554-9.32-.554-9.32-.222-6.731,8.753-6.924,10.5-16.023,0,0,21.078,13.5,23.931,15.649,32.974,24.928,33.238,110.141,26.452,128.366-33.1,9.32-63-41.062-63-41.062s-4.335-6.814,1.025-23.931C423.117,230.9,405.28,227.752,418.021,202.339Z" transform="translate(1129.163 5344.814)" fill="#21e09d"/>
    <path id="Path_2899" data-name="Path 2899" d="M495.552,204.851c1.565-.319,5.8-2.23,6.19-2.867.083-.152-1.7.166-2.936,0-2.77-.512-2.77-3.365-1-2.77s5.166-.471,8.9-2.77,6.3,1.191,10.539,5.041,5.11,10.511,6.758,13.7,8.6,3.545,8.6,3.545l-2.2,13.558c-9.085-6.717-13.2-.083-16.619-7.188-5.193-10.622-2.368-16.771-5.941-15.511-2.036.72-6.066-.789-6.066-.789.609,2.534-.346,4.473-1.011,3.975-5.166-3.795-1.053-6.329-1.053-6.329C497.158,207.648,493.627,205.224,495.552,204.851Z" transform="translate(969.979 5359.033)" fill="#efccbb"/>
    <path id="Path_2900" data-name="Path 2900" d="M531.862,232.723l.817-1.122A16.619,16.619,0,0,0,522,228.014c-2.618-.069-4.155-.111-5.775-3.351a37.141,37.141,0,0,1-3.5-11.952c-.3-2.064-.485-3.324-1.385-3.864a2.133,2.133,0,0,0-1.9,0c-1.482.512-4.542-.388-5.54-.789l-1.219-.443.3,1.26a4.64,4.64,0,0,1-.152,3.088c-1.385-1.08-2.119-2.147-2.091-3.1a2.77,2.77,0,0,1,1.233-1.925l-.692-1.191a3.448,3.448,0,0,1-2.534.111,3.282,3.282,0,0,1-.845-.374c1.62-.443,5.8-2.2,6.357-3.13l.208-.346-.208-.388c-.249-.388-.6-.374-1.3-.319a10.764,10.764,0,0,1-2.105,0,1.953,1.953,0,0,1-1.579-1.108.526.526,0,0,1,0-.388h.277c2.022.623,5.54-.443,9.473-2.867l-.72-1.177c-3.476,2.147-6.745,3.213-8.309,2.77a1.593,1.593,0,0,0-1.662.319,1.69,1.69,0,0,0-.346,1.745,3.3,3.3,0,0,0,2.673,2.091,1.581,1.581,0,0,1,.609.083,21.859,21.859,0,0,1-3.878,1.482,1.219,1.219,0,0,0-1.08.873,1.439,1.439,0,0,0,.692,1.385,5.151,5.151,0,0,0,2.77.956,3.518,3.518,0,0,0-.36,1.385c0,1.5.914,2.991,2.881,4.432a1.066,1.066,0,0,0,1.246,0,4.016,4.016,0,0,0,1.039-3.531,10.331,10.331,0,0,0,5.443.415c.36-.125.623-.152.72-.083.346.194.526,1.5.734,2.881a37.986,37.986,0,0,0,3.629,12.367c1.953,3.988,4.279,4.058,6.924,4.155A15.234,15.234,0,0,1,531.862,232.723Z" transform="translate(968.125 5359.052)" fill="#505168"/>
    <path id="Path_2901" data-name="Path 2901" d="M483.263,227.192c2.16-5.429,13.71-39.691,17.713-49.593,5.54-13.766,32.3-.222,25.953,20.912-2.548,8.489-23.059,48.8-36.575,49.967s-56.172-3.088-56.172-3.088a153.424,153.424,0,0,1,1.62-20.552C447.824,228.148,483.263,227.192,483.263,227.192Z" transform="translate(1058.921 5349.917)" fill="#31c28f"/>
    <path id="Path_2902" data-name="Path 2902" d="M483.845,140.241v2.008a6.488,6.488,0,0,0,.069,1.149c.069.388.1.762.18,1.136a11.467,11.467,0,0,0,1.828,4.362,10.2,10.2,0,0,0,.762.969,6.132,6.132,0,0,0,.872.928c.319.277.623.582.956.873l1.08.748.554.388.6.3,1.219.637c.831.374,1.717.665,2.59,1.011a18.377,18.377,0,0,1-2.77-.138l-1.385-.235-.72-.125-.706-.194-1.385-.429-1.385-.609a9.207,9.207,0,0,1-1.385-.734,10.16,10.16,0,0,1-1.3-.872,15.774,15.774,0,0,1-4.265-4.833c-.277-.471-.512-.969-.776-1.385a8.84,8.84,0,0,1-.637-1.551,14.7,14.7,0,0,1-.5-1.62c-.083-.263-.139-.554-.208-.845q-.084-.51-.138-1.025a3.587,3.587,0,0,1,7.16.152Z" transform="translate(1032.982 5336.38)" fill="#4e5069"/>
    <path id="Path_2903" data-name="Path 2903" d="M481.96,156.328a3.407,3.407,0,0,0,2.008-.983,4.612,4.612,0,0,0,.748-.886,5.91,5.91,0,0,0,.54-1.066.582.582,0,0,0-.332-.748.6.6,0,0,0-.485,0h-.083c-.72.4-1.468.762-2.23,1.094l-1.149.471c-.374.166-.776.291-1.136.415l.692.249a12.064,12.064,0,0,1-.706-1.025c-.235-.36-.429-.748-.637-1.122a16.191,16.191,0,0,1-1.066-2.437,6.925,6.925,0,0,0,.222,2.77,9.7,9.7,0,0,0,1.122,2.59.568.568,0,0,0,.609.263h.083a9.473,9.473,0,0,0,1.3-.388,9.688,9.688,0,0,0,1.246-.5,14.733,14.733,0,0,0,2.3-1.385l-.9-.665a4.759,4.759,0,0,1-.277.9,6.621,6.621,0,0,1-.443.886,4.792,4.792,0,0,1-1.427,1.565Z" transform="translate(1040.739 5341.551)" fill="#4e5069"/>
    <ellipse id="Ellipse_171" data-name="Ellipse 171" cx="2.327" cy="2.327" rx="2.327" ry="2.327" transform="translate(1521.093 5516.451)" fill="#c58d61"/>
    <path id="Path_2904" data-name="Path 2904" d="M480.39,153.74a7.88,7.88,0,1,1-7.88-7.88,7.88,7.88,0,0,1,7.88,7.88Z" transform="translate(1064.259 5339.846)" fill="#c58d61"/>
    <path id="Path_2905" data-name="Path 2905" d="M476.09,152.8a4.5,4.5,0,1,1-1.318-3.2,4.515,4.515,0,0,1,1.318,3.2Z" transform="translate(1065.195 5340.781)" fill="#edcc8a"/>
    <path id="Path_2906" data-name="Path 2906" d="M487.386,163.09a2.576,2.576,0,0,1-2.244-2.105c-1.094-6.315-5.983-23.543-15.234-27.213a2.562,2.562,0,0,1,1.911-4.75c13.752,5.54,18.156,30.038,18.336,31.077a2.576,2.576,0,0,1-2.77,2.991Z" transform="translate(1049.245 5333.307)" fill="#e2a26c"/>
    <path id="Path_2907" data-name="Path 2907" d="M481.247,153.381c.277.346.471,1.025.125,1.316a1.385,1.385,0,0,1-1.523,0c-.277-.346-.443-1.053-.1-1.385a1.385,1.385,0,0,1,1.5.069Z" transform="translate(1042.422 5342.642)" fill="#3f3d4e"/>
    <path id="Path_2908" data-name="Path 2908" d="M476.626,226.168c6.814,0,10.041-.263,10.1-.263h.443l.152-.415,17.02-47.848-1.3-.471-16.868,47.419a293.129,293.129,0,0,1-32.434-.485l-.083,1.385C463.691,226,471.252,226.168,476.626,226.168Z" transform="translate(1055.518 5351.897)" fill="#505168"/>
    <path id="Path_2909" data-name="Path 2909" d="M477.982,164.183a11.619,11.619,0,0,1,3.559-1.039h0a.845.845,0,0,0,.914-.789,2.257,2.257,0,0,0-1.994-2.105l-.1.679a1.607,1.607,0,0,1,1.385,1.385c0,.069,0,.18-.249.152a12.782,12.782,0,0,0-3.85,1.094Z" transform="translate(1044.163 5345.384)" fill="#d8a895"/>
    <path id="Path_2910" data-name="Path 2910" d="M476.252,164.552a4.154,4.154,0,0,1,.928,0h.914a10.858,10.858,0,0,1,1.8.194h0l-.457-.3a1.706,1.706,0,0,1,.222.679,2,2,0,0,1,0,.8,3.462,3.462,0,0,1-.942,1.5,3.725,3.725,0,0,0,1.385-1.288,2.87,2.87,0,0,0,.346-.983,2.41,2.41,0,0,0,0-1.122l-.1-.346h-.346a13.346,13.346,0,0,0-1.911.443l-.914.208A5.44,5.44,0,0,0,476.252,164.552Z" transform="translate(1048.039 5346.705)" fill="#c2847c"/>
    <path id="Path_2911" data-name="Path 2911" d="M478.187,163.86c-.235.36-.512.72-.776,1.053a3.684,3.684,0,0,1-.942.914,3.906,3.906,0,0,0,1.274-.512c.4-.222.789-.457,1.177-.72Z" transform="translate(1049.331 5346.774)" fill="#c2847c"/>
    <rect id="Rectangle_1342" data-name="Rectangle 1342" width="98.383" height="147.063" transform="translate(1297.362 5618.49)" fill="#65a070"/>
    <rect id="Rectangle_1343" data-name="Rectangle 1343" width="8.933" height="156.895" transform="translate(1110.095 5608.533)" fill="#65a070"/>
    <rect id="Rectangle_1344" data-name="Rectangle 1344" width="598.125" height="10.11" transform="translate(987.103 5608.533)" fill="#7bbb88"/>
    <rect id="Rectangle_1345" data-name="Rectangle 1345" width="98.383" height="147.063" transform="translate(1303.511 5618.49)" fill="#7bbb88"/>
    <path id="Path_2912" data-name="Path 2912" d="M666.093,265.131,567.71,251.614V241.74h98.383Z" transform="translate(735.801 5376.75)" fill="#65a070"/>
    <path id="Path_2913" data-name="Path 2913" d="M647.185,232.324v13.212l-138.947-.014L404.73,232.31Z" transform="translate(980.421 5373.121)" fill="#65a070"/>
    <rect id="Rectangle_1346" data-name="Rectangle 1346" width="8.933" height="156.895" transform="translate(1482.509 5608.533)" fill="#65a070"/>
    <rect id="Rectangle_1347" data-name="Rectangle 1347" width="8.933" height="156.895" transform="translate(1626.816 5608.533)" fill="#65a070"/>
    <rect id="Rectangle_1348" data-name="Rectangle 1348" width="8.933" height="156.895" transform="translate(998.514 5608.533)" fill="#7bbb88"/>
    <rect id="Rectangle_1349" data-name="Rectangle 1349" width="550.927" height="6.855" transform="translate(975.012 5598.547)" fill="#9bdd84"/>
    <path id="Path_2914" data-name="Path 2914" d="M797.007,227.37l160.635.014v6.855l-479.522-.014Z" transform="translate(568.325 5371.219)" fill="#7bbb88"/>
    <rect id="Rectangle_1350" data-name="Rectangle 1350" width="143.808" height="6.855" transform="translate(1511.066 5598.562)" fill="#9bdd84"/>
    <path id="Path_2915" data-name="Path 2915" d="M423.825,227.37H451.4v6.869l-66.378-.014Z" transform="translate(1203.503 5371.219)" fill="#7bbb88"/>
    <rect id="Rectangle_1351" data-name="Rectangle 1351" width="530.168" height="3.074" transform="translate(983.723 5605.444)" fill="#65a070"/>
    <rect id="Rectangle_1352" data-name="Rectangle 1352" width="135.665" height="3.074" transform="translate(1511.661 5605.472)" fill="#65a070"/>
    <rect id="Rectangle_1353" data-name="Rectangle 1353" width="1.385" height="141.412" transform="translate(1485.224 5623.864)" fill="#9bdd84"/>
    <rect id="Rectangle_1354" data-name="Rectangle 1354" width="1.385" height="141.412" transform="translate(1000.508 5623.864)" fill="#9bdd84"/>
    <path id="Path_2916" data-name="Path 2916" d="M535.67,315.522H653V0H535.67Zm115.944-1.385H537.055V1.385H651.614Z" transform="translate(793.267 5283.704)" fill="none"/>
    <path id="Path_2918" data-name="Path 2918" d="M293.12,289.371h17.007c26.964-17.741,27.864-48.111,27.864-48.111C299.767,245.692,293.12,289.371,293.12,289.371Z" transform="translate(1444.183 5376.565)" fill="#21e09d"/>
    <path id="Path_2919" data-name="Path 2919" d="M312.508,298.432h17.007c18.294-29.762-1.385-80.712-1.385-80.712C306.857,252.523,312.508,298.432,312.508,298.432Z" transform="translate(1418.965 5367.504)" fill="#31c28f"/>
    <path id="Path_2920" data-name="Path 2920" d="M341.292,305.784h17.02s9.03-69.328-24.8-107.164C333.509,198.62,317.929,254.75,341.292,305.784Z" transform="translate(1373.88 5360.153)" fill="#31c28f"/>
    <path id="Path_2921" data-name="Path 2921" d="M340.48,255.22S341.02,273.39,357.1,284h10.179S363.331,257.879,340.48,255.22Z" transform="translate(1349.307 5381.938)" fill="#21e09d"/>
    <path id="Path_2922" data-name="Path 2922" d="M307.716,276c-11.079,32.614-.166,70.63,24.208,93.91H353.03c24.416-23.28,35.273-61.3,24.236-93.91Z" transform="translate(1386.378 5389.937)" fill="#002d70"/>
    <path id="Path_2923" data-name="Path 2923" d="M346.251,276.94h-7.935c-6.191,30.468-6.191,65.173,9.847,93.2C345.489,339.441,338.814,307.408,346.251,276.94Z" transform="translate(1376.732 5390.299)" fill="#104798"/>
    <path id="Path_2924" data-name="Path 2924" d="M356.646,343.51H319.572c-2.631,0-4.792,3.49-4.792,6.121h46.643C361.423,346.958,359.263,343.51,356.646,343.51Z" transform="translate(1390.753 5415.921)" fill="#002d70"/>
    <path id="Path_2925" data-name="Path 2925" d="M354.07,305.945c6.177-79.784-24.721-107.482-25.025-107.745l-.914,1.039c.319.277,30.676,27.6,24.568,106.637Z" transform="translate(1378.801 5359.991)" fill="#7bbb88"/>
    <path id="Path_2926" data-name="Path 2926" d="M322.441,355.26l1.094-.831c-24.928-32.559-13.046-72.79-11.522-77.554h69.051V275.49H311.03l-.166.471C310.711,276.4,295.63,320.181,322.441,355.26Z" transform="translate(1382.58 5389.74)" fill="#505168"/>
    <rect id="Rectangle_1355" data-name="Rectangle 1355" width="35.786" height="1.385" transform="translate(1710.339 5758.739)" fill="#505168"/>
    <path id="Path_2927" data-name="Path 2927" d="M852.352,247.914,833.517,173.96H759.439a3.061,3.061,0,0,0-2.2,3.725l18,70.228Z" transform="translate(287.2 5350.662)" fill="#002d70"/>
    <path id="Path_2928" data-name="Path 2928" d="M775.47,248.8h77.554v-1.385H776.55L758.643,177.7a2.354,2.354,0,0,1,1.606-2.853H820.8V173.46H759.987a3.753,3.753,0,0,0-2.687,4.57Z" transform="translate(286.473 5350.469)" fill="#104798"/>
    <path id="Path_2929" data-name="Path 2929" d="M781.564,223.55h-80.5v4.459a.776.776,0,0,0,.776.776h76.571a3.157,3.157,0,0,0,3.158-3.171Z" transform="translate(435.653 5369.749)" fill="#104798"/>
    <path id="Path_2930" data-name="Path 2930" d="M777.242,247.663h0a1.51,1.51,0,0,0,1.08-1.842L759.7,174h0a3.019,3.019,0,0,0-2.174,3.684L775.4,246.638a1.51,1.51,0,0,0,1.842,1.025Z" transform="translate(360.787 5350.677)" fill="#104798"/>
    <path id="Path_2931" data-name="Path 2931" d="M639.025,247.9,620.177,174H546.1a3.047,3.047,0,0,0-2.188,3.725l18,70.228Z" transform="translate(795.968 5350.677)" fill="#002d70"/>
    <path id="Path_2932" data-name="Path 2932" d="M568.214,223.55h-80.5v4.459a.776.776,0,0,0,.776.776H565.07a3.171,3.171,0,0,0,3.171-3.171Z" transform="translate(944.444 5369.749)" fill="#002d70"/>
    <path id="Path_2933" data-name="Path 2933" d="M563.9,247.663h0A1.51,1.51,0,0,0,565,245.821L546.357,174h0a3.005,3.005,0,0,0-2.16,3.684l17.865,68.954a1.51,1.51,0,0,0,1.842,1.025Z" transform="translate(869.553 5350.677)" fill="#104798"/>
    <path id="Path_2934" data-name="Path 2934" d="M562.1,248.8H639.65v-1.385H563.107L545.269,177.7a2.368,2.368,0,0,1,1.62-2.853h60.534V173.46H546.654a3.767,3.767,0,0,0-2.687,4.57Z" transform="translate(795.288 5350.469)" fill="#104798"/>
  </g>
</svg>
