<svg xmlns="http://www.w3.org/2000/svg" width="117.104" height="148.221" viewBox="0 0 117.104 148.221">
  <g id="digital-marketing" transform="translate(-29.842 0)">
    <g id="Group_4150" data-name="Group 4150" transform="translate(29.842 0)">
      <g id="Group_4095" data-name="Group 4095" transform="translate(1.448 19.29)">
        <g id="Group_4094" data-name="Group 4094">
          <path id="Path_687" data-name="Path 687" d="M69.862,81.555h-26.8A10.751,10.751,0,0,1,32.343,70.836v-26.8A10.751,10.751,0,0,1,43.062,33.317h26.8A10.751,10.751,0,0,1,80.581,44.036v26.8A10.751,10.751,0,0,1,69.862,81.555Z" transform="translate(-32.343 -33.317)" fill="#002d70"/>
        </g>
      </g>
      <g id="Group_4097" data-name="Group 4097" transform="translate(63.979 19.29)">
        <g id="Group_4096" data-name="Group 4096">
          <path id="Path_688" data-name="Path 688" d="M177.862,81.555h-26.8a10.751,10.751,0,0,1-10.719-10.719v-26.8a10.751,10.751,0,0,1,10.719-10.719h26.8a10.751,10.751,0,0,1,10.719,10.719v26.8A10.751,10.751,0,0,1,177.862,81.555Z" transform="translate(-140.343 -33.317)" fill="#75adff"/>
        </g>
      </g>
      <g id="Group_4099" data-name="Group 4099" transform="translate(1.448 80.693)">
        <g id="Group_4098" data-name="Group 4098">
          <path id="Path_689" data-name="Path 689" d="M69.862,187.607h-26.8a10.751,10.751,0,0,1-10.719-10.719v-26.8a10.751,10.751,0,0,1,10.719-10.719h26.8a10.751,10.751,0,0,1,10.719,10.719v26.8a10.751,10.751,0,0,1-10.719,10.719Z" transform="translate(-32.343 -139.369)" fill="#fff"/>
        </g>
      </g>
      <g id="Group_4101" data-name="Group 4101" transform="translate(63.979 80.693)">
        <g id="Group_4100" data-name="Group 4100">
          <path id="Path_690" data-name="Path 690" d="M177.862,187.607h-26.8a10.751,10.751,0,0,1-10.719-10.719v-26.8a10.751,10.751,0,0,1,10.719-10.719h26.8a10.751,10.751,0,0,1,10.719,10.719v26.8a10.751,10.751,0,0,1-10.719,10.719Z" transform="translate(-140.343 -139.369)" fill="#21e09d"/>
        </g>
      </g>
      <g id="Group_4103" data-name="Group 4103" transform="translate(0 17.842)">
        <g id="Group_4102" data-name="Group 4102">
          <path id="Path_691" data-name="Path 691" d="M68.809,81.95h-26.8A12.181,12.181,0,0,1,29.842,69.783v-26.8A12.181,12.181,0,0,1,42.009,30.816h26.8A12.181,12.181,0,0,1,80.976,42.983v26.8A12.181,12.181,0,0,1,68.809,81.95Zm-26.8-48.239a9.284,9.284,0,0,0-9.273,9.273v26.8a9.283,9.283,0,0,0,9.273,9.272h26.8a9.283,9.283,0,0,0,9.273-9.272v-26.8a9.284,9.284,0,0,0-9.273-9.273Z" transform="translate(-29.842 -30.816)"/>
        </g>
      </g>
      <g id="Group_4105" data-name="Group 4105" transform="translate(62.532 17.842)">
        <g id="Group_4104" data-name="Group 4104">
          <path id="Path_692" data-name="Path 692" d="M176.809,81.95h-26.8a12.181,12.181,0,0,1-12.168-12.167v-26.8A12.181,12.181,0,0,1,150.01,30.816h26.8a12.181,12.181,0,0,1,12.167,12.167v26.8A12.182,12.182,0,0,1,176.809,81.95Zm-26.8-48.239a9.284,9.284,0,0,0-9.273,9.273v26.8a9.283,9.283,0,0,0,9.273,9.272h26.8a9.283,9.283,0,0,0,9.273-9.272v-26.8a9.284,9.284,0,0,0-9.273-9.273Z" transform="translate(-137.843 -30.816)"/>
        </g>
      </g>
      <g id="Group_4107" data-name="Group 4107" transform="translate(0 79.246)">
        <g id="Group_4106" data-name="Group 4106">
          <path id="Path_693" data-name="Path 693" d="M68.809,188h-26.8a12.181,12.181,0,0,1-12.167-12.167v-26.8a12.181,12.181,0,0,1,12.167-12.167h26.8a12.181,12.181,0,0,1,12.167,12.167v26.8A12.181,12.181,0,0,1,68.809,188Zm-26.8-48.239a9.283,9.283,0,0,0-9.273,9.272v26.8a9.284,9.284,0,0,0,9.273,9.273h26.8a9.284,9.284,0,0,0,9.273-9.273v-26.8a9.283,9.283,0,0,0-9.273-9.272Z" transform="translate(-29.842 -136.869)"/>
          <path id="Path_811" data-name="Path 811" d="M3.562,0l3.6,6.949L0,6.649Z" transform="matrix(0.966, -0.259, 0.259, 0.966, 12.135, 30.84)" fill="#21e09d"/>
          <path id="Path_810" data-name="Path 810" d="M12.615,0A12.587,12.587,0,0,1,25.46,12.383c0,6.992-5.241,12.773-12.232,12.773S1.24,19.261.5,12.659,5.623,0,12.615,0Z" transform="translate(12.435 13.016)" fill="#21e09d"/>
          <path id="icons8_chat_bubble_3" d="M17.166,4A13.181,13.181,0,0,0,4,17.164a13.044,13.044,0,0,0,1.489,5.969l-1.427,5.11a1.68,1.68,0,0,0,2.029,2.029L11.2,28.844a13.042,13.042,0,0,0,5.962,1.486A13.166,13.166,0,1,0,17.166,4Zm0,1.975A11.191,11.191,0,1,1,11.73,26.944a.988.988,0,0,0-.746-.089L6.122,28.212l1.358-4.86a.988.988,0,0,0-.089-.747A11.185,11.185,0,0,1,17.166,5.973Zm-4.608,9.876a1.317,1.317,0,1,0,1.317,1.317A1.316,1.316,0,0,0,12.558,15.849Zm4.608,0a1.317,1.317,0,1,0,1.317,1.317A1.316,1.316,0,0,0,17.166,15.849Zm4.608,0a1.317,1.317,0,1,0,1.317,1.317A1.316,1.316,0,0,0,21.774,15.849Z" transform="translate(8.401 8.402)" stroke="#000" stroke-width="1"/>
        </g>
      </g>
      <g id="Group_4109" data-name="Group 4109" transform="translate(62.532 79.246)">
        <g id="Group_4108" data-name="Group 4108">
          <path id="Path_694" data-name="Path 694" d="M176.809,188h-26.8a12.181,12.181,0,0,1-12.168-12.167v-26.8a12.181,12.181,0,0,1,12.168-12.167h26.8a12.181,12.181,0,0,1,12.167,12.167v26.8A12.182,12.182,0,0,1,176.809,188Zm-26.8-48.239a9.283,9.283,0,0,0-9.273,9.272v26.8a9.284,9.284,0,0,0,9.273,9.273h26.8a9.284,9.284,0,0,0,9.273-9.273v-26.8a9.283,9.283,0,0,0-9.273-9.272Z" transform="translate(-137.843 -136.869)"/>
        </g>
      </g>
      <g id="Group_4113" data-name="Group 4113" transform="translate(73.404 28.715)">
        <g id="Group_4112" data-name="Group 4112">
          <g id="Group_4111" data-name="Group 4111">
            <g id="Group_4110" data-name="Group 4110">
              <path id="Path_695" data-name="Path 695" d="M185.425,61.643h-1.806a.582.582,0,0,1-.563-.433,12.046,12.046,0,0,0-1.262-3.044.581.581,0,0,1,.092-.7l1.278-1.278a.584.584,0,0,0,0-.826l-2.917-2.917a.584.584,0,0,0-.826,0l-1.278,1.278a.581.581,0,0,1-.7.092,12.055,12.055,0,0,0-3.044-1.262.581.581,0,0,1-.433-.563V50.18a.584.584,0,0,0-.584-.584h-4.125a.584.584,0,0,0-.584.584v1.806a.582.582,0,0,1-.432.563,12.045,12.045,0,0,0-3.044,1.262.581.581,0,0,1-.7-.092l-1.278-1.278a.584.584,0,0,0-.826,0l-2.917,2.917a.584.584,0,0,0,0,.826l1.278,1.278a.581.581,0,0,1,.092.7,12.052,12.052,0,0,0-1.262,3.044.581.581,0,0,1-.563.433h-1.806a.584.584,0,0,0-.584.584v4.125a.584.584,0,0,0,.584.584h1.806a.582.582,0,0,1,.563.433,12.043,12.043,0,0,0,1.262,3.044.581.581,0,0,1-.092.7L159.466,72.4a.584.584,0,0,0,0,.826l2.917,2.917a.584.584,0,0,0,.826,0l1.278-1.278a.581.581,0,0,1,.7-.092,12.054,12.054,0,0,0,3.044,1.262.581.581,0,0,1,.432.563V78.4a.584.584,0,0,0,.584.584h4.125a.584.584,0,0,0,.584-.584V76.594a.582.582,0,0,1,.433-.563,12.046,12.046,0,0,0,3.044-1.262.581.581,0,0,1,.7.092l1.278,1.278a.584.584,0,0,0,.826,0l2.917-2.917a.584.584,0,0,0,0-.826l-1.278-1.278a.581.581,0,0,1-.092-.7,12.054,12.054,0,0,0,1.262-3.044.581.581,0,0,1,.563-.433h1.806a.584.584,0,0,0,.584-.584V62.227A.584.584,0,0,0,185.425,61.643Zm-14.109,9.522a6.875,6.875,0,1,1,6.875-6.875A6.875,6.875,0,0,1,171.315,71.165Z" transform="translate(-156.621 -49.596)" fill="#fff"/>
            </g>
          </g>
        </g>
      </g>
      <g id="Group_4115" data-name="Group 4115" transform="translate(19.109 28.556)">
        <g id="Group_4114" data-name="Group 4114" transform="translate(0)">
          <circle id="Ellipse_22" data-name="Ellipse 22" cx="6.458" cy="6.458" r="6.458" fill="#21e09d"/>
        </g>
      </g>
      <g id="Group_4117" data-name="Group 4117" transform="translate(13.943 41.472)">
        <g id="Group_4116" data-name="Group 4116">
          <path id="Path_696" data-name="Path 696" d="M71.464,71.628H59.631a5.724,5.724,0,0,0-5.708,5.708v8.792a2.291,2.291,0,0,0,2.291,2.291H74.881a2.291,2.291,0,0,0,2.291-2.291V77.336A5.724,5.724,0,0,0,71.464,71.628Z" transform="translate(-53.923 -71.628)" fill="#21e09d"/>
        </g>
      </g>
      <g id="Group_4120" data-name="Group 4120" transform="translate(80.601 93.338)">
        <g id="Group_4119" data-name="Group 4119">
          <g id="Group_4118" data-name="Group 4118">
            <path id="Path_697" data-name="Path 697" d="M186.263,171.06,172.1,161.543a1.955,1.955,0,0,0-3.044,1.622V182.2a1.954,1.954,0,0,0,3.044,1.622l14.167-9.517A1.954,1.954,0,0,0,186.263,171.06Z" transform="translate(-169.051 -161.208)" fill="#002d70"/>
          </g>
        </g>
      </g>
      <g id="Group_4125" data-name="Group 4125" transform="translate(51.242)">
        <g id="Group_4124" data-name="Group 4124">
          <path id="Path_699" data-name="Path 699" d="M128.975,5.143A6.426,6.426,0,0,1,123.823.1a.116.116,0,0,0-.229,0,6.426,6.426,0,0,1-5.152,5.046.113.113,0,0,0,0,.224,6.426,6.426,0,0,1,5.152,5.047.116.116,0,0,0,.229,0,6.427,6.427,0,0,1,5.152-5.047A.113.113,0,0,0,128.975,5.143Z" transform="translate(-118.345 0)" fill="#21e09d"/>
        </g>
      </g>
      <g id="Group_4127" data-name="Group 4127" transform="translate(85.203 7.382)">
        <g id="Group_4126" data-name="Group 4126">
          <path id="Path_700" data-name="Path 700" d="M183.238,15.767a3.772,3.772,0,0,1-3.023-2.962.068.068,0,0,0-.134,0,3.771,3.771,0,0,1-3.023,2.962.066.066,0,0,0,0,.131,3.772,3.772,0,0,1,3.023,2.962.068.068,0,0,0,.134,0,3.771,3.771,0,0,1,3.023-2.962A.066.066,0,0,0,183.238,15.767Z" transform="translate(-176.999 -12.75)" fill="#21e09d"/>
        </g>
      </g>
      <g id="Group_4129" data-name="Group 4129" transform="translate(45.418 134.905)">
        <g id="Group_4128" data-name="Group 4128">
          <path id="Path_701" data-name="Path 701" d="M110.113,236.177h1.349v-1.349a1.828,1.828,0,0,1,3.656,0v1.349h1.348a1.828,1.828,0,1,1,0,3.656h-1.348v1.349a1.828,1.828,0,1,1-3.656,0v-1.349h-1.349a1.828,1.828,0,1,1,0-3.656Z" transform="translate(-108.285 -233)" fill="#21e09d"/>
        </g>
      </g>
      <g id="Group_4131" data-name="Group 4131" transform="translate(36.188 8.685)">
        <g id="Group_4130" data-name="Group 4130">
          <circle id="Ellipse_23" data-name="Ellipse 23" cx="1.955" cy="1.955" r="1.955" fill="#002d70"/>
        </g>
      </g>
      <g id="Group_4133" data-name="Group 4133" transform="translate(65.717 144.311)">
        <g id="Group_4132" data-name="Group 4132">
          <circle id="Ellipse_24" data-name="Ellipse 24" cx="1.955" cy="1.955" r="1.955" fill="#002d70"/>
        </g>
      </g>
      <g id="Group_4135" data-name="Group 4135" transform="translate(113.194 71.937)">
        <g id="Group_4134" data-name="Group 4134">
          <circle id="Ellipse_25" data-name="Ellipse 25" cx="1.955" cy="1.955" r="1.955" fill="#002d70"/>
        </g>
      </g>
      <g id="Group_4139" data-name="Group 4139" transform="translate(71.957 27.267)">
        <g id="Group_4138" data-name="Group 4138">
          <g id="Group_4137" data-name="Group 4137">
            <g id="Group_4136" data-name="Group 4136">
              <path id="Path_702" data-name="Path 702" d="M172.326,79.378H168.2a2.034,2.034,0,0,1-2.032-2.032V76.191a13.493,13.493,0,0,1-2.17-.9l-.817.818a2.036,2.036,0,0,1-2.874,0l-2.917-2.917a2.035,2.035,0,0,1,0-2.873l.818-.818a13.568,13.568,0,0,1-.9-2.171h-1.155a2.034,2.034,0,0,1-2.032-2.032V61.174a2.034,2.034,0,0,1,2.032-2.032h1.156a13.483,13.483,0,0,1,.9-2.171l-.818-.818a2.035,2.035,0,0,1,0-2.872l2.918-2.918a2.036,2.036,0,0,1,2.872,0l.819.819a13.585,13.585,0,0,1,2.17-.9V49.127a2.034,2.034,0,0,1,2.032-2.032h4.125a2.034,2.034,0,0,1,2.032,2.032v1.156a13.541,13.541,0,0,1,2.17.9l.817-.818a2.036,2.036,0,0,1,2.874,0l2.917,2.917a2.03,2.03,0,0,1,0,2.874l-.816.817a13.575,13.575,0,0,1,.9,2.17h1.155a2.034,2.034,0,0,1,2.032,2.032V65.3a2.034,2.034,0,0,1-2.032,2.032h-1.155a13.489,13.489,0,0,1-.9,2.17l.818.818a2.032,2.032,0,0,1,0,2.873l-2.917,2.917a2.035,2.035,0,0,1-2.872,0l-.819-.819a13.539,13.539,0,0,1-2.17.9v1.156A2.035,2.035,0,0,1,172.326,79.378Zm-3.262-2.895h2.4v-.943a2.029,2.029,0,0,1,1.514-1.964,10.59,10.59,0,0,0,2.678-1.11,2.028,2.028,0,0,1,2.46.318l.667.667,1.7-1.7-.667-.667a2.029,2.029,0,0,1-.317-2.46,10.586,10.586,0,0,0,1.111-2.679,2.03,2.03,0,0,1,1.964-1.513h.942v-2.4h-.942a2.03,2.03,0,0,1-1.964-1.515,10.638,10.638,0,0,0-1.111-2.678,2.029,2.029,0,0,1,.32-2.461l.665-.665-1.7-1.7-.666.667a2.031,2.031,0,0,1-2.462.316,10.6,10.6,0,0,0-2.677-1.109,2.029,2.029,0,0,1-1.513-1.964V49.99h-2.4v.943A2.029,2.029,0,0,1,167.55,52.9a10.611,10.611,0,0,0-2.678,1.11,2.026,2.026,0,0,1-2.46-.317l-.667-.667-1.7,1.7.667.667a2.029,2.029,0,0,1,.318,2.458,10.659,10.659,0,0,0-1.112,2.681,2.028,2.028,0,0,1-1.963,1.513h-.943v2.4h.943a2.03,2.03,0,0,1,1.963,1.513,10.587,10.587,0,0,0,1.11,2.679,2.03,2.03,0,0,1-.316,2.458l-.669.669,1.7,1.7.666-.667a2.031,2.031,0,0,1,2.459-.318,10.6,10.6,0,0,0,2.68,1.111,2.029,2.029,0,0,1,1.513,1.964Zm12.023-4.118h0Zm3.285-10.328h.006ZM181.86,57.43l0,0Zm-.772-3.322v0Zm-17.678-2.6h0Zm13.7,0,0,0Zm-6.851,20.053a8.322,8.322,0,1,1,8.322-8.322A8.332,8.332,0,0,1,170.263,71.559Zm0-13.75a5.427,5.427,0,1,0,5.427,5.427A5.433,5.433,0,0,0,170.263,57.809Z" transform="translate(-154.122 -47.095)"/>
            </g>
          </g>
        </g>
      </g>
      <g id="Group_4141" data-name="Group 4141" transform="translate(17.662 27.109)">
        <g id="Group_4140" data-name="Group 4140">
          <path id="Path_703" data-name="Path 703" d="M68.252,62.632a7.905,7.905,0,1,1,7.9-7.906A7.914,7.914,0,0,1,68.252,62.632Zm0-12.916a5.01,5.01,0,1,0,5.01,5.01A5.016,5.016,0,0,0,68.252,49.715Z" transform="translate(-60.346 -46.821)"/>
        </g>
      </g>
      <g id="Group_4143" data-name="Group 4143" transform="translate(12.495 40.024)">
        <g id="Group_4142" data-name="Group 4142">
          <path id="Path_704" data-name="Path 704" d="M73.828,88.814H55.162a3.742,3.742,0,0,1-3.739-3.739V76.283a7.163,7.163,0,0,1,7.155-7.155H70.412a7.163,7.163,0,0,1,7.155,7.155v8.792A3.743,3.743,0,0,1,73.828,88.814ZM58.578,72.023a4.265,4.265,0,0,0-4.26,4.26v8.792a.844.844,0,0,0,.844.844H73.828a.845.845,0,0,0,.844-.844V76.283a4.265,4.265,0,0,0-4.26-4.26Z" transform="translate(-51.423 -69.128)"/>
        </g>
      </g>
      <g id="Group_4146" data-name="Group 4146" transform="translate(79.153 91.893)">
        <g id="Group_4145" data-name="Group 4145">
          <g id="Group_4144" data-name="Group 4144">
            <path id="Path_705" data-name="Path 705" d="M169.954,184.551a3.4,3.4,0,0,1-3.4-3.4V162.115a3.4,3.4,0,0,1,5.3-2.824l14.167,9.517h0a3.4,3.4,0,0,1,0,5.648l-14.168,9.517A3.4,3.4,0,0,1,169.954,184.551Zm0-22.947a.525.525,0,0,0-.243.063.489.489,0,0,0-.269.448v19.033a.507.507,0,0,0,.789.42l14.168-9.517a.508.508,0,0,0,0-.842l-14.167-9.517A.5.5,0,0,0,169.957,161.6Z" transform="translate(-166.551 -158.712)"/>
          </g>
        </g>
      </g>
    </g>
  </g>
</svg>
