<svg id="footer-logo" xmlns="http://www.w3.org/2000/svg" width="186.986" height="68.963" viewBox="0 0 186.986 68.963">
  <path id="Path_27" data-name="Path 27" d="M66.86,60.1a4.626,4.626,0,1,0,2.268,3.98A4.623,4.623,0,0,0,66.86,60.1Zm-2.354,5.475a1.513,1.513,0,1,1,1.509-1.517A1.513,1.513,0,0,1,64.506,65.575Z" transform="translate(-35.327 -35.084)" fill="#002d70"/>
  <path id="Path_24" data-name="Path 24" d="M361.089,26.527a3.836,3.836,0,0,1-.025.41,1.43,1.43,0,0,1-.021.185,2.655,2.655,0,0,1-.078.5,5.286,5.286,0,0,1-6.217,4.236,5.356,5.356,0,0,1-4.1-5.331,4.23,4.23,0,0,1,.025-.455l.021-.193a2.319,2.319,0,0,1,.074-.463,5.512,5.512,0,0,1,.6-1.608,5.258,5.258,0,0,1,4.544-2.744h0a4.992,4.992,0,0,1,1.066.115,5.151,5.151,0,0,1,3.445,2.629A5.623,5.623,0,0,1,361.089,26.527Z" transform="translate(-206.83 -12.423)" fill="#21e09d"/>
  <path id="Union_2" data-name="Union 2" d="M106.179,50.266l-.48-.082-.345-.07a15.549,15.549,0,0,1-3.482-1.181,15.349,15.349,0,0,1-2.518-1.5A15.686,15.686,0,0,1,93.8,39.911a15.028,15.028,0,0,1-.693-2.834,14.656,14.656,0,0,1-.131-3.371v-.033l.115-1.083v-.033l.381-3.629H89.516l.82-7.636.283-2.719h3.957l.861-8.2.287-2.719.287-2.743h10.5l-.287,2.743-.123,1.12-.16,1.525v.062l-.853,8.12v.061h3.957l-.074.57-.221,2.087v.062l-.791,7.574V28.9h-3.99l-.488,4.679-.029.283-.058.55a7.387,7.387,0,0,0,.574,3.2,5.225,5.225,0,0,0,8.505,1.124l5.483,8.629-.1.074a15.7,15.7,0,0,1-5.606,2.6c-.41.1-.8.176-1.2.238a15.435,15.435,0,0,1-4.876,0Zm-39.575,0,.3-2.834.787-7.521h3.965l.3-2.834.861-8.2h-21l-.1.939-.763,7.242-.3,2.834h3.958l-.792,7.521-.3,2.834H35.113l.3-2.834.792-7.521h3.953l.3-2.834.861-8.2H37.356l.82-7.636.283-2.719h3.957l.41-3.912a.216.216,0,0,1,0-.049l.123-1.132a.153.153,0,0,1,0-.045c.049-.328.106-.652.176-.98a16.2,16.2,0,0,1,.586-2.05A15.6,15.6,0,0,1,45,7.64,15.366,15.366,0,0,1,47.088,4.9,15.7,15.7,0,0,1,54.8.439a15.441,15.441,0,0,1,4-.41,15.725,15.725,0,0,1,2.908.34,15.366,15.366,0,0,1,3.478,1.177,15.533,15.533,0,0,1,4.638,3.367c.057.062.119.123.172.189L67.182,7.656l-2.908,2.637-.074.066-1.882,1.71a5.224,5.224,0,0,0-3.867-1.71h-.738v.053a5.217,5.217,0,0,0-4.368,4.1,1.419,1.419,0,0,1-.041.226,4.225,4.225,0,0,0-.066.636l-.332,3.154H84.4l-.291,2.743-.82,7.636-.857,8.2-.3,2.834,3.97-.033-.788,7.521-.3,2.834Zm-66.6,0,.3-2.834.754-7.488.3-2.834.861-8.2.82-7.636L3.3,18.557l.861-8.2H.205L.492,7.636,1.312,0h14.46l-.82,7.636-.287,2.719-.861,8.2-.185,1.772v.123a14.841,14.841,0,0,1,8.329-1.817,11.188,11.188,0,0,1,2.309.488,13.279,13.279,0,0,1,4.126,2.149,12.3,12.3,0,0,1,1.173,1.017A12.448,12.448,0,0,1,32.98,28.9a17.6,17.6,0,0,1,.078,5.791,20.321,20.321,0,0,1-.513,2.391,23.389,23.389,0,0,1-.972,2.834,19.414,19.414,0,0,1-5.29,7.521A11.891,11.891,0,0,1,21.017,50a10.76,10.76,0,0,1-1.386.2c-3.695.291-6.221-.9-8.862-2.58l.02-.189h-.311l.291.189v.09L10.5,50.266ZM12.738,28.637l-.025.238-.861,8.2-.3,2.834v.148a7.363,7.363,0,0,0,4.962,1.107,5.453,5.453,0,0,0,3.08-1.255,8.268,8.268,0,0,0,2.165-2.834,9.837,9.837,0,0,0,.865-2.727A6.169,6.169,0,0,0,21,28.9a6.065,6.065,0,0,0-3.478-1.64q-.27-.02-.539-.02A7.17,7.17,0,0,0,12.738,28.637Z" transform="translate(69.024 3.744)" fill="#002d70"/>
  <path id="Union_3" data-name="Union 3" d="M18.549,56.335a28.722,28.722,0,0,1-4.712-2.366A29.179,29.179,0,0,1,4.38,44.512,28.456,28.456,0,0,1,2.043,39.87,29.15,29.15,0,0,1,24.553.365Q25.71.18,26.891.09C27.645.029,28.408,0,29.179,0s1.6.033,2.354.094S33.054.246,33.8.365a29.182,29.182,0,0,1,22.51,39.493A28.748,28.748,0,0,1,53.978,44.5a29.25,29.25,0,0,1-9.461,9.461,28.868,28.868,0,0,1-8.378,3.523l-.435.1a7.565,7.565,0,0,1-1.476.147h-.41a7.184,7.184,0,0,1-2.268-.5,7.318,7.318,0,0,1-4.638-6.82V39.538a10.516,10.516,0,0,0,2.288.25,10.368,10.368,0,0,0,2.354-.267V50.327a2.682,2.682,0,0,0,2.268,2.653,2.413,2.413,0,0,0,.41.037,2.841,2.841,0,0,0,.529-.049l.271-.07a24.406,24.406,0,0,0,9.49-4.7A24.451,24.451,0,0,0,33.8,5.151a22.872,22.872,0,0,0-2.268-.324,23.392,23.392,0,0,0-2.354-.115q-1.157,0-2.288.106c-.755.07-1.571.185-2.338.332a24.458,24.458,0,0,0,0,48.039v4.786A29.065,29.065,0,0,1,18.549,56.335ZM33.8,38.9a10.63,10.63,0,0,0,0-19.139,10.173,10.173,0,0,0-2.268-.791,10.368,10.368,0,0,0-2.354-.267,10.516,10.516,0,0,0-2.288.25,10.112,10.112,0,0,0-2.337.82,10.622,10.622,0,0,0,0,19.131v5.057a15.37,15.37,0,0,1-6-3.572c-.123-.119-.246-.238-.361-.361A15.342,15.342,0,0,1,24.553,14.7a15.768,15.768,0,0,1,2.338-.541,15.581,15.581,0,0,1,2.288-.168,15.355,15.355,0,0,1,2.354.181A14.963,14.963,0,0,1,33.8,14.7a15.345,15.345,0,0,1,1.636,28.637,14.763,14.763,0,0,1-1.64.624Z" transform="translate(0 0)" fill="#21e09d"/>
  <path id="Path_110" data-name="Path 110" d="M6.317-23.209a1.021,1.021,0,0,1-.108.474,1.078,1.078,0,0,1-.29.354,1.3,1.3,0,0,1-.428.222,1.746,1.746,0,0,1-.524.077H2.88v-4.374H5.135a.863.863,0,0,1,.413.1,1.03,1.03,0,0,1,.314.256,1.172,1.172,0,0,1,.2.357,1.2,1.2,0,0,1,.071.4,1.174,1.174,0,0,1-.163.6,1,1,0,0,1-.465.416,1.111,1.111,0,0,1,.594.4A1.155,1.155,0,0,1,6.317-23.209Zm-.708-.129a.731.731,0,0,0-.046-.259.739.739,0,0,0-.123-.216.578.578,0,0,0-.188-.148.53.53,0,0,0-.24-.055H3.57v1.337h1.4a.611.611,0,0,0,.253-.052.646.646,0,0,0,.2-.142.657.657,0,0,0,.136-.209A.667.667,0,0,0,5.609-23.338ZM3.57-25.858v1.287H4.839a.564.564,0,0,0,.237-.049.65.65,0,0,0,.191-.132.581.581,0,0,0,.129-.2.7.7,0,0,0,.046-.259.677.677,0,0,0-.16-.465.518.518,0,0,0-.407-.182ZM7.944-22.02a.912.912,0,0,1-.764-.33,1.572,1.572,0,0,1-.259-.983V-25.3H7.6v1.836q0,.869.616.869a.949.949,0,0,0,.548-.179,1.145,1.145,0,0,0,.4-.517V-25.3h.678v2.421a.267.267,0,0,0,.04.166.194.194,0,0,0,.145.055v.579q-.1.018-.172.025t-.129.006a.493.493,0,0,1-.314-.1.336.336,0,0,1-.136-.262l-.012-.32A1.438,1.438,0,0,1,8.7-22.2,1.6,1.6,0,0,1,7.944-22.02Zm3.93,0a2.467,2.467,0,0,1-.773-.126,1.96,1.96,0,0,1-.662-.36l.271-.431a2.5,2.5,0,0,0,.573.317,1.616,1.616,0,0,0,.579.108.851.851,0,0,0,.477-.117.377.377,0,0,0,.176-.333.308.308,0,0,0-.2-.3,3.944,3.944,0,0,0-.616-.2q-.3-.08-.517-.154a1.332,1.332,0,0,1-.351-.172.606.606,0,0,1-.2-.228.726.726,0,0,1-.062-.314.965.965,0,0,1,.1-.437.939.939,0,0,1,.265-.323,1.187,1.187,0,0,1,.4-.2,1.722,1.722,0,0,1,.493-.068,2.022,2.022,0,0,1,.678.111,1.763,1.763,0,0,1,.561.32l-.29.407a1.51,1.51,0,0,0-.955-.357.816.816,0,0,0-.434.108.372.372,0,0,0-.176.342.343.343,0,0,0,.037.166.314.314,0,0,0,.12.117.99.99,0,0,0,.216.089q.132.04.33.089.326.08.564.16a1.543,1.543,0,0,1,.391.188.7.7,0,0,1,.228.253.757.757,0,0,1,.074.348.872.872,0,0,1-.348.73A1.513,1.513,0,0,1,11.874-22.02Zm1.885-.062V-25.3h.678v3.222Zm0-3.752v-.745h.678v.745Zm4.38,3.752h-.678v-1.8a1.176,1.176,0,0,0-.145-.662.489.489,0,0,0-.428-.206.837.837,0,0,0-.3.055,1.036,1.036,0,0,0-.277.157,1.224,1.224,0,0,0-.231.24,1.1,1.1,0,0,0-.157.3v1.916H15.25V-25.3h.616v.647a1.309,1.309,0,0,1,.536-.514,1.619,1.619,0,0,1,.776-.188.955.955,0,0,1,.474.1.784.784,0,0,1,.293.286,1.253,1.253,0,0,1,.151.419,2.8,2.8,0,0,1,.043.5Zm2.248.062a1.714,1.714,0,0,1-.684-.132,1.591,1.591,0,0,1-.527-.36,1.625,1.625,0,0,1-.339-.53,1.717,1.717,0,0,1-.12-.641,1.74,1.74,0,0,1,.12-.644,1.652,1.652,0,0,1,.339-.536,1.569,1.569,0,0,1,.527-.363,1.73,1.73,0,0,1,.69-.132,1.658,1.658,0,0,1,.681.136,1.628,1.628,0,0,1,.521.36,1.542,1.542,0,0,1,.33.524,1.74,1.74,0,0,1,.114.625q0,.074-.006.139t-.012.108H19.439a1.1,1.1,0,0,0,.1.388,1.021,1.021,0,0,0,.216.3.939.939,0,0,0,.3.194.945.945,0,0,0,.354.068,1.077,1.077,0,0,0,.268-.034.945.945,0,0,0,.243-.1.862.862,0,0,0,.2-.157.733.733,0,0,0,.136-.2l.579.166a1.343,1.343,0,0,1-.551.594A1.708,1.708,0,0,1,20.387-22.02Zm.979-1.916a1.084,1.084,0,0,0-.1-.376.968.968,0,0,0-.213-.293.948.948,0,0,0-.3-.188.985.985,0,0,0-.363-.068.961.961,0,0,0-.36.068.957.957,0,0,0-.3.188.926.926,0,0,0-.209.293,1.128,1.128,0,0,0-.1.376Zm2.4,1.916a2.467,2.467,0,0,1-.773-.126,1.961,1.961,0,0,1-.662-.36l.271-.431a2.5,2.5,0,0,0,.573.317,1.616,1.616,0,0,0,.579.108.851.851,0,0,0,.477-.117.377.377,0,0,0,.176-.333.308.308,0,0,0-.2-.3,3.944,3.944,0,0,0-.616-.2q-.3-.08-.517-.154a1.332,1.332,0,0,1-.351-.172.605.605,0,0,1-.2-.228.726.726,0,0,1-.062-.314.965.965,0,0,1,.1-.437.939.939,0,0,1,.265-.323,1.187,1.187,0,0,1,.4-.2,1.722,1.722,0,0,1,.493-.068,2.022,2.022,0,0,1,.678.111,1.763,1.763,0,0,1,.561.32l-.29.407a1.51,1.51,0,0,0-.955-.357.816.816,0,0,0-.434.108.372.372,0,0,0-.176.342.343.343,0,0,0,.037.166.314.314,0,0,0,.12.117.989.989,0,0,0,.216.089q.132.04.33.089.326.08.564.16a1.543,1.543,0,0,1,.391.188.7.7,0,0,1,.228.253.757.757,0,0,1,.074.348.872.872,0,0,1-.348.73A1.513,1.513,0,0,1,23.763-22.02Zm3.055,0a2.467,2.467,0,0,1-.773-.126,1.96,1.96,0,0,1-.662-.36l.271-.431a2.5,2.5,0,0,0,.573.317,1.616,1.616,0,0,0,.579.108.851.851,0,0,0,.477-.117.377.377,0,0,0,.176-.333.308.308,0,0,0-.2-.3,3.944,3.944,0,0,0-.616-.2q-.3-.08-.517-.154a1.331,1.331,0,0,1-.351-.172.605.605,0,0,1-.2-.228.726.726,0,0,1-.062-.314.965.965,0,0,1,.1-.437.939.939,0,0,1,.265-.323,1.187,1.187,0,0,1,.4-.2,1.722,1.722,0,0,1,.493-.068,2.022,2.022,0,0,1,.678.111,1.763,1.763,0,0,1,.561.32l-.29.407a1.51,1.51,0,0,0-.955-.357.816.816,0,0,0-.434.108.372.372,0,0,0-.176.342.343.343,0,0,0,.037.166.314.314,0,0,0,.12.117.989.989,0,0,0,.216.089q.132.04.33.089.326.08.564.16a1.543,1.543,0,0,1,.391.188.7.7,0,0,1,.228.253.757.757,0,0,1,.074.348.872.872,0,0,1-.348.73A1.513,1.513,0,0,1,26.818-22.02Zm6.376-.062-.4-.419a1.986,1.986,0,0,1-.594.357,1.879,1.879,0,0,1-.675.123,1.667,1.667,0,0,1-.585-.1,1.43,1.43,0,0,1-.456-.268,1.182,1.182,0,0,1-.3-.4,1.172,1.172,0,0,1-.1-.49,1.132,1.132,0,0,1,.065-.388A1.358,1.358,0,0,1,30.324-24a1.682,1.682,0,0,1,.259-.283,3.447,3.447,0,0,1,.308-.24,3.469,3.469,0,0,1-.237-.283,1.8,1.8,0,0,1-.154-.243,1.071,1.071,0,0,1-.086-.222.9.9,0,0,1-.028-.225.942.942,0,0,1,.089-.41,1,1,0,0,1,.243-.323,1.09,1.09,0,0,1,.367-.209,1.388,1.388,0,0,1,.459-.074,1.458,1.458,0,0,1,.425.062,1.122,1.122,0,0,1,.357.179.842.842,0,0,1,.243.293.864.864,0,0,1,.089.4.866.866,0,0,1-.065.339,1.23,1.23,0,0,1-.176.293,1.871,1.871,0,0,1-.262.265,4.025,4.025,0,0,1-.323.243l.986,1.035a2.222,2.222,0,0,0,.163-.465,2.329,2.329,0,0,0,.059-.533h.554a3.045,3.045,0,0,1-.1.773,2.388,2.388,0,0,1-.277.638l.875.912Zm-1.6-.474a1.161,1.161,0,0,0,.44-.086,1.336,1.336,0,0,0,.391-.246L31.3-24.09a1.909,1.909,0,0,0-.407.376.7.7,0,0,0-.154.444.633.633,0,0,0,.068.293.66.66,0,0,0,.188.225.944.944,0,0,0,.274.145A1.027,1.027,0,0,0,31.6-22.556Zm-.591-2.957a.4.4,0,0,0,.018.12.6.6,0,0,0,.065.132,1.238,1.238,0,0,0,.129.166l.206.228a2.587,2.587,0,0,0,.447-.342.5.5,0,0,0,.163-.36.4.4,0,0,0-.139-.317.521.521,0,0,0-.354-.12.533.533,0,0,0-.385.145A.465.465,0,0,0,31.007-25.513Zm5.113,3.431v-4.374h2.914v.61H36.81v1.306h1.86v.573H36.81v1.885Zm4.719.062a1.674,1.674,0,0,1-.687-.136,1.6,1.6,0,0,1-.521-.363,1.6,1.6,0,0,1-.333-.533,1.764,1.764,0,0,1-.117-.638,1.764,1.764,0,0,1,.117-.638,1.577,1.577,0,0,1,.336-.533,1.639,1.639,0,0,1,.524-.363,1.658,1.658,0,0,1,.681-.136,1.658,1.658,0,0,1,.681.136,1.639,1.639,0,0,1,.524.363,1.577,1.577,0,0,1,.336.533,1.764,1.764,0,0,1,.117.638,1.764,1.764,0,0,1-.117.638,1.577,1.577,0,0,1-.336.533,1.639,1.639,0,0,1-.524.363A1.658,1.658,0,0,1,40.839-22.02Zm-.961-1.663a1.219,1.219,0,0,0,.074.431,1.072,1.072,0,0,0,.2.342.951.951,0,0,0,.3.228.874.874,0,0,0,.379.083.874.874,0,0,0,.379-.083.931.931,0,0,0,.3-.231,1.11,1.11,0,0,0,.2-.345,1.219,1.219,0,0,0,.074-.431,1.226,1.226,0,0,0-.074-.428,1.1,1.1,0,0,0-.2-.348.931.931,0,0,0-.3-.231.874.874,0,0,0-.379-.083.834.834,0,0,0-.373.086.969.969,0,0,0-.3.234,1.149,1.149,0,0,0-.206.348A1.182,1.182,0,0,0,39.878-23.683Zm4.669,1.663a1.674,1.674,0,0,1-.687-.136,1.6,1.6,0,0,1-.521-.363,1.6,1.6,0,0,1-.333-.533,1.764,1.764,0,0,1-.117-.638,1.764,1.764,0,0,1,.117-.638,1.577,1.577,0,0,1,.336-.533,1.639,1.639,0,0,1,.524-.363,1.658,1.658,0,0,1,.681-.136,1.658,1.658,0,0,1,.681.136,1.639,1.639,0,0,1,.524.363,1.577,1.577,0,0,1,.336.533,1.764,1.764,0,0,1,.117.638,1.764,1.764,0,0,1-.117.638,1.577,1.577,0,0,1-.336.533,1.639,1.639,0,0,1-.524.363A1.658,1.658,0,0,1,44.547-22.02Zm-.961-1.663a1.219,1.219,0,0,0,.074.431,1.072,1.072,0,0,0,.2.342.951.951,0,0,0,.3.228.874.874,0,0,0,.379.083.874.874,0,0,0,.379-.083.931.931,0,0,0,.3-.231,1.11,1.11,0,0,0,.2-.345,1.219,1.219,0,0,0,.074-.431,1.226,1.226,0,0,0-.074-.428,1.1,1.1,0,0,0-.2-.348.931.931,0,0,0-.3-.231.874.874,0,0,0-.379-.083.834.834,0,0,0-.373.086.969.969,0,0,0-.3.234,1.149,1.149,0,0,0-.206.348A1.182,1.182,0,0,0,43.586-23.683ZM48.12-22.02a1.382,1.382,0,0,1-.6-.132,1.509,1.509,0,0,1-.48-.36,1.67,1.67,0,0,1-.317-.533A1.859,1.859,0,0,1,46.6-23.7a1.864,1.864,0,0,1,.108-.638,1.688,1.688,0,0,1,.3-.527,1.459,1.459,0,0,1,.456-.36,1.257,1.257,0,0,1,.576-.132,1.247,1.247,0,0,1,.684.188,1.369,1.369,0,0,1,.462.477v-1.885h.678v3.7a.267.267,0,0,0,.04.166.194.194,0,0,0,.145.055v.579q-.1.018-.169.025t-.108.006a.512.512,0,0,1-.333-.1.37.37,0,0,1-.142-.271l-.012-.24a1.285,1.285,0,0,1-.487.474A1.375,1.375,0,0,1,48.12-22.02Zm.166-.579a.93.93,0,0,0,.3-.049,1.047,1.047,0,0,0,.271-.136.952.952,0,0,0,.213-.2.73.73,0,0,0,.126-.253v-.844a1.009,1.009,0,0,0-.157-.283,1.123,1.123,0,0,0-.231-.222,1.055,1.055,0,0,0-.274-.142.9.9,0,0,0-.293-.049.766.766,0,0,0-.373.092.961.961,0,0,0-.293.246,1.215,1.215,0,0,0-.194.351,1.193,1.193,0,0,0-.071.407,1.141,1.141,0,0,0,.077.419,1.094,1.094,0,0,0,.213.345,1.043,1.043,0,0,0,.311.234A.848.848,0,0,0,48.287-22.6Zm4.053.517v-4.374h.69v4.374Zm4.478,0h-.678v-1.8A1.176,1.176,0,0,0,56-24.549a.489.489,0,0,0-.428-.206.837.837,0,0,0-.3.055,1.035,1.035,0,0,0-.277.157,1.224,1.224,0,0,0-.231.24,1.1,1.1,0,0,0-.157.3v1.916h-.678V-25.3h.616v.647a1.309,1.309,0,0,1,.536-.514,1.619,1.619,0,0,1,.776-.188.955.955,0,0,1,.474.1.783.783,0,0,1,.293.286,1.253,1.253,0,0,1,.151.419,2.8,2.8,0,0,1,.043.5Zm.943,0V-24.7H57.33v-.524h.431v-.129a1.464,1.464,0,0,1,.277-.943.913.913,0,0,1,.752-.345,1.461,1.461,0,0,1,.388.052,1.744,1.744,0,0,1,.363.145l-.148.505a.934.934,0,0,0-.219-.092.865.865,0,0,0-.243-.037.421.421,0,0,0-.367.179.891.891,0,0,0-.126.517v.148h.825v.524h-.825v2.618Zm3.3.062a1.674,1.674,0,0,1-.687-.136,1.6,1.6,0,0,1-.521-.363,1.6,1.6,0,0,1-.333-.533,1.764,1.764,0,0,1-.117-.638,1.764,1.764,0,0,1,.117-.638,1.577,1.577,0,0,1,.336-.533,1.639,1.639,0,0,1,.524-.363,1.658,1.658,0,0,1,.681-.136,1.658,1.658,0,0,1,.681.136,1.639,1.639,0,0,1,.524.363,1.577,1.577,0,0,1,.336.533,1.764,1.764,0,0,1,.117.638,1.764,1.764,0,0,1-.117.638,1.577,1.577,0,0,1-.336.533,1.639,1.639,0,0,1-.524.363A1.658,1.658,0,0,1,61.057-22.02ZM60.1-23.683a1.219,1.219,0,0,0,.074.431,1.072,1.072,0,0,0,.2.342.951.951,0,0,0,.3.228.874.874,0,0,0,.379.083.874.874,0,0,0,.379-.083.931.931,0,0,0,.3-.231,1.11,1.11,0,0,0,.2-.345,1.219,1.219,0,0,0,.074-.431,1.226,1.226,0,0,0-.074-.428,1.1,1.1,0,0,0-.2-.348.931.931,0,0,0-.3-.231.874.874,0,0,0-.379-.083.834.834,0,0,0-.373.086.969.969,0,0,0-.3.234,1.149,1.149,0,0,0-.206.348A1.182,1.182,0,0,0,60.1-23.683Zm5.033-1.035a1.516,1.516,0,0,0-.7.182.957.957,0,0,0-.434.484v1.971h-.678V-25.3h.628v.721a1.473,1.473,0,0,1,.434-.533,1.053,1.053,0,0,1,.576-.219h.1a.364.364,0,0,1,.071.006Zm5.421,2.637h-.678v-1.8a1.159,1.159,0,0,0-.148-.659.5.5,0,0,0-.431-.209.771.771,0,0,0-.527.213,1.2,1.2,0,0,0-.342.551v1.91h-.678v-1.8a1.157,1.157,0,0,0-.148-.662.491.491,0,0,0-.425-.206.788.788,0,0,0-.53.209A1.165,1.165,0,0,0,66.3-24v1.916h-.678V-25.3h.616v.647a1.362,1.362,0,0,1,.5-.521,1.384,1.384,0,0,1,.712-.182.9.9,0,0,1,.631.209.9.9,0,0,1,.286.524,1.475,1.475,0,0,1,.511-.545,1.321,1.321,0,0,1,.7-.188.936.936,0,0,1,.471.108.833.833,0,0,1,.3.286,1.181,1.181,0,0,1,.154.416,2.8,2.8,0,0,1,.043.5Zm1.639.062a1.2,1.2,0,0,1-.434-.077,1.05,1.05,0,0,1-.345-.213.991.991,0,0,1-.228-.32.964.964,0,0,1-.083-.4.863.863,0,0,1,.1-.413.964.964,0,0,1,.28-.32,1.36,1.36,0,0,1,.431-.209,1.936,1.936,0,0,1,.551-.074,2.526,2.526,0,0,1,.45.04,2.265,2.265,0,0,1,.4.108v-.222a.747.747,0,0,0-.2-.557.8.8,0,0,0-.585-.2,1.411,1.411,0,0,0-.508.1,2.571,2.571,0,0,0-.514.274l-.209-.431a2.284,2.284,0,0,1,1.294-.419,1.475,1.475,0,0,1,1.035.339,1.254,1.254,0,0,1,.37.973v1.164q0,.216.179.222v.579q-.1.018-.169.025t-.139.006a.436.436,0,0,1-.3-.1.421.421,0,0,1-.132-.253l-.018-.2a1.437,1.437,0,0,1-.533.434A1.564,1.564,0,0,1,72.188-22.02Zm.185-.5a1.218,1.218,0,0,0,.465-.089.8.8,0,0,0,.342-.249.312.312,0,0,0,.129-.234v-.425a2.048,2.048,0,0,0-.367-.1,2.022,2.022,0,0,0-.379-.037,1.036,1.036,0,0,0-.594.157.481.481,0,0,0-.231.416.525.525,0,0,0,.179.4A.65.65,0,0,0,72.373-22.519Zm4.2.271a3.4,3.4,0,0,1-.357.139,1.511,1.511,0,0,1-.487.077,1.032,1.032,0,0,1-.3-.043.74.74,0,0,1-.249-.129.587.587,0,0,1-.169-.225.824.824,0,0,1-.062-.336V-24.78h-.425V-25.3h.425v-1.06h.678v1.06h.7v.524h-.7v1.8a.335.335,0,0,0,.108.249.366.366,0,0,0,.237.077.755.755,0,0,0,.271-.049q.129-.049.191-.08Zm.468.166V-25.3h.678v3.222Zm0-3.752v-.745h.678v.745Zm2.938,3.813a1.674,1.674,0,0,1-.687-.136,1.6,1.6,0,0,1-.521-.363,1.6,1.6,0,0,1-.333-.533,1.764,1.764,0,0,1-.117-.638,1.764,1.764,0,0,1,.117-.638,1.577,1.577,0,0,1,.336-.533,1.639,1.639,0,0,1,.524-.363,1.658,1.658,0,0,1,.681-.136,1.658,1.658,0,0,1,.681.136,1.639,1.639,0,0,1,.524.363,1.577,1.577,0,0,1,.336.533,1.764,1.764,0,0,1,.117.638,1.764,1.764,0,0,1-.117.638,1.577,1.577,0,0,1-.336.533,1.639,1.639,0,0,1-.524.363A1.658,1.658,0,0,1,79.981-22.02Zm-.961-1.663a1.219,1.219,0,0,0,.074.431,1.072,1.072,0,0,0,.2.342.95.95,0,0,0,.3.228.874.874,0,0,0,.379.083.874.874,0,0,0,.379-.083.931.931,0,0,0,.3-.231,1.11,1.11,0,0,0,.2-.345,1.219,1.219,0,0,0,.074-.431,1.226,1.226,0,0,0-.074-.428,1.1,1.1,0,0,0-.2-.348.931.931,0,0,0-.3-.231.874.874,0,0,0-.379-.083.834.834,0,0,0-.373.086.969.969,0,0,0-.3.234,1.15,1.15,0,0,0-.206.348A1.182,1.182,0,0,0,79.02-23.683Zm6.111,1.6h-.678v-1.8a1.176,1.176,0,0,0-.145-.662.489.489,0,0,0-.428-.206.837.837,0,0,0-.3.055,1.036,1.036,0,0,0-.277.157,1.224,1.224,0,0,0-.231.24,1.1,1.1,0,0,0-.157.3v1.916h-.678V-25.3h.616v.647a1.309,1.309,0,0,1,.536-.514,1.619,1.619,0,0,1,.776-.188.954.954,0,0,1,.474.1.784.784,0,0,1,.293.286,1.253,1.253,0,0,1,.151.419,2.8,2.8,0,0,1,.043.5Zm5.433-3.764H89.11v3.764h-.7v-3.764h-1.46v-.61h3.61Zm1.257,3.825a1.714,1.714,0,0,1-.684-.132,1.591,1.591,0,0,1-.527-.36,1.624,1.624,0,0,1-.339-.53,1.717,1.717,0,0,1-.12-.641,1.74,1.74,0,0,1,.12-.644,1.652,1.652,0,0,1,.339-.536,1.569,1.569,0,0,1,.527-.363,1.73,1.73,0,0,1,.69-.132,1.658,1.658,0,0,1,.681.136,1.628,1.628,0,0,1,.521.36,1.542,1.542,0,0,1,.33.524,1.739,1.739,0,0,1,.114.625q0,.074-.006.139t-.012.108H90.872a1.1,1.1,0,0,0,.1.388,1.022,1.022,0,0,0,.216.3.939.939,0,0,0,.3.194.945.945,0,0,0,.354.068,1.077,1.077,0,0,0,.268-.034.945.945,0,0,0,.243-.1.862.862,0,0,0,.2-.157.733.733,0,0,0,.136-.2l.579.166a1.343,1.343,0,0,1-.551.594A1.708,1.708,0,0,1,91.821-22.02Zm.979-1.916a1.083,1.083,0,0,0-.1-.376.967.967,0,0,0-.213-.293.948.948,0,0,0-.3-.188.985.985,0,0,0-.363-.068.961.961,0,0,0-.36.068.957.957,0,0,0-.3.188.926.926,0,0,0-.209.293,1.127,1.127,0,0,0-.1.376Zm1.016.24a1.756,1.756,0,0,1,.117-.641,1.584,1.584,0,0,1,.336-.53,1.591,1.591,0,0,1,.527-.36,1.73,1.73,0,0,1,.69-.132,1.625,1.625,0,0,1,.859.219,1.387,1.387,0,0,1,.539.582l-.659.209a.847.847,0,0,0-.314-.317.858.858,0,0,0-.437-.114.9.9,0,0,0-.379.08.913.913,0,0,0-.3.225,1.072,1.072,0,0,0-.2.342,1.237,1.237,0,0,0-.074.437,1.2,1.2,0,0,0,.077.434,1.116,1.116,0,0,0,.209.348.965.965,0,0,0,.308.231.86.86,0,0,0,.373.083.926.926,0,0,0,.246-.034.883.883,0,0,0,.225-.1.875.875,0,0,0,.179-.142.536.536,0,0,0,.114-.172l.665.2a1.317,1.317,0,0,1-.536.594,1.66,1.66,0,0,1-.887.231,1.68,1.68,0,0,1-.684-.136,1.607,1.607,0,0,1-.527-.367,1.661,1.661,0,0,1-.339-.533A1.717,1.717,0,0,1,93.817-23.7Zm6.542,1.614h-.678v-1.8a1.107,1.107,0,0,0-.157-.656.529.529,0,0,0-.453-.213.773.773,0,0,0-.283.055,1.019,1.019,0,0,0-.268.157,1.2,1.2,0,0,0-.225.24,1.024,1.024,0,0,0-.148.3v1.916H97.47v-4.5h.678v1.922a1.337,1.337,0,0,1,.5-.517,1.352,1.352,0,0,1,.693-.185,1.014,1.014,0,0,1,.5.108.87.87,0,0,1,.311.286,1.152,1.152,0,0,1,.163.416,2.623,2.623,0,0,1,.046.5Zm3.678,0h-.678v-1.8a1.176,1.176,0,0,0-.145-.662.489.489,0,0,0-.428-.206.837.837,0,0,0-.3.055,1.035,1.035,0,0,0-.277.157,1.223,1.223,0,0,0-.231.24,1.1,1.1,0,0,0-.157.3v1.916h-.678V-25.3h.616v.647a1.309,1.309,0,0,1,.536-.514,1.619,1.619,0,0,1,.776-.188.955.955,0,0,1,.474.1.783.783,0,0,1,.293.286,1.253,1.253,0,0,1,.151.419,2.8,2.8,0,0,1,.043.5Zm2.236.062a1.674,1.674,0,0,1-.687-.136,1.6,1.6,0,0,1-.521-.363,1.6,1.6,0,0,1-.333-.533,1.764,1.764,0,0,1-.117-.638,1.764,1.764,0,0,1,.117-.638,1.577,1.577,0,0,1,.336-.533,1.639,1.639,0,0,1,.524-.363,1.658,1.658,0,0,1,.681-.136,1.658,1.658,0,0,1,.681.136,1.639,1.639,0,0,1,.524.363,1.577,1.577,0,0,1,.336.533,1.764,1.764,0,0,1,.117.638,1.764,1.764,0,0,1-.117.638,1.577,1.577,0,0,1-.336.533,1.639,1.639,0,0,1-.524.363A1.658,1.658,0,0,1,106.272-22.02Zm-.961-1.663a1.219,1.219,0,0,0,.074.431,1.072,1.072,0,0,0,.2.342.951.951,0,0,0,.3.228.874.874,0,0,0,.379.083.874.874,0,0,0,.379-.083.931.931,0,0,0,.3-.231,1.111,1.111,0,0,0,.2-.345,1.219,1.219,0,0,0,.074-.431,1.226,1.226,0,0,0-.074-.428,1.1,1.1,0,0,0-.2-.348.931.931,0,0,0-.3-.231.874.874,0,0,0-.379-.083.834.834,0,0,0-.373.086.969.969,0,0,0-.3.234,1.149,1.149,0,0,0-.206.348A1.182,1.182,0,0,0,105.311-23.683Zm3.228-2.9h.678v3.567a.4.4,0,0,0,.092.28.332.332,0,0,0,.259.1.6.6,0,0,0,.157-.025q.089-.025.169-.055l.1.53a1.576,1.576,0,0,1-.351.108,1.9,1.9,0,0,1-.363.04.744.744,0,0,1-.545-.191.726.726,0,0,1-.194-.542Zm3.3,4.559a1.674,1.674,0,0,1-.687-.136,1.6,1.6,0,0,1-.521-.363,1.6,1.6,0,0,1-.333-.533,1.764,1.764,0,0,1-.117-.638,1.764,1.764,0,0,1,.117-.638,1.577,1.577,0,0,1,.336-.533,1.639,1.639,0,0,1,.524-.363,1.658,1.658,0,0,1,.681-.136,1.658,1.658,0,0,1,.681.136,1.639,1.639,0,0,1,.524.363,1.577,1.577,0,0,1,.336.533,1.764,1.764,0,0,1,.117.638,1.764,1.764,0,0,1-.117.638,1.577,1.577,0,0,1-.336.533,1.639,1.639,0,0,1-.524.363A1.658,1.658,0,0,1,111.835-22.02Zm-.961-1.663a1.219,1.219,0,0,0,.074.431,1.072,1.072,0,0,0,.2.342.951.951,0,0,0,.3.228.874.874,0,0,0,.379.083.874.874,0,0,0,.379-.083.931.931,0,0,0,.3-.231,1.111,1.111,0,0,0,.2-.345,1.219,1.219,0,0,0,.074-.431,1.226,1.226,0,0,0-.074-.428,1.1,1.1,0,0,0-.2-.348.931.931,0,0,0-.3-.231.874.874,0,0,0-.379-.083.834.834,0,0,0-.373.086.969.969,0,0,0-.3.234,1.149,1.149,0,0,0-.206.348A1.183,1.183,0,0,0,110.874-23.683Zm4.5,1.632a1.343,1.343,0,0,1-.6-.132,1.427,1.427,0,0,1-.465-.36,1.7,1.7,0,0,1-.3-.524,1.8,1.8,0,0,1-.108-.622,1.887,1.887,0,0,1,.111-.65,1.649,1.649,0,0,1,.308-.53,1.47,1.47,0,0,1,.471-.357,1.376,1.376,0,0,1,.607-.132,1.247,1.247,0,0,1,.681.185,1.565,1.565,0,0,1,.484.48v-.61h.6v3.129a1.428,1.428,0,0,1-.129.622,1.313,1.313,0,0,1-.36.459,1.624,1.624,0,0,1-.545.286,2.252,2.252,0,0,1-.678.1,1.94,1.94,0,0,1-.89-.182,1.684,1.684,0,0,1-.594-.508l.382-.357a1.192,1.192,0,0,0,.477.394,1.47,1.47,0,0,0,.625.136,1.4,1.4,0,0,0,.4-.055.92.92,0,0,0,.33-.172.833.833,0,0,0,.225-.3,1,1,0,0,0,.083-.425v-.493a1.178,1.178,0,0,1-.474.456A1.335,1.335,0,0,1,115.371-22.051Zm.222-.548a.846.846,0,0,0,.3-.052,1.041,1.041,0,0,0,.262-.142,1.02,1.02,0,0,0,.206-.2.736.736,0,0,0,.123-.243v-.844a1.142,1.142,0,0,0-.16-.28,1.133,1.133,0,0,0-.225-.219,1.1,1.1,0,0,0-.268-.145.813.813,0,0,0-.283-.052.818.818,0,0,0-.4.1.957.957,0,0,0-.3.253,1.2,1.2,0,0,0-.191.354,1.242,1.242,0,0,0-.068.407,1.117,1.117,0,0,0,.077.416,1.064,1.064,0,0,0,.213.339,1.042,1.042,0,0,0,.317.231A.915.915,0,0,0,115.593-22.6Zm2.489,1.275q.092.018.182.031a1.107,1.107,0,0,0,.145.012.272.272,0,0,0,.139-.034.413.413,0,0,0,.12-.12,1.244,1.244,0,0,0,.126-.243q.065-.157.151-.4L117.619-25.3h.7l1,2.624L120.2-25.3h.641l-1.46,3.967a1,1,0,0,1-.342.465.994.994,0,0,1-.625.188,1.345,1.345,0,0,1-.154-.009.984.984,0,0,1-.179-.04Z" transform="translate(66.144 89.647)" fill="#002d70"/>
</svg>
