<svg id="icons8_linkedin_circled" xmlns="http://www.w3.org/2000/svg" width="40" height="40" viewBox="0 0 40 40">
  <path id="Path_136" data-name="Path 136" d="M24,4A20,20,0,1,0,44,24,20,20,0,0,0,24,4Z" transform="translate(-4 -4)"/>
  <path id="Path_137" data-name="Path 137" d="M14,19h4V34H14Zm1.988-2h-.022A1.914,1.914,0,0,1,14,15a1.924,1.924,0,0,1,2.011-2A1.918,1.918,0,0,1,18,15,1.926,1.926,0,0,1,15.988,17ZM35,24.5a5.5,5.5,0,0,0-10-3.156V19H21V34h4V26a3,3,0,1,1,6,0v8h4Z" transform="translate(-4 -4)" fill="#fff"/>
</svg>
