<svg id="icons8_play_button" xmlns="http://www.w3.org/2000/svg" width="40.1" height="30" viewBox="0 0 40.1 30">
  <path id="Path_138" data-name="Path 138" d="M43.2,33.9a4.993,4.993,0,0,1-4.2,4A104.076,104.076,0,0,1,24,39,106.553,106.553,0,0,1,9,37.9a4.993,4.993,0,0,1-4.2-4A58.53,58.53,0,0,1,4,24a58.53,58.53,0,0,1,.8-9.9,4.993,4.993,0,0,1,4.2-4A104.076,104.076,0,0,1,24,9a105.3,105.3,0,0,1,15,1.1,4.993,4.993,0,0,1,4.2,4,56.73,56.73,0,0,1,.9,9.9A68.675,68.675,0,0,1,43.2,33.9Z" transform="translate(-4 -9)"/>
  <path id="Path_139" data-name="Path 139" d="M20,31V17l12,7Z" transform="translate(-4 -9)" fill="#fff"/>
</svg>
