<svg id="ui-ux-design" xmlns="http://www.w3.org/2000/svg" width="116.834" height="116.834" viewBox="0 0 116.834 116.834">
  <g id="Group_4370" data-name="Group 4370" transform="translate(0 0)">
    <g id="Group_4257" data-name="Group 4257" transform="translate(63.747 48.384)">
      <g id="Group_4256" data-name="Group 4256">
        <path id="Path_755" data-name="Path 755" d="M160.322,106.015v45.65a2.014,2.014,0,0,1-2.014,2.014H139.679V171.31a2.014,2.014,0,0,0,2.014,2.014h47.917a2.014,2.014,0,0,0,2.014-2.014v-65.3Z" transform="translate(-139.679 -106.015)" fill="#fff"/>
      </g>
    </g>
    <g id="Group_4259" data-name="Group 4259" transform="translate(84.391 40.431)">
      <g id="Group_4258" data-name="Group 4258">
        <path id="Path_756" data-name="Path 756" d="M214.2,88.59H184.911v7.953h31.3V90.6A2.014,2.014,0,0,0,214.2,88.59Z" transform="translate(-184.911 -88.59)" fill="#75adff"/>
      </g>
    </g>
    <g id="Group_4261" data-name="Group 4261" transform="translate(68.727 100.176)">
      <g id="Group_4260" data-name="Group 4260">
        <path id="Path_757" data-name="Path 757" d="M191.4,219.5H151.767a1.176,1.176,0,0,0-1.177,1.177v8.144A1.176,1.176,0,0,0,151.767,230H191.4a1.176,1.176,0,0,0,1.177-1.177v-8.144A1.177,1.177,0,0,0,191.4,219.5Z" transform="translate(-150.59 -219.5)" fill="#21e09d"/>
      </g>
    </g>
    <g id="Group_4263" data-name="Group 4263" transform="translate(83.798 84.964)">
      <g id="Group_4262" data-name="Group 4262">
        <path id="Path_758" data-name="Path 758" d="M209.353,186.167H184.205v9.071a2.007,2.007,0,0,1-.592,1.426h25.74a1.176,1.176,0,0,0,1.177-1.177v-8.144A1.177,1.177,0,0,0,209.353,186.167Z" transform="translate(-183.613 -186.167)" fill="#21e09d"/>
      </g>
    </g>
    <g id="Group_4265" data-name="Group 4265" transform="translate(84.391 69.751)">
      <g id="Group_4264" data-name="Group 4264">
        <path id="Path_759" data-name="Path 759" d="M210.058,152.833H184.911v10.5h25.147a1.176,1.176,0,0,0,1.177-1.177V154.01A1.177,1.177,0,0,0,210.058,152.833Z" transform="translate(-184.911 -152.833)" fill="#21e09d"/>
      </g>
    </g>
    <g id="Group_4267" data-name="Group 4267" transform="translate(84.391 54.538)">
      <g id="Group_4266" data-name="Group 4266">
        <path id="Path_760" data-name="Path 760" d="M210.058,119.5H184.911V130h25.147a1.176,1.176,0,0,0,1.177-1.177v-8.144A1.177,1.177,0,0,0,210.058,119.5Z" transform="translate(-184.911 -119.5)" fill="#21e09d"/>
      </g>
    </g>
    <g id="Group_4269" data-name="Group 4269" transform="translate(32.444 28.739)">
      <g id="Group_4268" data-name="Group 4268">
        <path id="Path_761" data-name="Path 761" d="M91.732,62.97v45.651a2.014,2.014,0,0,1-2.014,2.014H71.089v17.631A2.014,2.014,0,0,0,73.1,130.28h47.917a2.014,2.014,0,0,0,2.014-2.014V62.97Z" transform="translate(-71.089 -62.97)" fill="#fff"/>
      </g>
    </g>
    <g id="Group_4271" data-name="Group 4271" transform="translate(68.727 100.176)">
      <g id="Group_4270" data-name="Group 4270">
        <path id="Path_762" data-name="Path 762" d="M161.045,219.5h-9.28a1.176,1.176,0,0,0-1.177,1.177v8.144A1.176,1.176,0,0,0,151.766,230h9.28Z" transform="translate(-150.589 -219.5)" fill="#002d70"/>
      </g>
    </g>
    <g id="Group_4273" data-name="Group 4273" transform="translate(1.141 9.093)">
      <g id="Group_4272" data-name="Group 4272">
        <path id="Path_763" data-name="Path 763" d="M2.5,19.925v65.3a2.014,2.014,0,0,0,2.014,2.014H52.432a2.014,2.014,0,0,0,2.014-2.014v-65.3Z" transform="translate(-2.5 -19.925)" fill="#21e09d"/>
      </g>
    </g>
    <g id="Group_4275" data-name="Group 4275" transform="translate(53.088 20.786)">
      <g id="Group_4274" data-name="Group 4274">
        <path id="Path_764" data-name="Path 764" d="M145.61,45.545H116.322V53.5h31.3V47.559A2.015,2.015,0,0,0,145.61,45.545Z" transform="translate(-116.322 -45.545)" fill="#75adff"/>
      </g>
    </g>
    <g id="Group_4277" data-name="Group 4277" transform="translate(39.477 76.376)">
      <g id="Group_4276" data-name="Group 4276">
        <path id="Path_765" data-name="Path 765" d="M87.489,176.1h9.888a.989.989,0,0,0,.989-.989V167.35a1.967,1.967,0,0,1-.271.027H86.5v7.731A.989.989,0,0,0,87.489,176.1Z" transform="translate(-86.5 -167.35)" fill="#002d70"/>
      </g>
    </g>
    <g id="Group_4279" data-name="Group 4279" transform="translate(6.509 32.35)">
      <g id="Group_4278" data-name="Group 4278">
        <path id="Path_766" data-name="Path 766" d="M15.8,78.14h38.13a1.54,1.54,0,0,0,1.54-1.54V72.424a1.54,1.54,0,0,0-1.54-1.54H15.8a1.54,1.54,0,0,0-1.54,1.54V76.6a1.54,1.54,0,0,0,1.54,1.54Z" transform="translate(-14.263 -70.884)" fill="#edf4fc"/>
      </g>
    </g>
    <g id="Group_4281" data-name="Group 4281" transform="translate(6.509 44.216)">
      <g id="Group_4280" data-name="Group 4280">
        <path id="Path_767" data-name="Path 767" d="M53.932,96.884H15.8a1.54,1.54,0,0,0-1.54,1.54V102.6a1.54,1.54,0,0,0,1.54,1.54h38.13a1.54,1.54,0,0,0,1.54-1.54V98.424A1.54,1.54,0,0,0,53.932,96.884Z" transform="translate(-14.263 -96.884)" fill="#edf4fc"/>
      </g>
    </g>
    <g id="Group_4283" data-name="Group 4283" transform="translate(19.867 56.63)">
      <g id="Group_4282" data-name="Group 4282">
        <path id="Path_768" data-name="Path 768" d="M54.782,124.084H46.775a3.244,3.244,0,1,0,0,6.487h8.007a3.244,3.244,0,1,0,0-6.487Z" transform="translate(-43.531 -124.084)" fill="#002d70"/>
      </g>
    </g>
    <g id="Group_4285" data-name="Group 4285" transform="translate(6.509 44.216)">
      <g id="Group_4284" data-name="Group 4284">
        <path id="Path_769" data-name="Path 769" d="M22.586,96.884H15.8a1.54,1.54,0,0,0-1.54,1.54V102.6a1.54,1.54,0,0,0,1.54,1.54h6.783Z" transform="translate(-14.263 -96.884)" fill="#fff"/>
      </g>
    </g>
    <g id="Group_4287" data-name="Group 4287" transform="translate(6.509 32.35)">
      <g id="Group_4286" data-name="Group 4286">
        <path id="Path_770" data-name="Path 770" d="M22.586,70.884H15.8a1.54,1.54,0,0,0-1.54,1.54V76.6a1.54,1.54,0,0,0,1.54,1.54h6.783Z" transform="translate(-14.263 -70.884)" fill="#fff"/>
      </g>
    </g>
    <g id="Group_4289" data-name="Group 4289" transform="translate(1.141 1.141)">
      <g id="Group_4288" data-name="Group 4288">
        <path id="Path_771" data-name="Path 771" d="M52.432,2.5H4.514A2.014,2.014,0,0,0,2.5,4.514v5.938H54.446V4.514A2.014,2.014,0,0,0,52.432,2.5Z" transform="translate(-2.5 -2.5)" fill="#75adff"/>
      </g>
    </g>
    <g id="Group_4291" data-name="Group 4291" transform="translate(1.141 1.141)">
      <g id="Group_4290" data-name="Group 4290">
        <path id="Path_772" data-name="Path 772" d="M11.021,2.5H4.514A2.014,2.014,0,0,0,2.5,4.514v5.938h8.521Z" transform="translate(-2.5 -2.5)" fill="#21e09d"/>
      </g>
    </g>
    <g id="Group_4293" data-name="Group 4293" transform="translate(78.041 6.064)">
      <g id="Group_4292" data-name="Group 4292">
        <path id="Path_773" data-name="Path 773" d="M179.591,17.445a5.2,5.2,0,0,1-4.164-4.079.094.094,0,0,0-.185,0,5.2,5.2,0,0,1-4.164,4.079.091.091,0,0,0,0,.181,5.2,5.2,0,0,1,4.164,4.079.094.094,0,0,0,.185,0,5.2,5.2,0,0,1,4.164-4.079A.091.091,0,0,0,179.591,17.445Z" transform="translate(-170.999 -13.288)" fill="#21e09d"/>
      </g>
    </g>
    <g id="Group_4295" data-name="Group 4295" transform="translate(89.721 16.571)">
      <g id="Group_4294" data-name="Group 4294">
        <path id="Path_774" data-name="Path 774" d="M198.814,71.452a3.065,3.065,0,0,1-2.457-2.407.055.055,0,0,0-.109,0,3.065,3.065,0,0,1-2.457,2.407.054.054,0,0,0,0,.107,3.066,3.066,0,0,1,2.457,2.407.055.055,0,0,0,.109,0,3.065,3.065,0,0,1,2.457-2.407A.054.054,0,0,0,198.814,71.452Z" transform="translate(-193.744 -68.999)" fill="#002d70"/>
      </g>
    </g>
    <g id="Group_4297" data-name="Group 4297" transform="translate(18.385 86.598)">
      <g id="Group_4296" data-name="Group 4296">
        <path id="Path_775" data-name="Path 775" d="M41.726,192.252h1.063v-1.063a1.441,1.441,0,0,1,2.882,0v1.063h1.063a1.441,1.441,0,1,1,0,2.882H45.671V196.2a1.441,1.441,0,1,1-2.882,0v-1.063H41.726a1.441,1.441,0,1,1,0-2.882Z" transform="translate(-40.285 -189.748)" fill="#21e09d"/>
      </g>
    </g>
    <g id="Group_4299" data-name="Group 4299" transform="translate(90.738 31.209)">
      <g id="Group_4298" data-name="Group 4298" transform="translate(0)">
        <circle id="Ellipse_29" data-name="Ellipse 29" cx="1.541" cy="1.541" r="1.541" fill="#21e09d"/>
      </g>
    </g>
    <g id="Group_4301" data-name="Group 4301" transform="translate(11.11 81.233)">
      <g id="Group_4300" data-name="Group 4300">
        <circle id="Ellipse_30" data-name="Ellipse 30" cx="1.541" cy="1.541" r="1.541" fill="#002d70"/>
      </g>
    </g>
    <g id="Group_4303" data-name="Group 4303" transform="translate(62.606 47.243)">
      <g id="Group_4302" data-name="Group 4302">
        <path id="Path_776" data-name="Path 776" d="M188.252,173.107H140.334a3.159,3.159,0,0,1-3.155-3.155V152.641a1.141,1.141,0,0,1,2.282,0v17.311a.875.875,0,0,0,.874.874h47.917a.875.875,0,0,0,.874-.874v-65.3a1.141,1.141,0,1,1,2.282,0v65.3A3.159,3.159,0,0,1,188.252,173.107Z" transform="translate(-137.179 -103.515)"/>
      </g>
    </g>
    <g id="Group_4305" data-name="Group 4305" transform="translate(13.822 3.976)">
      <g id="Group_4304" data-name="Group 4304">
        <path id="Path_777" data-name="Path 777" d="M56.108,10.994H31.427a1.141,1.141,0,1,1,0-2.282H56.108a1.141,1.141,0,0,1,0,2.282Z" transform="translate(-30.286 -8.712)"/>
      </g>
    </g>
    <g id="Group_4307" data-name="Group 4307" transform="translate(43.389 3.976)">
      <g id="Group_4306" data-name="Group 4306">
        <path id="Path_778" data-name="Path 778" d="M100.335,10.994H96.213a1.141,1.141,0,0,1,0-2.282h4.122a1.141,1.141,0,0,1,0,2.282Z" transform="translate(-95.072 -8.712)"/>
      </g>
    </g>
    <g id="Group_4309" data-name="Group 4309" transform="translate(52.427 23.621)">
      <g id="Group_4308" data-name="Group 4308">
        <path id="Path_779" data-name="Path 779" d="M133.395,54.039H116.016a1.141,1.141,0,0,1,0-2.282h17.379a1.141,1.141,0,0,1,0,2.282Z" transform="translate(-114.875 -51.757)"/>
      </g>
    </g>
    <g id="Group_4311" data-name="Group 4311" transform="translate(74.692 23.621)">
      <g id="Group_4310" data-name="Group 4310">
        <path id="Path_780" data-name="Path 780" d="M168.924,54.039H164.8a1.141,1.141,0,0,1,0-2.282h4.122a1.141,1.141,0,0,1,0,2.282Z" transform="translate(-163.661 -51.757)"/>
      </g>
    </g>
    <g id="Group_4313" data-name="Group 4313" transform="translate(83.731 43.266)">
      <g id="Group_4312" data-name="Group 4312">
        <path id="Path_781" data-name="Path 781" d="M201.984,97.084H184.606a1.141,1.141,0,0,1,0-2.282h17.378a1.141,1.141,0,1,1,0,2.282Z" transform="translate(-183.465 -94.802)"/>
      </g>
    </g>
    <g id="Group_4315" data-name="Group 4315" transform="translate(105.995 43.266)">
      <g id="Group_4314" data-name="Group 4314">
        <path id="Path_782" data-name="Path 782" d="M237.513,97.084h-4.122a1.141,1.141,0,0,1,0-2.282h4.122a1.141,1.141,0,1,1,0,2.282Z" transform="translate(-232.25 -94.802)"/>
      </g>
    </g>
    <g id="Group_4317" data-name="Group 4317" transform="translate(56.648 38.471)">
      <g id="Group_4316" data-name="Group 4316">
        <path id="Path_783" data-name="Path 783" d="M145.86,86.577h-20.6a1.141,1.141,0,0,1,0-2.282h20.6a1.141,1.141,0,0,1,0,2.282Z" transform="translate(-124.123 -84.295)"/>
      </g>
    </g>
    <g id="Group_4319" data-name="Group 4319" transform="translate(56.648 43.193)">
      <g id="Group_4318" data-name="Group 4318">
        <path id="Path_784" data-name="Path 784" d="M145.86,96.924h-20.6a1.141,1.141,0,1,1,0-2.282h20.6a1.141,1.141,0,1,1,0,2.282Z" transform="translate(-124.123 -94.642)"/>
      </g>
    </g>
    <g id="Group_4321" data-name="Group 4321" transform="translate(56.648 47.915)">
      <g id="Group_4320" data-name="Group 4320">
        <path id="Path_785" data-name="Path 785" d="M145.86,107.27h-20.6a1.141,1.141,0,0,1,0-2.282h20.6a1.141,1.141,0,0,1,0,2.282Z" transform="translate(-124.123 -104.988)"/>
      </g>
    </g>
    <g id="Group_4323" data-name="Group 4323" transform="translate(56.648 56.27)">
      <g id="Group_4322" data-name="Group 4322">
        <path id="Path_786" data-name="Path 786" d="M145.86,125.577h-20.6a1.141,1.141,0,0,1,0-2.282h20.6a1.141,1.141,0,1,1,0,2.282Z" transform="translate(-124.123 -123.295)"/>
      </g>
    </g>
    <g id="Group_4325" data-name="Group 4325" transform="translate(56.648 60.992)">
      <g id="Group_4324" data-name="Group 4324">
        <path id="Path_787" data-name="Path 787" d="M145.86,135.924h-20.6a1.141,1.141,0,0,1,0-2.282h20.6a1.141,1.141,0,0,1,0,2.282Z" transform="translate(-124.123 -133.642)"/>
      </g>
    </g>
    <g id="Group_4327" data-name="Group 4327" transform="translate(56.648 65.714)">
      <g id="Group_4326" data-name="Group 4326">
        <path id="Path_788" data-name="Path 788" d="M145.86,146.27h-20.6a1.141,1.141,0,0,1,0-2.282h20.6a1.141,1.141,0,0,1,0,2.282Z" transform="translate(-124.123 -143.988)"/>
      </g>
    </g>
    <g id="Group_4329" data-name="Group 4329" transform="translate(56.648 73.156)">
      <g id="Group_4328" data-name="Group 4328">
        <path id="Path_789" data-name="Path 789" d="M145.86,162.577h-20.6a1.141,1.141,0,1,1,0-2.282h20.6a1.141,1.141,0,1,1,0,2.282Z" transform="translate(-124.123 -160.295)"/>
      </g>
    </g>
    <g id="Group_4331" data-name="Group 4331" transform="translate(56.648 77.878)">
      <g id="Group_4330" data-name="Group 4330">
        <path id="Path_790" data-name="Path 790" d="M145.86,172.924h-20.6a1.141,1.141,0,1,1,0-2.282h20.6a1.141,1.141,0,1,1,0,2.282Z" transform="translate(-124.123 -170.642)"/>
      </g>
    </g>
    <g id="Group_4333" data-name="Group 4333" transform="translate(56.648 82.6)">
      <g id="Group_4332" data-name="Group 4332">
        <path id="Path_791" data-name="Path 791" d="M145.86,183.27h-20.6a1.141,1.141,0,1,1,0-2.282h20.6a1.141,1.141,0,0,1,0,2.282Z" transform="translate(-124.123 -180.988)"/>
      </g>
    </g>
    <g id="Group_4335" data-name="Group 4335" transform="translate(19.235 21.583)">
      <g id="Group_4334" data-name="Group 4334">
        <path id="Path_792" data-name="Path 792" d="M56.764,49.574H43.287a1.141,1.141,0,1,1,0-2.282H56.764a1.141,1.141,0,1,1,0,2.282Z" transform="translate(-42.146 -47.292)"/>
      </g>
    </g>
    <g id="Group_4337" data-name="Group 4337" transform="translate(83.533 39.29)">
      <g id="Group_4336" data-name="Group 4336">
        <path id="Path_793" data-name="Path 793" d="M215.192,96.324h-31.02a1.141,1.141,0,0,1,0-2.282h29.879v-4.8a.875.875,0,0,0-.874-.874h-28.92a1.141,1.141,0,1,1,0-2.282h28.92a3.159,3.159,0,0,1,3.155,3.155v5.938A1.141,1.141,0,0,1,215.192,96.324Z" transform="translate(-183.031 -86.09)"/>
      </g>
    </g>
    <g id="Group_4339" data-name="Group 4339" transform="translate(67.586 99.035)">
      <g id="Group_4338" data-name="Group 4338">
        <path id="Path_794" data-name="Path 794" d="M190.042,229.779H150.408a2.32,2.32,0,0,1-2.318-2.318v-8.144A2.32,2.32,0,0,1,150.408,217h39.634a2.32,2.32,0,0,1,2.318,2.318v8.144A2.32,2.32,0,0,1,190.042,229.779Zm-39.635-10.5a.036.036,0,0,0-.036.036v8.144a.036.036,0,0,0,.036.036h39.634a.036.036,0,0,0,.036-.036v-8.144a.036.036,0,0,0-.036-.036Z" transform="translate(-148.09 -217)"/>
      </g>
    </g>
    <g id="Group_4341" data-name="Group 4341" transform="translate(82.798 83.823)">
      <g id="Group_4340" data-name="Group 4340">
        <path id="Path_795" data-name="Path 795" d="M208.162,196.446h-25.6a1.141,1.141,0,1,1,0-2.282h25.6a.036.036,0,0,0,.036-.036v-8.144a.036.036,0,0,0-.036-.036H183.416a1.141,1.141,0,1,1,0-2.282h24.745a2.32,2.32,0,0,1,2.318,2.318v8.144A2.32,2.32,0,0,1,208.162,196.446Z" transform="translate(-181.422 -183.667)"/>
      </g>
    </g>
    <g id="Group_4343" data-name="Group 4343" transform="translate(83.632 68.61)">
      <g id="Group_4342" data-name="Group 4342">
        <path id="Path_796" data-name="Path 796" d="M209.155,163.112H184.477a1.141,1.141,0,1,1,0-2.282h24.679a.036.036,0,0,0,.036-.036v-8.144a.036.036,0,0,0-.036-.036H184.391a1.141,1.141,0,0,1,0-2.282h24.764a2.32,2.32,0,0,1,2.318,2.318v8.144A2.32,2.32,0,0,1,209.155,163.112Z" transform="translate(-183.25 -150.333)"/>
      </g>
    </g>
    <g id="Group_4345" data-name="Group 4345" transform="translate(83.604 53.397)">
      <g id="Group_4344" data-name="Group 4344">
        <path id="Path_797" data-name="Path 797" d="M209.122,129.779H184.329a1.141,1.141,0,0,1,0-2.282h24.793a.036.036,0,0,0,.036-.036v-8.144a.036.036,0,0,0-.036-.036H184.338a1.141,1.141,0,1,1,0-2.282h24.783a2.32,2.32,0,0,1,2.318,2.318v8.144A2.32,2.32,0,0,1,209.122,129.779Z" transform="translate(-183.188 -117)"/>
      </g>
    </g>
    <g id="Group_4347" data-name="Group 4347" transform="translate(31.303 27.598)">
      <g id="Group_4346" data-name="Group 4346">
        <path id="Path_798" data-name="Path 798" d="M119.662,130.062H71.744a3.159,3.159,0,0,1-3.155-3.155V109.773a1.141,1.141,0,1,1,2.282,0v17.133a.875.875,0,0,0,.874.874h47.917a.875.875,0,0,0,.874-.874v-65.3a1.141,1.141,0,1,1,2.282,0v65.3A3.158,3.158,0,0,1,119.662,130.062Z" transform="translate(-68.589 -60.47)"/>
      </g>
    </g>
    <g id="Group_4349" data-name="Group 4349" transform="translate(78.042 99.321)">
      <g id="Group_4348" data-name="Group 4348">
        <path id="Path_799" data-name="Path 799" d="M172.141,229.776A1.141,1.141,0,0,1,171,228.635v-9.869a1.141,1.141,0,1,1,2.282,0v9.869A1.141,1.141,0,0,1,172.141,229.776Z" transform="translate(-171 -217.625)"/>
      </g>
    </g>
    <g id="Group_4351" data-name="Group 4351" transform="translate(0 7.953)">
      <g id="Group_4350" data-name="Group 4350">
        <path id="Path_800" data-name="Path 800" d="M51.073,87.017H3.155A3.159,3.159,0,0,1,0,83.861v-65.3a1.141,1.141,0,1,1,2.282,0v65.3a.875.875,0,0,0,.874.874H51.073a.875.875,0,0,0,.874-.874v-65.3a1.141,1.141,0,1,1,2.282,0v65.3A3.159,3.159,0,0,1,51.073,87.017Z" transform="translate(0 -17.425)"/>
      </g>
    </g>
    <g id="Group_4353" data-name="Group 4353" transform="translate(52.237 19.645)">
      <g id="Group_4352" data-name="Group 4352">
        <path id="Path_801" data-name="Path 801" d="M146.612,53.279H115.618a1.141,1.141,0,1,1,0-2.282h29.853V46.2a.875.875,0,0,0-.874-.874h-29a1.141,1.141,0,1,1,0-2.282h29a3.159,3.159,0,0,1,3.155,3.155v5.938A1.141,1.141,0,0,1,146.612,53.279Z" transform="translate(-114.458 -43.045)"/>
      </g>
    </g>
    <g id="Group_4355" data-name="Group 4355" transform="translate(38.336 75.489)">
      <g id="Group_4354" data-name="Group 4354">
        <path id="Path_802" data-name="Path 802" d="M96.018,176.182H86.13a2.132,2.132,0,0,1-2.13-2.13V166.59a1.141,1.141,0,1,1,2.282,0v7.31h9.584v-7.352a1.141,1.141,0,0,1,2.282,0v7.5A2.133,2.133,0,0,1,96.018,176.182Z" transform="translate(-84 -165.407)"/>
      </g>
    </g>
    <g id="Group_4357" data-name="Group 4357" transform="translate(5.368 31.209)">
      <g id="Group_4356" data-name="Group 4356">
        <path id="Path_803" data-name="Path 803" d="M52.573,77.922H14.444a2.684,2.684,0,0,1-2.681-2.681V71.065a2.684,2.684,0,0,1,2.681-2.681h38.13a2.684,2.684,0,0,1,2.681,2.681v4.176A2.684,2.684,0,0,1,52.573,77.922Zm-38.13-7.256a.4.4,0,0,0-.4.4v4.176a.4.4,0,0,0,.4.4h38.13a.4.4,0,0,0,.4-.4V71.065a.4.4,0,0,0-.4-.4Z" transform="translate(-11.763 -68.384)"/>
      </g>
    </g>
    <g id="Group_4359" data-name="Group 4359" transform="translate(5.368 43.075)">
      <g id="Group_4358" data-name="Group 4358">
        <path id="Path_804" data-name="Path 804" d="M52.573,103.922H14.444a2.684,2.684,0,0,1-2.681-2.681V97.065a2.684,2.684,0,0,1,2.681-2.681h38.13a2.684,2.684,0,0,1,2.681,2.681v4.176A2.684,2.684,0,0,1,52.573,103.922Zm-38.13-7.256a.4.4,0,0,0-.4.4v4.176a.4.4,0,0,0,.4.4h38.13a.4.4,0,0,0,.4-.4V97.065a.4.4,0,0,0-.4-.4Z" transform="translate(-11.763 -94.384)"/>
      </g>
    </g>
    <g id="Group_4361" data-name="Group 4361" transform="translate(18.726 55.49)">
      <g id="Group_4360" data-name="Group 4360">
        <path id="Path_805" data-name="Path 805" d="M45.415,130.354a4.385,4.385,0,0,1,0-8.769h8.007a4.384,4.384,0,0,1,0,8.769Zm0-6.488a2.1,2.1,0,0,0,0,4.206h8.007a2.1,2.1,0,1,0,0-4.205H45.415Z" transform="translate(-41.031 -121.585)"/>
      </g>
    </g>
    <g id="Group_4363" data-name="Group 4363" transform="translate(13.692 43.433)">
      <g id="Group_4362" data-name="Group 4362">
        <path id="Path_806" data-name="Path 806" d="M31.141,103.914A1.141,1.141,0,0,1,30,102.773V96.308a1.141,1.141,0,1,1,2.282,0v6.465A1.141,1.141,0,0,1,31.141,103.914Z" transform="translate(-30 -95.167)"/>
      </g>
    </g>
    <g id="Group_4365" data-name="Group 4365" transform="translate(13.692 31.471)">
      <g id="Group_4364" data-name="Group 4364">
        <path id="Path_807" data-name="Path 807" d="M31.141,77.743A1.141,1.141,0,0,1,30,76.6V70.1a1.141,1.141,0,1,1,2.282,0v6.5A1.141,1.141,0,0,1,31.141,77.743Z" transform="translate(-30 -68.958)"/>
      </g>
    </g>
    <g id="Group_4367" data-name="Group 4367">
      <g id="Group_4366" data-name="Group 4366">
        <path id="Path_808" data-name="Path 808" d="M53.087,10.234H1.141A1.141,1.141,0,0,1,0,9.093V3.155A3.159,3.159,0,0,1,3.155,0H51.073a3.159,3.159,0,0,1,3.155,3.155V9.093A1.141,1.141,0,0,1,53.087,10.234ZM2.282,7.953H51.946v-4.8a.874.874,0,0,0-.874-.874H3.155a.874.874,0,0,0-.874.874Z" transform="translate(0 0)"/>
      </g>
    </g>
    <g id="Group_4369" data-name="Group 4369" transform="translate(8.52 0.171)">
      <g id="Group_4368" data-name="Group 4368">
        <path id="Path_809" data-name="Path 809" d="M19.81,10.187a1.141,1.141,0,0,1-1.141-1.141V1.516a1.141,1.141,0,0,1,2.282,0v7.53A1.141,1.141,0,0,1,19.81,10.187Z" transform="translate(-18.669 -0.375)"/>
      </g>
    </g>
  </g>
</svg>
