<svg xmlns="http://www.w3.org/2000/svg" width="127.544" height="116.834" viewBox="0 0 127.544 116.834">
  <g id="web-app-development" transform="translate(0 -10.748)">
    <g id="Group_4255" data-name="Group 4255" transform="translate(0 10.748)">
      <g id="Group_4152" data-name="Group 4152" transform="translate(34.465 110.068)">
        <g id="Group_4151" data-name="Group 4151">
          <path id="Path_707" data-name="Path 707" d="M88.865,232.546v-.875H71.937a2.761,2.761,0,1,0,0,5.521H93.511A4.661,4.661,0,0,1,88.865,232.546Z" transform="translate(-69.176 -231.671)" fill="#fff"/>
        </g>
      </g>
      <g id="Group_4154" data-name="Group 4154" transform="translate(46.276 97.416)">
        <g id="Group_4153" data-name="Group 4153">
          <path id="Path_708" data-name="Path 708" d="M92.883,206.277h7.878v12.652H92.883Z" transform="translate(-92.883 -206.277)" fill="#c7d7e5"/>
        </g>
      </g>
      <g id="Group_4156" data-name="Group 4156" transform="translate(54.154 34.87)">
        <g id="Group_4155" data-name="Group 4155">
          <path id="Path_709" data-name="Path 709" d="M145.614,156.112V108.56a5.359,5.359,0,0,1,5.344-5.344h17.21V85.383a4.66,4.66,0,0,0-4.646-4.646h-50.18a4.659,4.659,0,0,0-4.646,4.646V156.81a4.659,4.659,0,0,0,4.646,4.646h37.616A5.359,5.359,0,0,1,145.614,156.112Z" transform="translate(-108.696 -80.737)" fill="#75adff"/>
        </g>
      </g>
      <g id="Group_4158" data-name="Group 4158" transform="translate(1.246 11.955)">
        <g id="Group_4157" data-name="Group 4157">
          <path id="Path_710" data-name="Path 710" d="M55.408,62.3a4.659,4.659,0,0,1,4.646-4.646h50.18A4.66,4.66,0,0,1,114.88,62.3V40.637a5.912,5.912,0,0,0-5.894-5.894H8.394A5.911,5.911,0,0,0,2.5,40.637v73.674A5.911,5.911,0,0,0,8.394,120.2H55.408Z" transform="translate(-2.5 -34.743)" fill="#75adff"/>
        </g>
      </g>
      <g id="Group_4160" data-name="Group 4160" transform="translate(91.073 57.348)">
        <g id="Group_4159" data-name="Group 4159">
          <path id="Path_711" data-name="Path 711" d="M212.678,125.855H188.14A5.359,5.359,0,0,0,182.8,131.2v47.553a5.36,5.36,0,0,0,5.344,5.344h24.538a5.36,5.36,0,0,0,5.344-5.344V131.2A5.36,5.36,0,0,0,212.678,125.855Z" transform="translate(-182.796 -125.855)" fill="#75adff"/>
        </g>
      </g>
      <g id="Group_4162" data-name="Group 4162" transform="translate(95.769 62.045)">
        <g id="Group_4161" data-name="Group 4161">
          <path id="Path_712" data-name="Path 712" d="M216.488,135.282h-5.5a1.859,1.859,0,0,0-1.734,1.157,4.431,4.431,0,0,1-8.236,0,1.859,1.859,0,0,0-1.734-1.157h-5.5a1.567,1.567,0,0,0-1.567,1.567v45.713a1.567,1.567,0,0,0,1.567,1.567h22.7a1.567,1.567,0,0,0,1.567-1.567V136.849A1.565,1.565,0,0,0,216.488,135.282Z" transform="translate(-192.222 -135.282)" fill="#fff"/>
        </g>
      </g>
      <g id="Group_4164" data-name="Group 4164" transform="translate(59.225 39.941)">
        <g id="Group_4163" data-name="Group 4163">
          <path id="Path_713" data-name="Path 713" d="M150.721,161.22V113.667a5.359,5.359,0,0,1,5.344-5.344H168.2V91.374a.459.459,0,0,0-.459-.458H119.333a.459.459,0,0,0-.459.458v69.66a.459.459,0,0,0,.459.458h31.4C150.731,161.4,150.721,161.312,150.721,161.22Z" transform="translate(-118.874 -90.916)" fill="#fff"/>
        </g>
      </g>
      <g id="Group_4166" data-name="Group 4166" transform="translate(1.246 81.699)">
        <g id="Group_4165" data-name="Group 4165">
          <path id="Path_714" data-name="Path 714" d="M55.408,174.73H2.5v9.823a5.911,5.911,0,0,0,5.894,5.894H55.408Z" transform="translate(-2.5 -174.73)" fill="#fff"/>
        </g>
      </g>
      <g id="Group_4168" data-name="Group 4168" transform="translate(6.157 16.867)">
        <g id="Group_4167" data-name="Group 4167" transform="translate(0 0)">
          <path id="Path_715" data-name="Path 715" d="M60.355,67.251A4.659,4.659,0,0,1,65,62.605h49.915V45.584a.985.985,0,0,0-.982-.982H13.34a.985.985,0,0,0-.982.982v63.85h48Z" transform="translate(-12.358 -44.602)" fill="#fff"/>
        </g>
      </g>
      <g id="Group_4170" data-name="Group 4170" transform="translate(6.157 16.866)">
        <g id="Group_4169" data-name="Group 4169">
          <path id="Path_716" data-name="Path 716" d="M113.933,44.6H13.34a.985.985,0,0,0-.982.982v4.946H114.916V45.583A.986.986,0,0,0,113.933,44.6Z" transform="translate(-12.358 -44.601)" fill="#75adff"/>
        </g>
      </g>
      <g id="Group_4172" data-name="Group 4172" transform="translate(6.157 16.866)">
        <g id="Group_4171" data-name="Group 4171" transform="translate(0 0)">
          <path id="Path_717" data-name="Path 717" d="M20.4,44.6H13.34a.985.985,0,0,0-.982.982v4.946H20.4Z" transform="translate(-12.358 -44.601)" fill="#21e09d"/>
        </g>
      </g>
      <g id="Group_4174" data-name="Group 4174" transform="translate(12.206 52.19)">
        <g id="Group_4173" data-name="Group 4173">
          <path id="Path_718" data-name="Path 718" d="M42.055,139.415H26.375A1.875,1.875,0,0,1,24.5,137.54V117.376a1.875,1.875,0,0,1,1.875-1.875H42.055a1.875,1.875,0,0,1,1.875,1.875V137.54A1.874,1.874,0,0,1,42.055,139.415Z" transform="translate(-24.5 -115.501)" fill="#21e09d"/>
        </g>
      </g>
      <g id="Group_4176" data-name="Group 4176" transform="translate(37.117 52.189)">
        <g id="Group_4175" data-name="Group 4175">
          <path id="Path_719" data-name="Path 719" d="M91.537,139.415V115.5H76.375a1.875,1.875,0,0,0-1.875,1.875v20.163a1.875,1.875,0,0,0,1.875,1.875H91.537Z" transform="translate(-74.5 -115.5)" fill="#002d70"/>
        </g>
      </g>
      <g id="Group_4178" data-name="Group 4178" transform="translate(99.967 88.146)">
        <g id="Group_4177" data-name="Group 4177">
          <path id="Path_720" data-name="Path 720" d="M216.642,187.67H202.093a1.444,1.444,0,0,0-1.444,1.444v3.6a1.444,1.444,0,0,0,1.444,1.444h14.549a1.444,1.444,0,0,0,1.444-1.444v-3.6A1.445,1.445,0,0,0,216.642,187.67Z" transform="translate(-200.649 -187.67)" fill="#002d70"/>
        </g>
      </g>
      <g id="Group_4180" data-name="Group 4180" transform="translate(99.967 99.424)">
        <g id="Group_4179" data-name="Group 4179">
          <path id="Path_721" data-name="Path 721" d="M216.642,210.307H202.093a1.444,1.444,0,0,0-1.444,1.444v3.6a1.444,1.444,0,0,0,1.444,1.444h14.549a1.444,1.444,0,0,0,1.444-1.444v-3.6A1.444,1.444,0,0,0,216.642,210.307Z" transform="translate(-200.649 -210.307)" fill="#21e09d"/>
        </g>
      </g>
      <g id="Group_4183" data-name="Group 4183" transform="translate(99.967 76.868)">
        <g id="Group_4182" data-name="Group 4182">
          <g id="Group_4181" data-name="Group 4181">
            <path id="Path_722" data-name="Path 722" d="M216.642,165.034H202.093a1.444,1.444,0,0,0-1.444,1.444v3.6a1.444,1.444,0,0,0,1.444,1.444h14.549a1.444,1.444,0,0,0,1.444-1.444v-3.6A1.444,1.444,0,0,0,216.642,165.034Z" transform="translate(-200.649 -165.034)" fill="#21e09d"/>
          </g>
        </g>
      </g>
      <g id="Group_4185" data-name="Group 4185" transform="translate(65.04 59.067)">
        <g id="Group_4184" data-name="Group 4184">
          <path id="Path_723" data-name="Path 723" d="M132.45,129.3a1.9,1.9,0,0,0-1.9,1.9V138.6a1.9,1.9,0,0,0,1.9,1.9h24.128v-7.575a5.316,5.316,0,0,1,1.434-3.625H132.45Z" transform="translate(-130.545 -129.305)" fill="#21e09d"/>
        </g>
      </g>
      <g id="Group_4187" data-name="Group 4187" transform="translate(65.04 76.256)">
        <g id="Group_4186" data-name="Group 4186">
          <path id="Path_724" data-name="Path 724" d="M132.45,163.8a1.9,1.9,0,0,0-1.9,1.9V173.1a1.9,1.9,0,0,0,1.9,1.9h24.128v-11.2H132.45Z" transform="translate(-130.545 -163.805)" fill="#002d70"/>
        </g>
      </g>
      <g id="Group_4189" data-name="Group 4189" transform="translate(65.04 93.444)">
        <g id="Group_4188" data-name="Group 4188">
          <path id="Path_725" data-name="Path 725" d="M132.45,198.3a1.9,1.9,0,0,0-1.9,1.9V207.6a1.9,1.9,0,0,0,1.9,1.9h24.128v-11.2H132.45Z" transform="translate(-130.545 -198.305)" fill="#21e09d"/>
        </g>
      </g>
      <g id="Group_4191" data-name="Group 4191" transform="translate(120.071 30.142)">
        <g id="Group_4190" data-name="Group 4190">
          <path id="Path_726" data-name="Path 726" d="M248.4,74.83a4.476,4.476,0,0,1-3.589-3.515.081.081,0,0,0-.159,0,4.476,4.476,0,0,1-3.589,3.515.079.079,0,0,0,0,.156,4.476,4.476,0,0,1,3.589,3.515.081.081,0,0,0,.159,0,4.476,4.476,0,0,1,3.589-3.515A.079.079,0,0,0,248.4,74.83Z" transform="translate(-241 -71.248)" fill="#21e09d"/>
        </g>
      </g>
      <g id="Group_4193" data-name="Group 4193" transform="translate(63.146)">
        <g id="Group_4192" data-name="Group 4192">
          <path id="Path_727" data-name="Path 727" d="M133.413,13.975a4.033,4.033,0,0,1-3.232-3.166.073.073,0,0,0-.143,0,4.031,4.031,0,0,1-3.232,3.166.071.071,0,0,0,0,.14,4.033,4.033,0,0,1,3.232,3.167.073.073,0,0,0,.143,0,4.032,4.032,0,0,1,3.232-3.167A.071.071,0,0,0,133.413,13.975Z" transform="translate(-126.743 -10.748)" fill="#21e09d"/>
        </g>
      </g>
      <g id="Group_4195" data-name="Group 4195" transform="translate(21.067 103.131)">
        <g id="Group_4194" data-name="Group 4194">
          <path id="Path_728" data-name="Path 728" d="M43.858,220.482h1.161v-1.161a1.573,1.573,0,0,1,3.146,0v1.161h1.16a1.573,1.573,0,0,1,0,3.146h-1.16v1.161a1.573,1.573,0,0,1-3.146,0v-1.161H43.858a1.573,1.573,0,0,1,0-3.146Z" transform="translate(-42.285 -217.748)" fill="#002d70"/>
        </g>
      </g>
      <g id="Group_4197" data-name="Group 4197" transform="translate(118.748 41.474)">
        <g id="Group_4196" data-name="Group 4196">
          <circle id="Ellipse_26" data-name="Ellipse 26" cx="1.682" cy="1.682" r="1.682" fill="#002d70"/>
        </g>
      </g>
      <g id="Group_4199" data-name="Group 4199" transform="translate(52.484 3.609)">
        <g id="Group_4198" data-name="Group 4198">
          <circle id="Ellipse_27" data-name="Ellipse 27" cx="1.682" cy="1.682" r="1.682" fill="#002d70"/>
        </g>
      </g>
      <g id="Group_4201" data-name="Group 4201" transform="translate(10.634 102.257)">
        <g id="Group_4200" data-name="Group 4200">
          <circle id="Ellipse_28" data-name="Ellipse 28" cx="1.682" cy="1.682" r="1.682" fill="#21e09d"/>
        </g>
      </g>
      <g id="Group_4203" data-name="Group 4203" transform="translate(33.22 108.822)">
        <g id="Group_4202" data-name="Group 4202">
          <path id="Path_729" data-name="Path 729" d="M92.258,237.183H70.683a4.006,4.006,0,1,1,0-8.012h16.6a1.246,1.246,0,0,1,0,2.491h-16.6a1.515,1.515,0,1,0,0,3.03H92.258a1.246,1.246,0,1,1,0,2.491Z" transform="translate(-66.677 -229.171)"/>
        </g>
      </g>
      <g id="Group_4205" data-name="Group 4205" transform="translate(45.031 96.552)">
        <g id="Group_4204" data-name="Group 4204">
          <path id="Path_730" data-name="Path 730" d="M91.629,218.923a1.245,1.245,0,0,1-1.246-1.246v-11.89a1.246,1.246,0,1,1,2.491,0v11.89A1.245,1.245,0,0,1,91.629,218.923Z" transform="translate(-90.383 -204.542)"/>
        </g>
      </g>
      <g id="Group_4207" data-name="Group 4207" transform="translate(52.908 33.624)">
        <g id="Group_4206" data-name="Group 4206">
          <path id="Path_731" data-name="Path 731" d="M149.7,161.447H112.086a5.9,5.9,0,0,1-5.891-5.891V84.128a5.9,5.9,0,0,1,5.891-5.891h50.18a5.9,5.9,0,0,1,5.891,5.891v17.51a1.246,1.246,0,0,1-2.491,0V84.128a3.4,3.4,0,0,0-3.4-3.4h-50.18a3.4,3.4,0,0,0-3.4,3.4v71.427a3.4,3.4,0,0,0,3.4,3.4H149.7a1.246,1.246,0,1,1,0,2.491Z" transform="translate(-106.195 -78.237)"/>
        </g>
      </g>
      <g id="Group_4209" data-name="Group 4209" transform="translate(0 10.709)">
        <g id="Group_4208" data-name="Group 4208">
          <path id="Path_732" data-name="Path 732" d="M53.87,120.2H7.139A7.148,7.148,0,0,1,0,113.056V39.382a7.148,7.148,0,0,1,7.139-7.139H107.732a7.147,7.147,0,0,1,7.139,7.139V61.049a1.246,1.246,0,0,1-2.491,0V39.382a4.653,4.653,0,0,0-4.648-4.648H7.139a4.653,4.653,0,0,0-4.648,4.648v73.674A4.654,4.654,0,0,0,7.139,117.7H53.87a1.246,1.246,0,1,1,0,2.491Z" transform="translate(0 -32.243)"/>
        </g>
      </g>
      <g id="Group_4211" data-name="Group 4211" transform="translate(89.826 56.103)">
        <g id="Group_4210" data-name="Group 4210">
          <path id="Path_733" data-name="Path 733" d="M211.423,184.086H186.884a6.6,6.6,0,0,1-6.589-6.589V129.944a6.6,6.6,0,0,1,6.589-6.589h24.539a6.6,6.6,0,0,1,6.589,6.589V177.5A6.6,6.6,0,0,1,211.423,184.086Zm-24.539-58.24a4.1,4.1,0,0,0-4.1,4.1V177.5a4.1,4.1,0,0,0,4.1,4.1h24.539a4.1,4.1,0,0,0,4.1-4.1V129.944a4.1,4.1,0,0,0-4.1-4.1Z" transform="translate(-180.295 -123.355)"/>
        </g>
      </g>
      <g id="Group_4213" data-name="Group 4213" transform="translate(13.95 27.527)">
        <g id="Group_4212" data-name="Group 4212">
          <path id="Path_734" data-name="Path 734" d="M32.235,68.491H29.246a1.246,1.246,0,0,1,0-2.491h2.989a1.246,1.246,0,0,1,0,2.491Z" transform="translate(-28 -66)"/>
        </g>
      </g>
      <g id="Group_4215" data-name="Group 4215" transform="translate(22.669 27.527)">
        <g id="Group_4214" data-name="Group 4214">
          <path id="Path_735" data-name="Path 735" d="M49.735,68.491H46.746a1.246,1.246,0,0,1,0-2.491h2.989a1.246,1.246,0,1,1,0,2.491Z" transform="translate(-45.5 -66)"/>
        </g>
      </g>
      <g id="Group_4217" data-name="Group 4217" transform="translate(31.388 27.527)">
        <g id="Group_4216" data-name="Group 4216">
          <path id="Path_736" data-name="Path 736" d="M67.235,68.491H64.246a1.246,1.246,0,0,1,0-2.491h2.989a1.246,1.246,0,0,1,0,2.491Z" transform="translate(-63 -66)"/>
        </g>
      </g>
      <g id="Group_4219" data-name="Group 4219" transform="translate(64.27 44.467)">
        <g id="Group_4218" data-name="Group 4218">
          <path id="Path_737" data-name="Path 737" d="M133.235,102.491h-2.989a1.246,1.246,0,1,1,0-2.491h2.989a1.246,1.246,0,1,1,0,2.491Z" transform="translate(-129 -100)"/>
        </g>
      </g>
      <g id="Group_4221" data-name="Group 4221" transform="translate(72.989 44.467)">
        <g id="Group_4220" data-name="Group 4220">
          <path id="Path_738" data-name="Path 738" d="M150.735,102.491h-2.989a1.246,1.246,0,1,1,0-2.491h2.989a1.246,1.246,0,1,1,0,2.491Z" transform="translate(-146.5 -100)"/>
        </g>
      </g>
      <g id="Group_4223" data-name="Group 4223" transform="translate(81.708 44.467)">
        <g id="Group_4222" data-name="Group 4222">
          <path id="Path_739" data-name="Path 739" d="M168.235,102.491h-2.989a1.246,1.246,0,0,1,0-2.491h2.989a1.246,1.246,0,0,1,0,2.491Z" transform="translate(-164 -100)"/>
        </g>
      </g>
      <g id="Group_4225" data-name="Group 4225" transform="translate(112.099 68.88)">
        <g id="Group_4224" data-name="Group 4224">
          <path id="Path_740" data-name="Path 740" d="M229.235,151.491h-2.989a1.246,1.246,0,0,1,0-2.491h2.989a1.246,1.246,0,1,1,0,2.491Z" transform="translate(-225 -149)"/>
        </g>
      </g>
      <g id="Group_4227" data-name="Group 4227" transform="translate(94.524 60.799)">
        <g id="Group_4226" data-name="Group 4226">
          <path id="Path_741" data-name="Path 741" d="M215.234,184.12h-22.7a2.816,2.816,0,0,1-2.812-2.813V135.594a2.816,2.816,0,0,1,2.812-2.813h5.5a3.087,3.087,0,0,1,2.892,1.942,3.185,3.185,0,0,0,5.92,0,3.085,3.085,0,0,1,2.891-1.942h5.5a2.816,2.816,0,0,1,2.812,2.813v45.713A2.815,2.815,0,0,1,215.234,184.12Zm-22.7-48.847a.322.322,0,0,0-.321.322v45.713a.322.322,0,0,0,.321.322h22.7a.322.322,0,0,0,.321-.322V135.594a.322.322,0,0,0-.321-.322h-5.5a.615.615,0,0,0-.576.372,5.676,5.676,0,0,1-10.55,0,.617.617,0,0,0-.576-.371Z" transform="translate(-189.723 -132.781)"/>
        </g>
      </g>
      <g id="Group_4229" data-name="Group 4229" transform="translate(57.98 38.695)">
        <g id="Group_4228" data-name="Group 4228">
          <path id="Path_742" data-name="Path 742" d="M149.288,161.483h-31.21a1.706,1.706,0,0,1-1.7-1.7V90.119a1.706,1.706,0,0,1,1.7-1.7h48.412a1.706,1.706,0,0,1,1.7,1.7v16.71a1.246,1.246,0,1,1-2.491,0V90.906H118.865v68.086h30.423a1.246,1.246,0,0,1,0,2.491Z" transform="translate(-116.374 -88.415)"/>
        </g>
      </g>
      <g id="Group_4231" data-name="Group 4231" transform="translate(0.342 80.453)">
        <g id="Group_4230" data-name="Group 4230">
          <path id="Path_743" data-name="Path 743" d="M54.308,174.721H1.933a1.246,1.246,0,0,1,0-2.491H54.308a1.246,1.246,0,0,1,0,2.491Z" transform="translate(-0.687 -172.23)"/>
        </g>
      </g>
      <g id="Group_4233" data-name="Group 4233" transform="translate(4.911 15.621)">
        <g id="Group_4232" data-name="Group 4232" transform="translate(0 0)">
          <path id="Path_744" data-name="Path 744" d="M11.1,109.186a1.245,1.245,0,0,1-1.246-1.246V44.329A2.23,2.23,0,0,1,12.086,42.1H112.679a2.23,2.23,0,0,1,2.228,2.228V61.045a1.246,1.246,0,0,1-2.491,0V44.593H12.349V107.94A1.245,1.245,0,0,1,11.1,109.186Z" transform="translate(-9.858 -42.101)"/>
        </g>
      </g>
      <g id="Group_4235" data-name="Group 4235" transform="translate(5.252 21.549)">
        <g id="Group_4234" data-name="Group 4234">
          <path id="Path_745" data-name="Path 745" d="M113.668,56.491H11.788a1.246,1.246,0,1,1,0-2.491h101.88a1.246,1.246,0,1,1,0,2.491Z" transform="translate(-10.542 -54)"/>
        </g>
      </g>
      <g id="Group_4237" data-name="Group 4237" transform="translate(12.954 15.897)">
        <g id="Group_4236" data-name="Group 4236" transform="translate(0 0)">
          <path id="Path_746" data-name="Path 746" d="M27.246,50.425A1.245,1.245,0,0,1,26,49.18V43.9a1.246,1.246,0,1,1,2.491,0V49.18A1.245,1.245,0,0,1,27.246,50.425Z" transform="translate(-26 -42.656)"/>
        </g>
      </g>
      <g id="Group_4239" data-name="Group 4239" transform="translate(10.961 50.943)">
        <g id="Group_4238" data-name="Group 4238">
          <path id="Path_747" data-name="Path 747" d="M40.8,139.405H25.121A3.125,3.125,0,0,1,22,136.284V116.12A3.125,3.125,0,0,1,25.121,113H40.8a3.125,3.125,0,0,1,3.121,3.121v20.163A3.126,3.126,0,0,1,40.8,139.405ZM25.121,115.491a.631.631,0,0,0-.63.63v20.163a.631.631,0,0,0,.63.63H40.8a.631.631,0,0,0,.63-.63V116.121a.631.631,0,0,0-.63-.63Z" transform="translate(-22 -112.999)"/>
        </g>
      </g>
      <g id="Group_4241" data-name="Group 4241" transform="translate(35.872 50.943)">
        <g id="Group_4240" data-name="Group 4240">
          <path id="Path_748" data-name="Path 748" d="M89.895,139.405H75.121A3.125,3.125,0,0,1,72,136.284V116.12A3.125,3.125,0,0,1,75.121,113H89.952a1.246,1.246,0,0,1,0,2.491H75.121a.631.631,0,0,0-.63.63v20.163a.631.631,0,0,0,.63.63H89.895a1.246,1.246,0,1,1,0,2.491Z" transform="translate(-72 -112.999)"/>
        </g>
      </g>
      <g id="Group_4243" data-name="Group 4243" transform="translate(98.722 86.9)">
        <g id="Group_4242" data-name="Group 4242">
          <path id="Path_749" data-name="Path 749" d="M215.387,194.149H200.839a2.693,2.693,0,0,1-2.69-2.69v-3.6a2.693,2.693,0,0,1,2.69-2.69h14.548a2.693,2.693,0,0,1,2.69,2.69v3.6A2.693,2.693,0,0,1,215.387,194.149Zm-14.548-6.488a.2.2,0,0,0-.2.2v3.6a.2.2,0,0,0,.2.2h14.548a.2.2,0,0,0,.2-.2v-3.6a.2.2,0,0,0-.2-.2Z" transform="translate(-198.149 -185.17)"/>
        </g>
      </g>
      <g id="Group_4245" data-name="Group 4245" transform="translate(98.722 98.178)">
        <g id="Group_4244" data-name="Group 4244">
          <path id="Path_750" data-name="Path 750" d="M215.387,216.786H200.839a2.693,2.693,0,0,1-2.69-2.69v-3.6a2.693,2.693,0,0,1,2.69-2.69h14.548a2.693,2.693,0,0,1,2.69,2.69v3.6A2.693,2.693,0,0,1,215.387,216.786ZM200.839,210.3a.2.2,0,0,0-.2.2v3.6a.2.2,0,0,0,.2.2h14.548a.2.2,0,0,0,.2-.2v-3.6a.2.2,0,0,0-.2-.2Z" transform="translate(-198.149 -207.807)"/>
        </g>
      </g>
      <g id="Group_4248" data-name="Group 4248" transform="translate(98.722 75.623)">
        <g id="Group_4247" data-name="Group 4247">
          <g id="Group_4246" data-name="Group 4246">
            <path id="Path_751" data-name="Path 751" d="M215.387,171.514H200.839a2.693,2.693,0,0,1-2.69-2.69v-3.6a2.693,2.693,0,0,1,2.69-2.69h14.548a2.693,2.693,0,0,1,2.69,2.69v3.6A2.693,2.693,0,0,1,215.387,171.514Zm-14.548-6.488a.2.2,0,0,0-.2.2v3.6a.2.2,0,0,0,.2.2h14.548a.2.2,0,0,0,.2-.2v-3.6a.2.2,0,0,0-.2-.2Z" transform="translate(-198.149 -162.535)"/>
          </g>
        </g>
      </g>
      <g id="Group_4250" data-name="Group 4250" transform="translate(63.795 57.822)">
        <g id="Group_4249" data-name="Group 4249">
          <path id="Path_752" data-name="Path 752" d="M155.051,140.5H131.2a3.154,3.154,0,0,1-3.15-3.15v-7.391a3.154,3.154,0,0,1,3.15-3.15h25.273a1.246,1.246,0,0,1,0,2.491H131.2a.66.66,0,0,0-.659.659v7.391a.66.66,0,0,0,.659.659h23.856a1.246,1.246,0,0,1,0,2.491Z" transform="translate(-128.045 -126.805)"/>
        </g>
      </g>
      <g id="Group_4252" data-name="Group 4252" transform="translate(63.795 75.01)">
        <g id="Group_4251" data-name="Group 4251">
          <path id="Path_753" data-name="Path 753" d="M155.051,175H131.2a3.154,3.154,0,0,1-3.15-3.15v-7.391a3.154,3.154,0,0,1,3.15-3.15h23.9a1.246,1.246,0,0,1,0,2.491H131.2a.66.66,0,0,0-.659.659v7.391a.66.66,0,0,0,.659.659h23.856a1.246,1.246,0,1,1,0,2.491Z" transform="translate(-128.045 -161.305)"/>
        </g>
      </g>
      <g id="Group_4254" data-name="Group 4254" transform="translate(63.795 92.199)">
        <g id="Group_4253" data-name="Group 4253">
          <path id="Path_754" data-name="Path 754" d="M154.973,209.5H131.2a3.154,3.154,0,0,1-3.15-3.15v-7.391a3.154,3.154,0,0,1,3.15-3.15H155.02a1.246,1.246,0,1,1,0,2.491H131.2a.66.66,0,0,0-.659.659v7.391a.66.66,0,0,0,.659.659h23.778a1.246,1.246,0,1,1,0,2.491Z" transform="translate(-128.045 -195.805)"/>
        </g>
      </g>
    </g>
  </g>
</svg>
