<svg xmlns="http://www.w3.org/2000/svg" width="131.788" height="115.362" viewBox="0 0 131.788 115.362">
  <g id="android-logomark" transform="translate(-32.9 -58.714)">
    <path id="Path_678" data-name="Path 678" d="M42.859,342.657c-3.4,0-5.7,2.673-5.7,6.109s2.291,6.109,5.7,6.109,5.7-2.673,5.7-6.109c-.032-3.436-2.323-6.109-5.7-6.109m-.764-3.786A7.647,7.647,0,0,1,48.2,341.8v-2.545h4.2v19.059H49.159a.957.957,0,0,1-.955-.955v-1.591a7.6,7.6,0,0,1-6.109,2.927c-5.218,0-9.2-4.454-9.2-9.9s3.945-9.927,9.2-9.927m15.081.382h4.2v2.577a6.533,6.533,0,0,1,5.791-2.959c4.423,0,7.286,3.118,7.286,7.954v11.486H71.24a.957.957,0,0,1-.955-.955v-9.832c0-3.023-1.527-4.836-3.977-4.836-2.768,0-4.932,2.164-4.932,6.236v9.386H58.163a.957.957,0,0,1-.955-.955Zm30.513,3.4c-3.4,0-5.7,2.673-5.7,6.109s2.291,6.109,5.7,6.109,5.7-2.673,5.7-6.109-2.291-6.109-5.7-6.109m-.764-3.786a7.647,7.647,0,0,1,6.109,2.927V329.708h4.2v28.6H94.021a.957.957,0,0,1-.955-.955v-1.591a7.6,7.6,0,0,1-6.109,2.927c-5.218,0-9.2-4.454-9.2-9.9s3.945-9.927,9.163-9.927m15.081.382h4.2v3.4a5.4,5.4,0,0,1,5.027-3.6,7.021,7.021,0,0,1,1.623.159v4.3a6.759,6.759,0,0,0-2.1-.35c-2.386,0-4.582,2.036-4.582,5.823v9.291h-3.214a.957.957,0,0,1-.955-.954Zm22.145,15.527a6.019,6.019,0,1,0-5.759-6.014,5.734,5.734,0,0,0,5.759,6.014m0,3.914a9.847,9.847,0,1,1,7.073-2.85,9.911,9.911,0,0,1-7.073,2.85m13.4-19.44h4.2v19.059h-3.214a.957.957,0,0,1-.955-.955Zm2.1-4.168a2.859,2.859,0,0,1-2.832-2.832,2.816,2.816,0,1,1,2.832,2.832m15.5,7.573c-3.4,0-5.7,2.673-5.7,6.109s2.291,6.109,5.7,6.109,5.7-2.673,5.7-6.109c-.064-3.436-2.291-6.109-5.7-6.109m-.764-3.786a7.647,7.647,0,0,1,6.109,2.927V329.708h4.2v28.6h-3.214a.957.957,0,0,1-.955-.955v-1.591a7.6,7.6,0,0,1-6.109,2.927c-5.218,0-9.2-4.454-9.2-9.9s3.945-9.927,9.163-9.927" transform="translate(0 -184.619)"/>
    <path id="Path_679" data-name="Path 679" d="M131.089,81.136l10.977-18.995a2.281,2.281,0,1,0-3.946-2.291l-11.1,19.218a68.75,68.75,0,0,0-56.38,0L59.531,59.85a2.281,2.281,0,1,0-3.946,2.291L66.563,81.136a64.574,64.574,0,0,0-33.663,51.8H164.624A64.8,64.8,0,0,0,131.089,81.136ZM68.472,114.162a5.473,5.473,0,1,1,5.473-5.473A5.473,5.473,0,0,1,68.472,114.162Zm60.644,0a5.473,5.473,0,1,1,5.473-5.473A5.473,5.473,0,0,1,129.116,114.162Z" transform="translate(0 0)" fill="#3ddc84"/>
  </g>
</svg>
