<svg xmlns="http://www.w3.org/2000/svg" width="107" height="107" viewBox="0 0 107 107">
  <g id="coporate-icon" transform="translate(-140 -2166)">
    <rect id="Rectangle_1265" data-name="Rectangle 1265" width="107" height="107" rx="53.5" transform="translate(140 2166)" fill="#e1edff"/>
    <g id="Group_4062" data-name="Group 4062" transform="translate(-7664.156 34.844)">
      <g id="Rectangle_1288" data-name="Rectangle 1288" transform="translate(7829.156 2156.156)" fill="#fff" stroke="#707070" stroke-width="1" opacity="0">
        <rect width="56" height="56" stroke="none"/>
        <rect x="0.5" y="0.5" width="55" height="55" fill="none"/>
      </g>
      <path id="optimization" d="M60.694,16.266,58.239,18.72H54.988a.907.907,0,0,0-.907.907v3.251l-3.1,3.1H47.734a.907.907,0,0,0-.907.907v3.251l-3.1,3.1H40.481a.907.907,0,0,0-.907.907v3.251l-4,4h-3.1a10.84,10.84,0,0,1,4.871-7.357L36.365,32.5A12.695,12.695,0,0,0,43.2,55.895H54.847A17.227,17.227,0,0,1,25.974,43.2H24.16a19.017,19.017,0,0,0,.547,4.534H17.813V38.667h7.254a.907.907,0,0,0,.838-.56l1.465-3.536a.907.907,0,0,0-.2-.988l-5.129-5.129,6.411-6.411,5.129,5.129a.906.906,0,0,0,.988.2L38.108,25.9a.907.907,0,0,0,.56-.838V17.813h9.067v5.44h1.813V16.907A.907.907,0,0,0,48.641,16H37.761a.907.907,0,0,0-.907.907v7.554l-2.416,1L29.1,20.12a.907.907,0,0,0-1.282,0L20.12,27.814a.907.907,0,0,0,0,1.282l5.342,5.342-1,2.416H16.907a.907.907,0,0,0-.907.907v10.88a.907.907,0,0,0,.907.907h7.554l1,2.416L20.12,57.306a.907.907,0,0,0,0,1.282l7.694,7.694a.907.907,0,0,0,1.282,0l5.342-5.342,2.416,1V69.5a.907.907,0,0,0,.907.907h10.88a.907.907,0,0,0,.907-.907V61.941l2.416-1,5.342,5.342a.907.907,0,0,0,1.282,0l7.694-7.694a.907.907,0,0,0,0-1.282l-1.411-1.411H69.5a.907.907,0,0,0,.907-.907V24.16a.907.907,0,0,0-.907-.907H62.242a.907.907,0,0,0-.907.907v6.347H54.988a.907.907,0,0,0-.907.907v4.534H47.734a.907.907,0,0,0-.907.907v5.44H40.481a.907.907,0,0,0-.907.907v3.627H32.943a10.831,10.831,0,0,1-.622-3.627h3.627a.907.907,0,0,0,.641-.265l4.268-4.268h3.251a.907.907,0,0,0,.907-.907V34.51l3.1-3.1h3.251a.907.907,0,0,0,.907-.907V27.256l3.1-3.1h3.251a.907.907,0,0,0,.907-.907V20l2.189-2.189H70.4V16H61.335a.907.907,0,0,0-.641.265ZM28.455,64.358l-6.411-6.411,4.878-4.878a19.188,19.188,0,0,0,6.411,6.411Zm10.213,4.23V61.695a19.038,19.038,0,0,0,9.067,0v6.9ZM64.358,57.947l-6.411,6.411L53.07,59.481a19.047,19.047,0,0,0,4.322-3.586h4.915Zm-1.21-32.88h5.44V54.081h-5.44Zm-7.254,7.254h5.44V54.081h-5.44Zm-7.254,5.44h5.44V54.081h-5.44Zm-7.254,6.347h5.44v9.974H43.2a10.9,10.9,0,0,1-1.813-.152Zm-1.813,4.534v4.818a10.939,10.939,0,0,1-5.793-4.818ZM43.2,36.854H41.388V35.041H43.2ZM50.455,29.6H48.641V27.787h1.813Zm7.254-7.254H55.895V20.533h1.813Z" transform="translate(7813.92 2140.92)" fill="#002d70"/>
    </g>
  </g>
</svg>
