<svg xmlns="http://www.w3.org/2000/svg" width="107" height="107" viewBox="0 0 107 107">
  <g id="digital-icon" transform="translate(-1343 -2165)">
    <rect id="Rectangle_1293" data-name="Rectangle 1293" width="107" height="107" rx="53.5" transform="translate(1343 2165)" fill="#e1edff"/>
    <g id="Group_4064" data-name="Group 4064" transform="translate(-5717 -416)">
      <rect id="Rectangle_1290" data-name="Rectangle 1290" width="56" height="56" transform="translate(7086 2607)" fill="#fff" opacity="0"/>
      <path id="icons8_billboard_1" d="M15.266,1.97a1.414,1.414,0,0,0-.152.038,1.219,1.219,0,0,0-.95,1.216V6.873h-.228a1.222,1.222,0,1,0,.228,2.433H16.6a1.216,1.216,0,1,0,0-2.433V3.224a1.218,1.218,0,0,0-1.33-1.254Zm14.6,0a1.414,1.414,0,0,0-.152.038,1.219,1.219,0,0,0-.95,1.216V6.873h-.114a1.218,1.218,0,1,0,.114,2.433h2.433a1.216,1.216,0,1,0,0-2.433V3.224a1.218,1.218,0,0,0-1.33-1.254Zm14.6,0a1.415,1.415,0,0,0-.152.038,1.219,1.219,0,0,0-.95,1.216V6.873h-.228a1.222,1.222,0,1,0,.228,2.433h2.433a1.216,1.216,0,1,0,0-2.433V3.224a1.218,1.218,0,0,0-1.33-1.254ZM2.988,3.224A1.216,1.216,0,0,0,2,4.44V37.279A1.219,1.219,0,0,0,3.216,38.5H23.894V55.523H21.348a1.218,1.218,0,1,0,.114,2.433H38.491a1.216,1.216,0,1,0,0-2.433H36.058V38.5H56.736a1.219,1.219,0,0,0,1.216-1.216V4.44a1.219,1.219,0,0,0-1.216-1.216H47.005V5.656h8.514V36.063H4.433V5.656h8.514V3.224H2.988Zm14.824,0V5.656h9.731V3.224Zm14.6,0V5.656H42.14V3.224ZM26.327,38.5h7.3V55.523h-7.3Z" transform="translate(7084.048 2605.036)" fill="#002d70"/>
    </g>
  </g>
</svg>
