<svg xmlns="http://www.w3.org/2000/svg" width="107" height="107" viewBox="0 0 107 107">
  <g id="healthcare-ion" transform="translate(-140 -2369)">
    <rect id="Rectangle_1294" data-name="Rectangle 1294" width="107" height="107" rx="53.5" transform="translate(140 2369)" fill="#e1edff"/>
    <g id="Group_4060" data-name="Group 4060" transform="translate(-6920 238.155)">
      <rect id="Rectangle_1287" data-name="Rectangle 1287" width="56" height="56" transform="translate(7086 2156.845)" fill="#fff" opacity="0"/>
      <g id="hospital" transform="translate(7086 2156.977)">
        <path id="Path_606" data-name="Path 606" d="M56.938,18.761h-12.1V2.931A.931.931,0,0,0,43.9,2H15.967a.931.931,0,0,0-.931.931v15.83H2.931A.931.931,0,0,0,2,19.692V56.938a.931.931,0,0,0,.931.931H56.938a.931.931,0,0,0,.931-.931V19.692A.931.931,0,0,0,56.938,18.761ZM3.862,20.623H15.036V56.007H3.862ZM32.728,46.7v9.311H27.141V46.7Zm10.243,9.311H34.59V46.7h1.862V44.833H23.416V46.7h1.862v9.311H16.9V3.862H42.971Zm13.036,0H44.833V20.623H56.007Z" transform="translate(-2 -2)" fill="#002d70"/>
        <path id="Path_607" data-name="Path 607" d="M50.931,31.449h5.587a.931.931,0,0,0,.931-.931V24.931A.931.931,0,0,0,56.518,24H50.931a.931.931,0,0,0-.931.931v5.587A.931.931,0,0,0,50.931,31.449Zm.931-5.587h3.725v3.725H51.862Z" transform="translate(-5.305 -3.515)" fill="#002d70"/>
        <path id="Path_608" data-name="Path 608" d="M50.931,41.449h5.587a.931.931,0,0,0,.931-.931V34.931A.931.931,0,0,0,56.518,34H50.931a.931.931,0,0,0-.931.931v5.587A.931.931,0,0,0,50.931,41.449Zm.931-5.587h3.725v3.725H51.862Z" transform="translate(-5.305 -4.203)" fill="#002d70"/>
        <path id="Path_609" data-name="Path 609" d="M50.931,51.449h5.587a.931.931,0,0,0,.931-.931V44.931A.931.931,0,0,0,56.518,44H50.931a.931.931,0,0,0-.931.931v5.587A.931.931,0,0,0,50.931,51.449Zm.931-5.587h3.725v3.725H51.862Z" transform="translate(-5.305 -4.892)" fill="#002d70"/>
        <path id="Path_610" data-name="Path 610" d="M12.518,24H6.931A.931.931,0,0,0,6,24.931v5.587a.931.931,0,0,0,.931.931h5.587a.931.931,0,0,0,.931-.931V24.931A.931.931,0,0,0,12.518,24Zm-.931,5.587H7.862V25.862h3.725Z" transform="translate(-2.275 -3.515)" fill="#002d70"/>
        <path id="Path_611" data-name="Path 611" d="M20.931,27.587h3.725a.931.931,0,0,0,.931-.931V22.931A.931.931,0,0,0,24.656,22H20.931a.931.931,0,0,0-.931.931v3.725A.931.931,0,0,0,20.931,27.587Zm.931-3.725h1.862v1.862H21.862Z" transform="translate(-3.239 -3.377)" fill="#002d70"/>
        <path id="Path_612" data-name="Path 612" d="M33.656,22H29.931a.931.931,0,0,0-.931.931v3.725a.931.931,0,0,0,.931.931h3.725a.931.931,0,0,0,.931-.931V22.931A.931.931,0,0,0,33.656,22Zm-.931,3.725H30.862V23.862h1.862Z" transform="translate(-3.859 -3.377)" fill="#002d70"/>
        <path id="Path_613" data-name="Path 613" d="M38,22.931v3.725a.931.931,0,0,0,.931.931h3.725a.931.931,0,0,0,.931-.931V22.931A.931.931,0,0,0,42.656,22H38.931A.931.931,0,0,0,38,22.931Zm1.862.931h1.862v1.862H39.862Z" transform="translate(-4.479 -3.377)" fill="#002d70"/>
        <path id="Path_614" data-name="Path 614" d="M20.931,35.587h3.725a.931.931,0,0,0,.931-.931V30.931A.931.931,0,0,0,24.656,30H20.931a.931.931,0,0,0-.931.931v3.725A.931.931,0,0,0,20.931,35.587Zm.931-3.725h1.862v1.862H21.862Z" transform="translate(-3.239 -3.928)" fill="#002d70"/>
        <path id="Path_615" data-name="Path 615" d="M33.656,30H29.931a.931.931,0,0,0-.931.931v3.725a.931.931,0,0,0,.931.931h3.725a.931.931,0,0,0,.931-.931V30.931A.931.931,0,0,0,33.656,30Zm-.931,3.725H30.862V31.862h1.862Z" transform="translate(-3.859 -3.928)" fill="#002d70"/>
        <path id="Path_616" data-name="Path 616" d="M42.656,30H38.931a.931.931,0,0,0-.931.931v3.725a.931.931,0,0,0,.931.931h3.725a.931.931,0,0,0,.931-.931V30.931A.931.931,0,0,0,42.656,30Zm-.931,3.725H39.862V31.862h1.862Z" transform="translate(-4.479 -3.928)" fill="#002d70"/>
        <path id="Path_617" data-name="Path 617" d="M20.931,43.587h3.725a.931.931,0,0,0,.931-.931V38.931A.931.931,0,0,0,24.656,38H20.931a.931.931,0,0,0-.931.931v3.725A.931.931,0,0,0,20.931,43.587Zm.931-3.725h1.862v1.862H21.862Z" transform="translate(-3.239 -4.479)" fill="#002d70"/>
        <path id="Path_618" data-name="Path 618" d="M33.656,38H29.931a.931.931,0,0,0-.931.931v3.725a.931.931,0,0,0,.931.931h3.725a.931.931,0,0,0,.931-.931V38.931A.931.931,0,0,0,33.656,38Zm-.931,3.725H30.862V39.862h1.862Z" transform="translate(-3.859 -4.479)" fill="#002d70"/>
        <path id="Path_619" data-name="Path 619" d="M42.656,38H38.931a.931.931,0,0,0-.931.931v3.725a.931.931,0,0,0,.931.931h3.725a.931.931,0,0,0,.931-.931V38.931A.931.931,0,0,0,42.656,38Zm-.931,3.725H39.862V39.862h1.862Z" transform="translate(-4.479 -4.479)" fill="#002d70"/>
        <path id="Path_620" data-name="Path 620" d="M12.518,34H6.931A.931.931,0,0,0,6,34.931v5.587a.931.931,0,0,0,.931.931h5.587a.931.931,0,0,0,.931-.931V34.931A.931.931,0,0,0,12.518,34Zm-.931,5.587H7.862V35.862h3.725Z" transform="translate(-2.275 -4.203)" fill="#002d70"/>
        <path id="Path_621" data-name="Path 621" d="M12.518,44H6.931A.931.931,0,0,0,6,44.931v5.587a.931.931,0,0,0,.931.931h5.587a.931.931,0,0,0,.931-.931V44.931A.931.931,0,0,0,12.518,44Zm-.931,5.587H7.862V45.862h3.725Z" transform="translate(-2.275 -4.892)" fill="#002d70"/>
        <path id="Path_622" data-name="Path 622" d="M25.931,15.311h2.793V18.1a.931.931,0,0,0,.931.931H33.38a.931.931,0,0,0,.931-.931V15.311H37.1a.931.931,0,0,0,.931-.931V10.656a.931.931,0,0,0-.931-.931H34.311V6.931A.931.931,0,0,0,33.38,6H29.656a.931.931,0,0,0-.931.931V9.725H25.931a.931.931,0,0,0-.931.931V14.38A.931.931,0,0,0,25.931,15.311Zm.931-3.725h2.793a.931.931,0,0,0,.931-.931V7.862h1.862v2.793a.931.931,0,0,0,.931.931h2.793v1.862H33.38a.931.931,0,0,0-.931.931v2.793H30.587V14.38a.931.931,0,0,0-.931-.931H26.862Z" transform="translate(-3.584 -2.275)" fill="#002d70"/>
        <path id="Path_623" data-name="Path 623" d="M42,56h1.862v1.862H42Z" transform="translate(-4.754 -5.718)" fill="#002d70"/>
        <path id="Path_624" data-name="Path 624" d="M42,52h1.862v1.862H42Z" transform="translate(-4.754 -5.443)" fill="#002d70"/>
        <path id="Path_625" data-name="Path 625" d="M42,48h1.862v1.862H42Z" transform="translate(-4.754 -5.167)" fill="#002d70"/>
      </g>
    </g>
  </g>
</svg>
