<svg xmlns="http://www.w3.org/2000/svg" width="531.863" height="320.795" viewBox="0 0 531.863 320.795">
  <g id="howitworks-image" transform="translate(-0.044)">
    <g id="Layer_1" data-name="Layer 1">
      <path id="Path_686" data-name="Path 686" d="M7.219,277.9l86.809-26.064h81.424L160.373,277.9Z" transform="translate(3)" fill="#fff"/>
      <ellipse id="Ellipse_20" data-name="Ellipse 20" cx="19.5" cy="4" rx="19.5" ry="4" transform="translate(89.044 266)" opacity="0.18"/>
      <path id="Path_684" data-name="Path 684" d="M175.451,277.9l-103.2-24.558L7.219,251.831,22.3,277.9Z" transform="translate(346.611)" fill="#fff"/>
      <path id="Path_645" data-name="Path 645" d="M464.07,294.05c1,6.84,2.09,13.46,3,20.1a44.625,44.625,0,0,1,.14,4.49c.07,1.91-.87,2.43-2.55,1.95-.62-5.58-1-11.18-1.91-16.68-1.76-10.12-1.91-10.09-11.87-10.09H357.55c-4.32,0-4.3,0-5,4.11-1.19,6.76-2.46,13.51-3.58,20.29-.29,1.74-.76,2.65-2.79,2.57-5.74-.21-11.49-.29-17.23-.29q-77.43,0-154.87-.05h-8.26l-4.63-26.63H157.4c-25.25,0-50.5.06-75.75-.08-3,0-4.42.95-5.51,3.65-2.87,7.05-6,14-9,21-.69,1.59-1.29,3.08-3.94,1.93l10.45-25.18c-3-1.13-4.74-.68-6,2.33-2.83,6.93-6,13.73-8.93,20.6-.79,1.83-1.58,3.51-4.47,2.3,3.55-8.58,7.08-17.14,10.89-26.36-6,0-11.58-.13-17.11.13-.86,0-1.91,1.74-2.39,2.88-3,7.13-5.9,14.3-8.77,21.48-.68,1.68-1.42,2.94-4,1.83L43.33,294c-1.63-.09-2.81-.21-4-.21H4.46c-4.24,0-4.37-.16-4.4-4.5,0-2.87.15-5.76,0-8.62-.17-2.51,1-3.57,3.22-4.2,30-8.4,60.05-16.88,90.1-25.22,2.58-.72,5.42-.54,8.53-.81a27.894,27.894,0,0,0,.3-3.05c0-4.63.19-9.26,0-13.87-.15-2.95,1.06-4.66,3.75-5.1a84.931,84.931,0,0,1,28.32,0c2.67.45,3.56,2,3.44,4.78-.25,5.7-.08,11.43-.08,17.33h34.31c.28-2,.54-4,.87-6.38-1.63-.09-3-.22-4.29-.23-4,0-8,.12-12-.06-5.59-.24-8.89-3.57-8.91-9q-.18-56.81-.25-113.61c0-6.7,3.5-9.92,10.37-9.92h69.37c2.74,0,4.47-.58,6-3.15a25.28,25.28,0,0,1,14.24-11.53,21.451,21.451,0,0,1,2.65-.48c.29,1.25.53,2.31.81,3.56,11-2.94,22-5.27,32.39,2.82l-3,1.52c1.17,1.15,2.65,2.06,3.33,3.38,1.85,3.58,4.72,4.08,8.35,3.89,5.22-.26,10.45-.06,16.05-.06-.6-5.8-1.21-11.22-1.66-16.64a18,18,0,0,1,.54-3.88c1.26.3,2.81.22,3.72,1,6.5,5.23,13,10.45,19.2,16,2.54,2.29,4.77,3.81,8.4,3.61,6.23-.34,12.5-.13,18.75-.08s9.95,3.65,10,10c0,11.25-.06,22.5.08,33.75a13.07,13.07,0,0,0,1.49,5.62q14.19,27.645,28.57,55.18c.52,1,1,2,1.57,3,.08.14.43.12,1.18.31v-7.76c-.29-18.61-.42-37.23-.95-55.84-.66-23.34-1.85-46.66-2.46-70C395.54,58.37,396,31.15,399,4c.12-1,.46-2.06.91-4a29.435,29.435,0,0,1,2.9,3.23Q415.5,24,428.14,44.8c4.5,7.44,3.47,12.59-3.39,17.89-3.06,2.36-6.34,4.5-9.1,7.17-3.49,3.38-3.08,5.39,1.13,7.88,3.54,2.1,7.27,3.89,10.72,6.11a16.64,16.64,0,0,1,7.94,11.73c.89,5.73-1,9.68-6.3,12.27-2.52,1.24-5.17,2.23-8.6,3.69l7.58,6.89c1.66-2.78,2.95-5.17,4.45-7.43q18.84-28.41,37.77-56.77c2.05-3.07,2.76-3.11,5-.37,4.26,5.18,7.64,10.76,7.79,17.81a16.52,16.52,0,0,1-3.86,11c-1,1.27-2.15,2.44-3.17,3.7-3.53,4.34-3.57,5.07.18,9.08,2.8,3,3.84,6.43,2.73,10.34-1.16,4.09-4.55,5.34-8.31,5.91-2.31.36-4.62.69-7.31,1.09,1.35,2.94,2.51,5.41,3.62,7.9,4.82,10.85,2,18.88-8.43,24.38-9.61,5-19.29,6.5-29.28.89-3.14-1.76-4.45-1.43-5.67,2.18-3,9-6,18-8.27,27.15a157.052,157.052,0,0,0-4.48,38.23c0,1.85.18,3.71.27,5.58,3.24.74,6.32,1.24,9.28,2.16,5.37,1.66,6.42,3.42,5.38,8.83-1.42,7.32-3,14.6-4.6,22.28,6.16,1.41,12.33,2.86,18.51,4.25,29.34,6.59,58.67,13.21,88,19.67,3.21.71,4.48,2,4.13,5.29a70.385,70.385,0,0,0,0,7.12c0,5.05,0,5.06-4.9,5.07H500.69l10.48,26.4c-2.68,1.46-3.38-.32-4.09-2.09-2.86-7.05-5.81-14.07-8.52-21.18-.91-2.38-2.21-3.2-4.73-3.09-4.7.21-9.42.06-14.86.06l10.89,26.37c-2.58,1.26-3.55-.13-4.38-2.06-2.94-6.88-6-13.69-8.9-20.61-1.11-2.7-2.68-3.7-6-2.53,3.48,8.44,6.92,16.77,10.38,25.12-2.52,1.42-3.21-.2-3.94-1.89-3.18-7.33-6.4-14.63-9.57-22C466.68,294.65,466,293,464.07,294.05Zm-122.64-44c-1.7-11.51-3.08-23.27-8.81-34.41a19.41,19.41,0,0,0-7.68,15.14c-.08,1.37-.38,2.72-.58,4.08L323,235a18.508,18.508,0,0,1-.95-3.85c-.21-6.55,2.46-12,7-16.71a8,8,0,0,0-1.21-.81q-19.69-7.68-39.42-15.3a12.69,12.69,0,0,0-4.38-.7q-25.68-.06-51.37,0a14.65,14.65,0,0,0-5.08.93c-12.46,4.78-24.89,9.66-37.31,14.53a27.057,27.057,0,0,0-2.51,1.28c6.75,8.29,8.92,16.79,4.45,21.44-1-7.64-1.16-15.11-8.2-20-5.66,10.81-7,22.41-8.72,33.66,4.6-.34,8.68-.89,12.77-.89q64.49-.06,129,.05h4.44c1.48-4-.77-8.09,1.62-11.26l1.48.07.5,10.55Zm60.79-25h1.21c.17-3.76.47-7.53.48-11.29.06-14.74,0-29.48.08-44.22,0-4.36.45-8.72.85-13.06.38-4.18,2.09-7.71,5.81-9.94,4.39-2.63,8.87-5.09,13.26-7.7a62.863,62.863,0,0,0,7.82-5.1c3-2.48,3.15-4.81.65-7.76a45.774,45.774,0,0,0-5.23-4.78,84.536,84.536,0,0,1-7.11-6.07c-3-3.12-2.33-5.89,1.6-7.6,1.94-.85,4-1.44,5.91-2.35,4.5-2.14,6.31-5.81,4.51-10.46a20.151,20.151,0,0,0-4.93-7.26c-2.23-2.08-5.21-3.37-7.88-5-1.93-1.15-4-2.09-5.81-3.4-3.62-2.6-4.27-5.77-1.6-9.35a38,38,0,0,1,6.11-6c2.19-1.86,4.71-3.32,6.86-5.2,3.31-2.9,3.85-5.69,2.11-9.69a28.847,28.847,0,0,0-2-3.6q-10.28-16.76-20.58-33.49l-2.28-3.69c-1.29,11.16-2.58,22.18-2.56,33.19.06,25.21.68,50.41,1.24,75.61.33,14.58,1.25,29.16,1.42,43.74.24,21.59.06,43.06.06,64.52Zm24.83-83.72c1.87.84,3.47,1.52,5,2.28,9.85,4.78,23.08,2.36,30.66-5.69,2.92-3.1,4.36-6.72,2.87-11-1.32-3.75-2.84-7.42-4.24-11.15s-.51-5.63,3.43-6.52c2.41-.55,4.91-.74,7.33-1.27,2.91-.62,4.4-2.7,3.79-5.49A14.68,14.68,0,0,0,473,96.76c-3.07-3.85-3.45-6.52-.81-10.5a36.165,36.165,0,0,1,2.76-3.54c7.14-8.21,6.33-19.08-2.25-26.64C458,76.83,443.68,97.8,431,119.66c9.21,10.13,8.54,13.54-3.95,21.72ZM14.67,276.51l.11.25H158.26c-.33-9.06,2.88-16.47,9.85-22.74H137.93c-1.41,11.73-6.16,17-15.76,17.57-4.77.26-9.47,0-13.6-3-4.92-3.59-6.06-8.88-6.48-15-3.33.36-6.49.3-9.42,1.09-19.13,5.22-38.21,10.61-57.3,16C28.47,272.55,21.57,274.54,14.67,276.51Zm362.84-93.09C366.25,162.4,354,141.82,339,123c-7.52-9.39-15.55-18.28-25.25-25.5-1.15-.86-2.41-1.58-3.62-2.36l-1,.45c1.43,9,2.63,18.09,4.36,27.06,1.23,6.36,2,6.63,8.6,6.4,5.16-.18,8.15,2.32,8.15,7.51,0,2.52-1.17,5-1.69,7.56-.29,1.4-.94,3.14-.42,4.23A107.276,107.276,0,0,0,335,160.81c3.09,4.72,7.71,6.07,13.13,4.71a22.83,22.83,0,0,1,4.35-1.07c1.11,0,2.71.31,3.26,1.08s.27,2.38-.2,3.36a56.744,56.744,0,0,1-3.22,5c-2.09,3.45-2,4.38,1.24,6.87a39.169,39.169,0,0,0,7,4.33c4.53,2.18,9.07,2.51,13.42-.75.81-.6,2.15-.57,3.53-.92ZM159,280.45H3.31v10.41H160.67C160.08,287.23,159.54,283.94,159,280.45Zm229.79-26.62c-2.88,0-5.61-.07-8.34,0a3.6,3.6,0,0,0-2.28.94,83.59,83.59,0,0,0-6.3,7.41c-2.46,3.42-1.72,5.87,2.39,6.44a176.752,176.752,0,0,0,22.26,1.95c8.46.13,16.95-.92,25.42-.91,9.32,0,18.35,1.71,26.62,6.44a9,9,0,0,0,4.28.84c11.86.07,23.73,0,35.59,0h25.74l.07-.55-93.81-21.1c-3.31,7.63-6.26,9.49-14.32,9.27-1.12,0-2.24-.13-3.36-.16-7.63-.09-11.45-2.91-13.99-10.57ZM229.27,114.57H158.54c-6.55,0-8,1.4-8,7.83v96.3c0,1.33.12,2.66.19,4.15h26.88c.44-1.42.86-2.75,1.4-4.48H162c-4.9,0-5-.13-5-5.07V124.87c0-4.78.27-5,5.16-5h61.46C228.3,119.83,228.3,119.82,229.27,114.57ZM353.83,290.8H458.48c-1.57-2.21-2.73-4-4-5.63A12.33,12.33,0,0,0,443.63,280c-27.84.29-55.69.14-83.54.14h-4.43C355,283.89,354.45,287.18,353.83,290.8Zm100.69-10.56c2.11,2.89,4.24,5.23,5.66,7.94,1.25,2.37,2.75,3,5.29,3,19.84-.09,39.68-.05,59.52-.05h3.49V280.24Zm-62.72-60c-5.43-11.06-10.75-21.88-16-32.58l-8.8,2.97v26.76c7.63,1.71,12.78,6.05,15.64,13s1.35,13.58-1.42,20.18H388c-.88-6.26-1.71-12.3-2.59-18.33-1.09-7.4-2.56-7.45,6.39-11.96ZM346.33,254c7.35,6.48,10.15,14.08,10.07,22.88h85.66a39.77,39.77,0,0,0-18.67-4.14c-9.1,0-18.21.92-27.3.8a146.883,146.883,0,0,1-22.27-1.89c-6.64-1.1-8.14-5.58-4.42-11.29,1.4-2.15,3.17-4.06,5-6.36Zm-2.2-10.08c.09,1.13.12,1.63.17,2.12.44,4.66.44,4.68,5,4.68h20.59c8.3,0,9.55-1.05,10.83-9.41a21.209,21.209,0,0,0,.1-5.22c-.73-7.59-7.24-14.57-13.81-14.92a5.883,5.883,0,0,0-.21,1.08c-.09,3.74-.17,7.49-.21,11.23-.08,7-3.3,10.34-10.26,10.42-3.92.1-7.89.04-12.2.04Zm-115.42-95.2c-3.46,2.25-4.17,4-3.32,7.56.68,2.82,1.81,5.37,5.32,5.19,2.22-.11,2.71,1,2.95,2.87.76,6,3.6,11.06,7.36,15.69a5.83,5.83,0,0,0,5.09,2.4c7.36-.13,14.73-.26,22.08,0,3.79.15,6.38-1.22,7.92-4.38,2.35-4.79,4.3-9.78,6.62-14.59.62-1.29,1.8-2.94,3-3.21,2.86-.63,4.2-2.52,5.26-4.81,1.28-2.75.95-6.07-.72-6.45-2.93-.66-3.69,1.83-4.6,3.85-3.09,6.81-6.17,13.62-9.19,20.46-.87,2-1.89,3-4.29,2.15-9.73-3.51-19.57-3.37-29.38-.35-2.56.79-3.53-.09-4.3-2.45q-2.83-8.7-6.14-17.23a59,59,0,0,0-3.66-6.7Zm56.79,41.62c-4.29-2.84-7.87-7.71-14.32-5a5.22,5.22,0,0,1-1.86.05c-6.25.06-12.49.14-18.74.14-2.74,0-5.63.36-8.17-.38a5,5,0,0,0-4.78.57,41.072,41.072,0,0,0-4,2.77c-1.23,1.05-3.18,1.75-2.38,4.12s2.63,1.85,4.32,1.86c14.75,0,29.49,0,44.24.17C283,194.66,284.76,193.7,285.5,190.34ZM150.57,226.26c0,3.09-.08,5.81,0,8.53.12,3.67,2.12,5.91,5.73,6,5,.18,10,.13,15,0a3.08,3.08,0,0,0,2.4-1.6c1-4.19,1.81-8.46,2.72-12.94Zm212.76-3.37V189.74L356.06,187c0,7.49.05,14.45,0,21.41-.1,11.52,1.55,9.85-9.8,10h-8.83c.8,2,1.33,3.31,1.8,4.51Zm-26.8-108.31c2,4.08,4.51,5.9,8.6,5.3a42.161,42.161,0,0,1,6.36,0c4.25,0,4.53.3,4.56,4.41,0,4.37.2,8.74,0,13.1-.34,6.26,4.57,9.59,7.15,14.24.4-10.41.45-20.64.37-30.87,0-3.72-2.12-6-5.67-6.09-7-.19-13.96-.09-21.37-.09Zm3.71,111.63c.93,4.56,1.68,8.71,2.7,12.8a3,3,0,0,0,2.22,1.78q6.33.255,12.68,0c2.93-.1,5.14-1.76,5.5-4.65.4-3.24.09-6.58.09-10ZM309.16,119.55c-.51-2,.86-4.78-2.29-4.89-6.18-.22-12.37-.07-19.06-.07.5,2,.88,3.47,1.26,5Zm99,80.93c2.28-19.32,5.8-38.28,13.35-56.48-1.42.89-3,1.86-3.48,3.21-6.11,17.24-9.03,35.09-9.84,53.27ZM421.47,225c-2.73,1.86-4.56,3.87-6.78,4.5a38.54,38.54,0,0,1-18.88.28c-2.8-.62-5.33-1.76-6.18-5-2,2.06-1.85,2.52.62,4.14,7.95,5.19,23.33,4.86,31-.63.7-.5,1.49-.88,2.62-1.54Zm-7.59-76.32-.9-.57c-1.37,1.82-3.64,3.5-4,5.49-1.1,6.85-1.52,13.8-2.21,20.71h.75q3.19-12.78,6.36-25.61Z" fill="#002d70"/>
      <path id="Path_685" data-name="Path 685" d="M255.823,3080.46s11.433,16.073,10.107,27.009-2.154,13.421-2.154,13.421,14.084-1.326,13.918-18.227-.492-22.038-.492-22.038Z" transform="translate(-139.956 -2849.954)" fill="#06357d"/>
      <path id="Path_646" data-name="Path 646" d="M341.43,250.06,325.05,248l-.5-10.55-1.48-.07c-2.39,3.17-.14,7.27-1.62,11.26H317q-64.49,0-129-.05c-4.09,0-8.17.55-12.77.89,1.76-11.25,3.06-22.85,8.72-33.66,7,4.88,7.24,12.35,8.2,20,4.47-4.65,2.3-13.15-4.45-21.44a27.07,27.07,0,0,1,2.51-1.28c12.42-4.87,24.85-9.75,37.31-14.53a14.65,14.65,0,0,1,5.08-.93q25.69-.09,51.37,0a12.69,12.69,0,0,1,4.38.7q19.74,7.57,39.42,15.3a8,8,0,0,1,1.21.81c-4.5,4.69-7.17,10.16-7,16.71A18.509,18.509,0,0,0,323,235l1.36-.1c.2-1.36.5-2.71.58-4.08a19.41,19.41,0,0,1,7.68-15.14C338.35,226.79,339.73,238.55,341.43,250.06Z" fill="#fff"/>
      <path id="Path_647" data-name="Path 647" d="M402.22,225.1c0-21.46.18-42.93-.06-64.4-.17-14.58-1.09-29.16-1.42-43.74-.56-25.2-1.18-50.4-1.24-75.61,0-11,1.27-22,2.56-33.19l2.28,3.69q10.31,16.74,20.58,33.49a28.851,28.851,0,0,1,2,3.6c1.74,4,1.2,6.79-2.11,9.69-2.15,1.88-4.67,3.34-6.86,5.2a38,38,0,0,0-6.11,6c-2.67,3.58-2,6.75,1.6,9.35,1.82,1.31,3.88,2.25,5.81,3.4,2.67,1.6,5.65,2.89,7.88,5a20.15,20.15,0,0,1,4.93,7.26c1.8,4.65,0,8.32-4.51,10.46-1.91.91-4,1.5-5.91,2.35-3.93,1.71-4.61,4.48-1.6,7.6,2.15,2.24,4.75,4,7.11,6.07a45.777,45.777,0,0,1,5.23,4.78c2.5,3,2.36,5.28-.65,7.76a62.861,62.861,0,0,1-7.82,5.1c-4.39,2.61-8.87,5.07-13.26,7.7-3.72,2.23-5.43,5.76-5.81,9.94-.4,4.34-.82,8.7-.85,13.06-.11,14.74,0,29.48-.08,44.22,0,3.76-.31,7.53-.48,11.29Z" fill="#21e09d"/>
      <path id="Path_648" data-name="Path 648" d="M427.05,141.38c12.49-8.18,13.16-11.59,3.95-21.72,12.68-21.86,27-42.83,41.69-63.58,8.58,7.56,9.39,18.43,2.25,26.64a36.169,36.169,0,0,0-2.76,3.54c-2.64,4-2.26,6.65.81,10.5a14.68,14.68,0,0,1,2.94,5.81c.61,2.79-.88,4.87-3.79,5.49-2.42.53-4.92.72-7.33,1.27-3.94.89-4.86,2.71-3.43,6.52s2.92,7.4,4.24,11.15c1.49,4.25.05,7.87-2.87,11-7.58,8.05-20.81,10.47-30.66,5.69C430.52,142.9,428.92,142.22,427.05,141.38Z" fill="#21e09d"/>
      <path id="Path_650" data-name="Path 650" d="M377.51,183.42c-1.38.35-2.72.32-3.57,1-4.35,3.26-8.89,2.93-13.42.75a39.172,39.172,0,0,1-7-4.33c-3.25-2.49-3.33-3.42-1.24-6.87,1-1.7,2.36-3.26,3.22-5,.47-1,.72-2.63.2-3.36s-2.15-1.12-3.26-1.08a22.831,22.831,0,0,0-4.35,1.07c-5.42,1.36-10,0-13.13-4.71a107.275,107.275,0,0,1-6.87-12.43c-.52-1.09.13-2.83.42-4.23.52-2.53,1.69-5,1.69-7.56,0-5.19-3-7.69-8.15-7.51-6.61.23-7.37,0-8.6-6.4-1.73-9-2.93-18-4.36-27.06l1-.45c1.21.78,2.47,1.5,3.62,2.36,9.7,7.22,17.73,16.11,25.25,25.5C354,141.82,366.25,162.4,377.51,183.42Z" fill="#21e09d"/>
      <path id="Path_651" data-name="Path 651" d="M159,280.45c.57,3.49,1.11,6.78,1.7,10.41H3.31V280.45Z" fill="#fff"/>
      <path id="Path_653" data-name="Path 653" d="M229.27,114.57c-1,5.25-1,5.26-5.64,5.26H162.17c-4.89,0-5.16.26-5.16,5v88.43c0,4.94.13,5.06,5,5.07h17c-.54,1.73-1,3.06-1.4,4.48H150.75c-.07-1.49-.19-2.82-.19-4.15v-96.3c0-6.43,1.43-7.83,8-7.83h70.73Z" fill="#fff"/>
      <path id="Path_654" data-name="Path 654" d="M353.83,290.8c.62-3.62,1.19-6.91,1.83-10.65h4.43c27.85,0,55.7.15,83.54-.14a12.33,12.33,0,0,1,10.82,5.16c1.3,1.66,2.46,3.42,4,5.63Z" fill="#fff"/>
      <path id="Path_655" data-name="Path 655" d="M454.52,280.24h74v10.89H525q-29.76,0-59.52.05c-2.54,0-4-.63-5.29-3C458.76,285.47,456.63,283.13,454.52,280.24Z" fill="#fff"/>
      <path id="Path_657" data-name="Path 657" d="M346.33,254H374.4c-1.83,2.3-3.6,4.21-5,6.36-3.72,5.71-2.22,10.19,4.42,11.29a146.882,146.882,0,0,0,22.27,1.89c9.09.12,18.2-.8,27.3-.8a39.77,39.77,0,0,1,18.67,4.14H356.4C356.48,268.1,353.68,260.5,346.33,254Z" transform="translate(-0.386)" fill="#fff"/>
      <path id="Path_659" data-name="Path 659" d="M228.71,148.72a59,59,0,0,1,3.66,6.74q3.31,8.52,6.14,17.23c.77,2.36,1.74,3.24,4.3,2.45,9.81-3,19.65-3.16,29.38.35,2.4.87,3.42-.17,4.29-2.15,3-6.84,6.1-13.65,9.19-20.46.91-2,1.67-4.51,4.6-3.85,1.67.38,2,3.7.72,6.45-1.06,2.29-2.4,4.18-5.26,4.81-1.2.27-2.38,1.92-3,3.21-2.32,4.81-4.27,9.8-6.62,14.59-1.54,3.16-4.13,4.53-7.92,4.38-7.35-.3-14.72-.17-22.08,0A5.83,5.83,0,0,1,241,180c-3.76-4.63-6.6-9.68-7.36-15.69-.24-1.87-.73-3-2.95-2.87-3.51.18-4.64-2.37-5.32-5.19C224.54,152.74,225.25,151,228.71,148.72Z" fill="#fff"/>
      <path id="Path_660" data-name="Path 660" d="M285.5,190.34c-.74,3.36-2.48,4.32-5.68,4.28-14.75-.22-29.49-.14-44.24-.17-1.69,0-3.53.45-4.32-1.86s1.15-3.07,2.38-4.12a41.068,41.068,0,0,1,4-2.77,5,5,0,0,1,4.78-.57c2.54.74,5.43.39,8.17.38,6.25,0,12.49-.08,18.74-.14a5.221,5.221,0,0,0,1.86-.05C277.63,182.63,281.21,187.5,285.5,190.34Z" fill="#fff"/>
      <path id="Path_661" data-name="Path 661" d="M150.57,226.26H176.4c-.91,4.48-1.67,8.75-2.72,12.94a3.08,3.08,0,0,1-2.4,1.6c-5,.15-10,.2-15,0-3.61-.12-5.61-2.36-5.73-6C150.49,232.07,150.57,229.35,150.57,226.26Z" fill="#fff"/>
      <path id="Path_662" data-name="Path 662" d="M363.33,222.89H339.21c-.47-1.2-1-2.53-1.8-4.51h8.83c11.35-.13,9.7,1.54,9.8-10,.07-7,0-13.92,0-21.41l7.27,2.76Z" fill="#fff"/>
      <path id="Path_663" data-name="Path 663" d="M336.53,114.58c7.41,0,14.37-.1,21.33,0,3.55.07,5.65,2.37,5.67,6.09.08,10.23,0,20.46-.37,30.87-2.58-4.65-7.49-8-7.15-14.24.24-4.36.07-8.73,0-13.1,0-4.11-.31-4.37-4.56-4.41a42.161,42.161,0,0,0-6.36,0C341,120.48,338.52,118.66,336.53,114.58Z" fill="#fff"/>
      <path id="Path_664" data-name="Path 664" d="M340.24,226.21h23.19a83.228,83.228,0,0,1-.09,10c-.36,2.89-2.57,4.55-5.5,4.65q-6.345.21-12.68,0a3,3,0,0,1-2.22-1.78C341.92,234.92,341.17,230.77,340.24,226.21Z" fill="#fff"/>
      <ellipse id="Ellipse_19" data-name="Ellipse 19" cx="14.23" cy="1.36" rx="14.23" ry="1.36" transform="translate(106.1 228.52)" fill="#fff"/>
      <path id="Path_672" data-name="Path 672" d="M19,0H153a19,19,0,0,1,19,19l-7.945,39.393c0,.079.072.108,0,0L19.436,58.042c-.2.1-13.824-.1-13.824.1L0,19A19,19,0,0,1,19,0Z" transform="translate(171.044 262)" fill="#06357d"/>
    </g>
  </g>
</svg>
