<svg id="icons8_twitter_circled" xmlns="http://www.w3.org/2000/svg" width="40" height="40" viewBox="0 0 40 40">
  <path id="Path_134" data-name="Path 134" d="M24,4A20,20,0,1,0,44,24,20,20,0,0,0,24,4Z" transform="translate(-4 -4)"/>
  <path id="Path_135" data-name="Path 135" d="M36,17.12A11.226,11.226,0,0,1,33,18c1.018-.6,2.633-1.862,3-3a14.315,14.315,0,0,1-3.793,1.372A4.832,4.832,0,0,0,24,20v2c-4,0-7.9-3.047-10.327-6a4.813,4.813,0,0,0-.667,2.457c0,1.819,1.671,3.665,2.994,4.543a9.281,9.281,0,0,1-3-1v.057a4.483,4.483,0,0,0,3.912,4.422,6.262,6.262,0,0,1-2.84.521c.626,1.935,3.773,2.958,5.928,3a12.636,12.636,0,0,1-7,2,7.369,7.369,0,0,1-1-.023A15.551,15.551,0,0,0,20,34c9.057,0,14-6.918,14-13.37,0-.212-.007-.922-.018-1.13A7.6,7.6,0,0,0,36,17.12" transform="translate(-4 -4)" fill="#fff"/>
</svg>
