<svg id="Component_6_1" data-name="Component 6 – 1" xmlns="http://www.w3.org/2000/svg" width="129.836" height="47.886" viewBox="0 0 129.836 47.886">
  <path id="Path_27" data-name="Path 27" d="M64.737,59.909a3.212,3.212,0,1,0,1.575,2.764A3.21,3.21,0,0,0,64.737,59.909ZM63.1,63.71a1.051,1.051,0,1,1,1.048-1.054A1.051,1.051,0,0,1,63.1,63.71Z" transform="translate(-42.842 -42.539)" fill="#fff"/>
  <path id="Path_24" data-name="Path 24" d="M357.9,24.856a2.643,2.643,0,0,1-.017.285.982.982,0,0,1-.014.128,1.843,1.843,0,0,1-.054.345,3.671,3.671,0,0,1-4.317,2.942,3.719,3.719,0,0,1-2.848-3.7,2.938,2.938,0,0,1,.017-.316l.014-.134a1.61,1.61,0,0,1,.051-.322,3.827,3.827,0,0,1,.416-1.116A3.651,3.651,0,0,1,354.3,21.06h0a3.466,3.466,0,0,1,.74.08,3.577,3.577,0,0,1,2.392,1.825A3.9,3.9,0,0,1,357.9,24.856Z" transform="translate(-250.785 -15.063)" fill="#21e09d"/>
  <path id="Union_2" data-name="Union 2" d="M73.727,34.9l-.333-.057-.239-.048a10.8,10.8,0,0,1-2.417-.82,10.658,10.658,0,0,1-1.748-1.042,10.892,10.892,0,0,1-3.856-5.223,10.435,10.435,0,0,1-.481-1.968A10.177,10.177,0,0,1,64.56,23.4v-.023l.08-.752v-.023l.265-2.52H62.157l.569-5.3.2-1.888h2.748l.6-5.7.2-1.888.2-1.9H73.96l-.2,1.9-.085.778L73.564,7.15v.043l-.592,5.638v.043H75.72l-.051.4-.154,1.449v.043l-.549,5.259v.043H72.195l-.339,3.249-.02.2-.04.382a5.129,5.129,0,0,0,.4,2.221,3.628,3.628,0,0,0,5.906.78l3.807,5.991-.068.051a10.9,10.9,0,0,1-3.893,1.8c-.285.068-.552.123-.834.165a10.718,10.718,0,0,1-3.386,0Zm-27.479,0,.208-1.968L47,27.713h2.753l.205-1.968.6-5.7H35.979l-.068.652-.529,5.029L35.173,27.7h2.748l-.55,5.222-.208,1.968H24.381l.205-1.968.55-5.222h2.745l.208-1.968.6-5.7H25.939l.569-5.3.2-1.888h2.748l.285-2.717a.15.15,0,0,1,0-.034l.086-.786a.106.106,0,0,1,0-.031c.034-.228.074-.453.122-.681a11.246,11.246,0,0,1,.407-1.424,10.833,10.833,0,0,1,.894-1.868A10.67,10.67,0,0,1,32.7,3.4,10.9,10.9,0,0,1,38.052.3,10.722,10.722,0,0,1,40.829.02a10.919,10.919,0,0,1,2.019.236,10.67,10.67,0,0,1,2.415.817,10.785,10.785,0,0,1,3.221,2.338c.04.043.083.085.119.131L46.649,5.316,44.63,7.147l-.051.046L43.272,8.38a3.627,3.627,0,0,0-2.685-1.187h-.513V7.23a3.623,3.623,0,0,0-3.033,2.848.985.985,0,0,1-.028.157,2.933,2.933,0,0,0-.046.441l-.231,2.19h21.87l-.2,1.9-.569,5.3-.6,5.7-.208,1.968,2.757-.023-.547,5.223L59.033,34.9ZM0,34.9l.208-1.968.524-5.2L.94,25.768l.6-5.7.569-5.3.185-1.885.6-5.7H.142L.342,5.3.911,0H10.952l-.569,5.3-.2,1.888-.6,5.7-.128,1.23V14.2a10.3,10.3,0,0,1,5.784-1.261,7.769,7.769,0,0,1,1.6.339,9.22,9.22,0,0,1,2.865,1.492,8.537,8.537,0,0,1,.814.706A8.644,8.644,0,0,1,22.9,20.064a12.219,12.219,0,0,1,.054,4.021,14.11,14.11,0,0,1-.356,1.66,16.24,16.24,0,0,1-.675,1.968,13.48,13.48,0,0,1-3.673,5.223,8.257,8.257,0,0,1-3.656,1.786,7.471,7.471,0,0,1-.962.137,9.3,9.3,0,0,1-6.154-1.791l.014-.131H7.276l.2.131v.063L7.29,34.9ZM8.845,19.885l-.017.165-.6,5.7-.205,1.968v.1a5.113,5.113,0,0,0,3.445.769,3.787,3.787,0,0,0,2.139-.871,5.741,5.741,0,0,0,1.5-1.968,6.83,6.83,0,0,0,.6-1.893,4.283,4.283,0,0,0-1.13-3.782,4.212,4.212,0,0,0-2.415-1.139q-.187-.014-.374-.014A4.978,4.978,0,0,0,8.845,19.885Z" transform="translate(47.928 2.6)" fill="#fff"/>
  <path id="Union_3" data-name="Union 3" d="M12.88,39.117a19.943,19.943,0,0,1-3.272-1.643,20.261,20.261,0,0,1-6.567-6.567,19.759,19.759,0,0,1-1.623-3.223A20.241,20.241,0,0,1,17.049.253q.8-.128,1.623-.191C19.2.02,19.725,0,20.261,0S21.369.023,21.9.066s1.057.105,1.575.188A20.263,20.263,0,0,1,39.1,27.676,19.961,19.961,0,0,1,37.48,30.9a20.31,20.31,0,0,1-6.57,6.569,20.044,20.044,0,0,1-5.817,2.446l-.3.071a5.253,5.253,0,0,1-1.025.1h-.285a4.988,4.988,0,0,1-1.575-.347,5.081,5.081,0,0,1-3.221-4.735V27.454a7.3,7.3,0,0,0,1.589.174,7.2,7.2,0,0,0,1.635-.185v7.5a1.862,1.862,0,0,0,1.575,1.842,1.675,1.675,0,0,0,.285.026,1.972,1.972,0,0,0,.367-.034l.188-.048a16.947,16.947,0,0,0,6.589-3.263A16.978,16.978,0,0,0,23.47,3.577,15.882,15.882,0,0,0,21.9,3.352a16.243,16.243,0,0,0-1.634-.08q-.8,0-1.589.074c-.524.048-1.091.128-1.623.231a16.983,16.983,0,0,0,0,33.357v3.323A20.181,20.181,0,0,1,12.88,39.117ZM23.467,27.012a7.381,7.381,0,0,0,0-13.29,7.064,7.064,0,0,0-1.575-.55,7.2,7.2,0,0,0-1.635-.185,7.3,7.3,0,0,0-1.589.174,7.021,7.021,0,0,0-1.623.569,7.375,7.375,0,0,0,0,13.284v3.511a10.672,10.672,0,0,1-4.169-2.48c-.085-.082-.171-.165-.25-.25a10.653,10.653,0,0,1,4.422-17.587,10.949,10.949,0,0,1,1.623-.376,10.819,10.819,0,0,1,1.589-.117,10.662,10.662,0,0,1,1.634.125,10.39,10.39,0,0,1,1.575.367,10.655,10.655,0,0,1,1.136,19.885,10.25,10.25,0,0,1-1.139.433Z" fill="#21e09d"/>
  <path id="Path_110" data-name="Path 110" d="M5.267-24.257a.709.709,0,0,1-.075.329.749.749,0,0,1-.2.246.9.9,0,0,1-.3.154,1.212,1.212,0,0,1-.364.053H2.88v-3.037H4.446a.6.6,0,0,1,.287.068.716.716,0,0,1,.218.178.814.814,0,0,1,.139.248.835.835,0,0,1,.049.28.815.815,0,0,1-.113.417.692.692,0,0,1-.323.289.772.772,0,0,1,.413.28A.8.8,0,0,1,5.267-24.257Zm-.492-.09a.507.507,0,0,0-.032-.18.513.513,0,0,0-.086-.15.4.4,0,0,0-.13-.1.368.368,0,0,0-.167-.038h-1v.928H4.33a.424.424,0,0,0,.175-.036.449.449,0,0,0,.141-.1.456.456,0,0,0,.094-.145A.463.463,0,0,0,4.775-24.347ZM3.359-26.1v.894H4.24a.391.391,0,0,0,.165-.034.451.451,0,0,0,.133-.092.4.4,0,0,0,.09-.139.485.485,0,0,0,.032-.18.47.47,0,0,0-.111-.323.36.36,0,0,0-.282-.126ZM6.4-23.432a.633.633,0,0,1-.53-.229,1.092,1.092,0,0,1-.18-.682v-1.369h.471v1.275q0,.6.428.6a.659.659,0,0,0,.381-.124.8.8,0,0,0,.278-.359v-1.394h.471v1.681a.185.185,0,0,0,.028.115.135.135,0,0,0,.1.038v.4q-.073.013-.12.017t-.09,0a.342.342,0,0,1-.218-.071.233.233,0,0,1-.094-.182l-.009-.222a1,1,0,0,1-.389.37A1.111,1.111,0,0,1,6.4-23.432Zm2.729,0a1.713,1.713,0,0,1-.537-.088,1.361,1.361,0,0,1-.46-.25l.188-.3a1.737,1.737,0,0,0,.4.22,1.122,1.122,0,0,0,.4.075.591.591,0,0,0,.331-.081.261.261,0,0,0,.122-.231.214.214,0,0,0-.137-.205,2.739,2.739,0,0,0-.428-.141q-.21-.056-.359-.107a.925.925,0,0,1-.244-.12.42.42,0,0,1-.137-.158.5.5,0,0,1-.043-.218.67.67,0,0,1,.066-.3.652.652,0,0,1,.184-.225.824.824,0,0,1,.276-.139,1.2,1.2,0,0,1,.342-.047,1.4,1.4,0,0,1,.471.077,1.224,1.224,0,0,1,.389.222l-.2.282a1.049,1.049,0,0,0-.663-.248.566.566,0,0,0-.3.075.258.258,0,0,0-.122.237.238.238,0,0,0,.026.115.218.218,0,0,0,.083.081.687.687,0,0,0,.15.062q.092.028.229.062.227.056.391.111a1.072,1.072,0,0,1,.272.13.484.484,0,0,1,.158.175.526.526,0,0,1,.051.242.605.605,0,0,1-.242.507A1.05,1.05,0,0,1,9.125-23.432Zm1.309-.043v-2.237H10.9v2.237Zm0-2.6V-26.6H10.9v.518Zm3.041,2.6H13v-1.253a.817.817,0,0,0-.1-.46.34.34,0,0,0-.3-.143.581.581,0,0,0-.205.038.719.719,0,0,0-.192.109.85.85,0,0,0-.16.167.764.764,0,0,0-.109.212v1.33h-.471v-2.237H11.9v.449a.909.909,0,0,1,.372-.357,1.124,1.124,0,0,1,.539-.13.663.663,0,0,1,.329.073.544.544,0,0,1,.2.2.87.87,0,0,1,.1.291,1.947,1.947,0,0,1,.03.349Zm1.561.043a1.19,1.19,0,0,1-.475-.092,1.105,1.105,0,0,1-.366-.25,1.128,1.128,0,0,1-.235-.368,1.192,1.192,0,0,1-.083-.445,1.208,1.208,0,0,1,.083-.447,1.147,1.147,0,0,1,.235-.372,1.089,1.089,0,0,1,.366-.252,1.2,1.2,0,0,1,.479-.092,1.151,1.151,0,0,1,.473.094,1.13,1.13,0,0,1,.361.25,1.071,1.071,0,0,1,.229.364,1.208,1.208,0,0,1,.079.434q0,.051,0,.1t-.009.075H14.378a.766.766,0,0,0,.071.269.709.709,0,0,0,.15.207.652.652,0,0,0,.21.135.656.656,0,0,0,.246.047.748.748,0,0,0,.186-.024.656.656,0,0,0,.169-.068.6.6,0,0,0,.137-.109.509.509,0,0,0,.094-.141l.4.115a.932.932,0,0,1-.383.413A1.186,1.186,0,0,1,15.036-23.432Zm.68-1.33a.752.752,0,0,0-.071-.261.672.672,0,0,0-.148-.2.658.658,0,0,0-.21-.13.684.684,0,0,0-.252-.047.667.667,0,0,0-.25.047.665.665,0,0,0-.207.13.643.643,0,0,0-.145.2.783.783,0,0,0-.068.261Zm1.664,1.33a1.713,1.713,0,0,1-.537-.088,1.361,1.361,0,0,1-.46-.25l.188-.3a1.737,1.737,0,0,0,.4.22,1.122,1.122,0,0,0,.4.075.591.591,0,0,0,.331-.081.262.262,0,0,0,.122-.231.214.214,0,0,0-.137-.205,2.739,2.739,0,0,0-.428-.141q-.21-.056-.359-.107a.925.925,0,0,1-.244-.12.42.42,0,0,1-.137-.158.5.5,0,0,1-.043-.218.67.67,0,0,1,.066-.3.652.652,0,0,1,.184-.225A.824.824,0,0,1,17-25.7a1.2,1.2,0,0,1,.342-.047,1.4,1.4,0,0,1,.471.077,1.224,1.224,0,0,1,.389.222l-.2.282a1.049,1.049,0,0,0-.663-.248.566.566,0,0,0-.3.075.258.258,0,0,0-.122.237.238.238,0,0,0,.026.115.218.218,0,0,0,.083.081.687.687,0,0,0,.15.062q.092.028.229.062.227.056.391.111a1.072,1.072,0,0,1,.272.13.484.484,0,0,1,.158.175.526.526,0,0,1,.051.242.605.605,0,0,1-.242.507A1.05,1.05,0,0,1,17.38-23.432Zm2.122,0a1.713,1.713,0,0,1-.537-.088,1.361,1.361,0,0,1-.46-.25l.188-.3a1.737,1.737,0,0,0,.4.22,1.122,1.122,0,0,0,.4.075.591.591,0,0,0,.331-.081.262.262,0,0,0,.122-.231.214.214,0,0,0-.137-.205,2.739,2.739,0,0,0-.428-.141q-.21-.056-.359-.107a.925.925,0,0,1-.244-.12.42.42,0,0,1-.137-.158.5.5,0,0,1-.043-.218.67.67,0,0,1,.066-.3.652.652,0,0,1,.184-.225.824.824,0,0,1,.276-.139,1.2,1.2,0,0,1,.342-.047,1.4,1.4,0,0,1,.471.077,1.224,1.224,0,0,1,.389.222l-.2.282a1.049,1.049,0,0,0-.663-.248.566.566,0,0,0-.3.075.258.258,0,0,0-.122.237.238.238,0,0,0,.026.115.218.218,0,0,0,.083.081.687.687,0,0,0,.15.062q.092.028.229.062.227.056.391.111a1.071,1.071,0,0,1,.272.13.484.484,0,0,1,.158.175.526.526,0,0,1,.051.242.605.605,0,0,1-.242.507A1.05,1.05,0,0,1,19.5-23.432Zm4.427-.043-.278-.291a1.379,1.379,0,0,1-.413.248,1.3,1.3,0,0,1-.468.086,1.157,1.157,0,0,1-.406-.068.993.993,0,0,1-.317-.186.821.821,0,0,1-.205-.278.814.814,0,0,1-.073-.34.786.786,0,0,1,.045-.269.943.943,0,0,1,.122-.231,1.168,1.168,0,0,1,.18-.2,2.394,2.394,0,0,1,.214-.167,2.408,2.408,0,0,1-.165-.2,1.25,1.25,0,0,1-.107-.169.744.744,0,0,1-.06-.154.624.624,0,0,1-.019-.156.654.654,0,0,1,.062-.284.691.691,0,0,1,.169-.225.757.757,0,0,1,.255-.145.964.964,0,0,1,.319-.051,1.012,1.012,0,0,1,.3.043.779.779,0,0,1,.248.124.585.585,0,0,1,.169.2.6.6,0,0,1,.062.276.6.6,0,0,1-.045.235.854.854,0,0,1-.122.2,1.3,1.3,0,0,1-.182.184,2.8,2.8,0,0,1-.225.169l.684.719a1.543,1.543,0,0,0,.113-.323,1.617,1.617,0,0,0,.041-.37h.385a2.114,2.114,0,0,1-.073.537,1.658,1.658,0,0,1-.192.443l.607.633ZM22.821-23.8a.806.806,0,0,0,.306-.06.927.927,0,0,0,.272-.171l-.787-.834a1.325,1.325,0,0,0-.282.261.487.487,0,0,0-.107.308.439.439,0,0,0,.047.2.458.458,0,0,0,.13.156.656.656,0,0,0,.19.1A.713.713,0,0,0,22.821-23.8Zm-.411-2.053a.275.275,0,0,0,.013.083.414.414,0,0,0,.045.092.86.86,0,0,0,.09.115l.143.158a1.8,1.8,0,0,0,.31-.237.347.347,0,0,0,.113-.25.277.277,0,0,0-.1-.22.362.362,0,0,0-.246-.083.37.37,0,0,0-.267.1A.323.323,0,0,0,22.411-25.857Zm3.55,2.383v-3.037h2.023v.423H26.44v.907h1.292v.4H26.44v1.309Zm3.276.043a1.162,1.162,0,0,1-.477-.094,1.113,1.113,0,0,1-.361-.252,1.112,1.112,0,0,1-.231-.37,1.225,1.225,0,0,1-.081-.443,1.225,1.225,0,0,1,.081-.443,1.1,1.1,0,0,1,.233-.37,1.138,1.138,0,0,1,.364-.252,1.151,1.151,0,0,1,.473-.094,1.151,1.151,0,0,1,.473.094,1.138,1.138,0,0,1,.364.252,1.1,1.1,0,0,1,.233.37,1.225,1.225,0,0,1,.081.443,1.225,1.225,0,0,1-.081.443,1.1,1.1,0,0,1-.233.37,1.138,1.138,0,0,1-.364.252A1.151,1.151,0,0,1,29.237-23.432Zm-.667-1.155a.846.846,0,0,0,.051.3.744.744,0,0,0,.141.237.66.66,0,0,0,.212.158.607.607,0,0,0,.263.058.607.607,0,0,0,.263-.058.646.646,0,0,0,.212-.16.771.771,0,0,0,.141-.24.846.846,0,0,0,.051-.3.852.852,0,0,0-.051-.3.766.766,0,0,0-.141-.242.646.646,0,0,0-.212-.16.607.607,0,0,0-.263-.058.579.579,0,0,0-.259.06.673.673,0,0,0-.212.163.8.8,0,0,0-.143.242A.821.821,0,0,0,28.57-24.587Zm3.242,1.155a1.162,1.162,0,0,1-.477-.094,1.113,1.113,0,0,1-.361-.252,1.112,1.112,0,0,1-.231-.37,1.225,1.225,0,0,1-.081-.443,1.225,1.225,0,0,1,.081-.443,1.1,1.1,0,0,1,.233-.37,1.138,1.138,0,0,1,.364-.252,1.151,1.151,0,0,1,.473-.094,1.151,1.151,0,0,1,.473.094,1.138,1.138,0,0,1,.364.252,1.1,1.1,0,0,1,.233.37,1.225,1.225,0,0,1,.081.443,1.225,1.225,0,0,1-.081.443,1.1,1.1,0,0,1-.233.37,1.138,1.138,0,0,1-.364.252A1.151,1.151,0,0,1,31.812-23.432Zm-.667-1.155a.846.846,0,0,0,.051.3.744.744,0,0,0,.141.237.66.66,0,0,0,.212.158.607.607,0,0,0,.263.058.607.607,0,0,0,.263-.058.646.646,0,0,0,.212-.16.771.771,0,0,0,.141-.24.846.846,0,0,0,.051-.3.851.851,0,0,0-.051-.3.765.765,0,0,0-.141-.242.646.646,0,0,0-.212-.16.607.607,0,0,0-.263-.058.579.579,0,0,0-.259.06.673.673,0,0,0-.212.163.8.8,0,0,0-.143.242A.821.821,0,0,0,31.145-24.587Zm3.148,1.155a.96.96,0,0,1-.419-.092,1.048,1.048,0,0,1-.334-.25,1.159,1.159,0,0,1-.22-.37,1.291,1.291,0,0,1-.079-.456,1.294,1.294,0,0,1,.075-.443,1.172,1.172,0,0,1,.21-.366,1.013,1.013,0,0,1,.317-.25.873.873,0,0,1,.4-.092.866.866,0,0,1,.475.13.95.95,0,0,1,.321.331V-26.6h.471v2.566a.185.185,0,0,0,.028.115.135.135,0,0,0,.1.038v.4q-.073.013-.118.017t-.075,0a.355.355,0,0,1-.231-.073.257.257,0,0,1-.1-.188l-.009-.167a.892.892,0,0,1-.338.329A.955.955,0,0,1,34.293-23.432Zm.115-.4a.646.646,0,0,0,.205-.034.727.727,0,0,0,.188-.094.661.661,0,0,0,.148-.141.507.507,0,0,0,.088-.175v-.586a.7.7,0,0,0-.109-.2.78.78,0,0,0-.16-.154.732.732,0,0,0-.19-.1.627.627,0,0,0-.2-.034.532.532,0,0,0-.259.064.668.668,0,0,0-.2.171.844.844,0,0,0-.135.244.829.829,0,0,0-.049.282.792.792,0,0,0,.053.291.759.759,0,0,0,.148.24.724.724,0,0,0,.216.163A.589.589,0,0,0,34.409-23.834Zm2.815.359v-3.037H37.7v3.037Zm3.11,0h-.471v-1.253a.817.817,0,0,0-.1-.46.34.34,0,0,0-.3-.143.581.581,0,0,0-.205.038.719.719,0,0,0-.192.109.85.85,0,0,0-.16.167.764.764,0,0,0-.109.212v1.33h-.471v-2.237h.428v.449a.909.909,0,0,1,.372-.357,1.124,1.124,0,0,1,.539-.13.663.663,0,0,1,.329.073.544.544,0,0,1,.2.2.87.87,0,0,1,.1.291,1.948,1.948,0,0,1,.03.349Zm.654,0v-1.818h-.3v-.364h.3v-.09a1.016,1.016,0,0,1,.192-.654.634.634,0,0,1,.522-.24,1.015,1.015,0,0,1,.269.036,1.211,1.211,0,0,1,.252.1l-.1.351a.649.649,0,0,0-.152-.064.6.6,0,0,0-.169-.026.292.292,0,0,0-.255.124.619.619,0,0,0-.088.359v.1h.573v.364h-.573v1.818Zm2.288.043a1.162,1.162,0,0,1-.477-.094,1.113,1.113,0,0,1-.361-.252,1.112,1.112,0,0,1-.231-.37,1.225,1.225,0,0,1-.081-.443,1.225,1.225,0,0,1,.081-.443,1.1,1.1,0,0,1,.233-.37,1.138,1.138,0,0,1,.364-.252,1.151,1.151,0,0,1,.473-.094,1.151,1.151,0,0,1,.473.094,1.138,1.138,0,0,1,.364.252,1.1,1.1,0,0,1,.233.37,1.225,1.225,0,0,1,.081.443,1.225,1.225,0,0,1-.081.443,1.1,1.1,0,0,1-.233.37,1.138,1.138,0,0,1-.364.252A1.151,1.151,0,0,1,43.276-23.432Zm-.667-1.155a.846.846,0,0,0,.051.3.744.744,0,0,0,.141.237.66.66,0,0,0,.212.158.607.607,0,0,0,.263.058.607.607,0,0,0,.263-.058.646.646,0,0,0,.212-.16.771.771,0,0,0,.141-.24.846.846,0,0,0,.051-.3.851.851,0,0,0-.051-.3.765.765,0,0,0-.141-.242.646.646,0,0,0-.212-.16.607.607,0,0,0-.263-.058.579.579,0,0,0-.259.06.673.673,0,0,0-.212.163.8.8,0,0,0-.143.242A.821.821,0,0,0,42.609-24.587Zm3.495-.719a1.052,1.052,0,0,0-.485.126.665.665,0,0,0-.3.336v1.369h-.471v-2.237h.436v.5a1.023,1.023,0,0,1,.3-.37.731.731,0,0,1,.4-.152h.071a.253.253,0,0,1,.049,0Zm3.764,1.831H49.4v-1.253a.8.8,0,0,0-.1-.458.343.343,0,0,0-.3-.145.535.535,0,0,0-.366.148.831.831,0,0,0-.237.383v1.326h-.471v-1.253a.8.8,0,0,0-.1-.46.341.341,0,0,0-.3-.143.547.547,0,0,0-.368.145.809.809,0,0,0-.24.381v1.33h-.471v-2.237h.428v.449a.945.945,0,0,1,.349-.361.961.961,0,0,1,.494-.126.628.628,0,0,1,.438.145.623.623,0,0,1,.2.364,1.024,1.024,0,0,1,.355-.379.918.918,0,0,1,.488-.13.65.65,0,0,1,.327.075.579.579,0,0,1,.207.2.82.82,0,0,1,.107.289,1.947,1.947,0,0,1,.03.349Zm1.138.043a.833.833,0,0,1-.3-.053.729.729,0,0,1-.24-.148.688.688,0,0,1-.158-.222.67.67,0,0,1-.058-.278.6.6,0,0,1,.068-.287.67.67,0,0,1,.195-.222.945.945,0,0,1,.3-.145,1.344,1.344,0,0,1,.383-.051,1.754,1.754,0,0,1,.312.028,1.573,1.573,0,0,1,.278.075v-.154a.519.519,0,0,0-.141-.387.555.555,0,0,0-.406-.139.98.98,0,0,0-.353.066,1.785,1.785,0,0,0-.357.19l-.145-.3a1.586,1.586,0,0,1,.9-.291,1.024,1.024,0,0,1,.719.235.871.871,0,0,1,.257.676v.808q0,.15.124.154v.4q-.068.013-.118.017t-.1,0a.3.3,0,0,1-.212-.068.293.293,0,0,1-.092-.175l-.013-.141a1,1,0,0,1-.37.3A1.086,1.086,0,0,1,51.005-23.432Zm.128-.346a.846.846,0,0,0,.323-.062.557.557,0,0,0,.237-.173.217.217,0,0,0,.09-.163v-.3a1.422,1.422,0,0,0-.255-.073,1.4,1.4,0,0,0-.263-.026.719.719,0,0,0-.413.109.334.334,0,0,0-.16.289.364.364,0,0,0,.124.28A.451.451,0,0,0,51.133-23.778Zm2.917.188a2.359,2.359,0,0,1-.248.1,1.049,1.049,0,0,1-.338.053.716.716,0,0,1-.21-.03.513.513,0,0,1-.173-.09.408.408,0,0,1-.118-.156.572.572,0,0,1-.043-.233v-1.4h-.3v-.364h.3v-.736h.471v.736h.488v.364h-.488V-24.1a.232.232,0,0,0,.075.173.254.254,0,0,0,.165.053.524.524,0,0,0,.188-.034q.09-.034.133-.056Zm.325.115v-2.237h.471v2.237Zm0-2.6V-26.6h.471v.518Zm2.04,2.648a1.162,1.162,0,0,1-.477-.094,1.113,1.113,0,0,1-.361-.252,1.112,1.112,0,0,1-.231-.37,1.225,1.225,0,0,1-.081-.443,1.225,1.225,0,0,1,.081-.443,1.1,1.1,0,0,1,.233-.37,1.138,1.138,0,0,1,.364-.252,1.151,1.151,0,0,1,.473-.094,1.151,1.151,0,0,1,.473.094,1.138,1.138,0,0,1,.364.252,1.1,1.1,0,0,1,.233.37,1.225,1.225,0,0,1,.081.443,1.225,1.225,0,0,1-.081.443,1.1,1.1,0,0,1-.233.37,1.138,1.138,0,0,1-.364.252A1.151,1.151,0,0,1,56.416-23.432Zm-.667-1.155a.846.846,0,0,0,.051.3.744.744,0,0,0,.141.237.66.66,0,0,0,.212.158.607.607,0,0,0,.263.058.607.607,0,0,0,.263-.058.646.646,0,0,0,.212-.16.771.771,0,0,0,.141-.24.846.846,0,0,0,.051-.3.852.852,0,0,0-.051-.3.765.765,0,0,0-.141-.242.646.646,0,0,0-.212-.16.607.607,0,0,0-.263-.058.579.579,0,0,0-.259.06.673.673,0,0,0-.212.163.8.8,0,0,0-.143.242A.821.821,0,0,0,55.749-24.587Zm4.243,1.112h-.471v-1.253a.817.817,0,0,0-.1-.46.34.34,0,0,0-.3-.143.581.581,0,0,0-.205.038.719.719,0,0,0-.192.109.85.85,0,0,0-.16.167.764.764,0,0,0-.109.212v1.33h-.471v-2.237h.428v.449a.909.909,0,0,1,.372-.357,1.124,1.124,0,0,1,.539-.13.663.663,0,0,1,.329.073.544.544,0,0,1,.2.2.87.87,0,0,1,.1.291,1.948,1.948,0,0,1,.03.349Zm3.773-2.613H62.755v2.613h-.483v-2.613H61.258v-.423h2.507Zm.873,2.656a1.19,1.19,0,0,1-.475-.092,1.1,1.1,0,0,1-.366-.25,1.128,1.128,0,0,1-.235-.368,1.192,1.192,0,0,1-.083-.445,1.209,1.209,0,0,1,.083-.447,1.147,1.147,0,0,1,.235-.372,1.089,1.089,0,0,1,.366-.252,1.2,1.2,0,0,1,.479-.092,1.151,1.151,0,0,1,.473.094,1.13,1.13,0,0,1,.361.25,1.07,1.07,0,0,1,.229.364,1.208,1.208,0,0,1,.079.434q0,.051,0,.1t-.009.075H63.978a.766.766,0,0,0,.071.269.709.709,0,0,0,.15.207.652.652,0,0,0,.21.135.656.656,0,0,0,.246.047.748.748,0,0,0,.186-.024.656.656,0,0,0,.169-.068.6.6,0,0,0,.137-.109.509.509,0,0,0,.094-.141l.4.115a.932.932,0,0,1-.383.413A1.186,1.186,0,0,1,64.637-23.432Zm.68-1.33a.752.752,0,0,0-.071-.261.672.672,0,0,0-.148-.2.658.658,0,0,0-.21-.13.684.684,0,0,0-.252-.047.668.668,0,0,0-.25.047.665.665,0,0,0-.207.13.643.643,0,0,0-.145.2.783.783,0,0,0-.068.261Zm.706.167a1.22,1.22,0,0,1,.081-.445,1.1,1.1,0,0,1,.233-.368,1.105,1.105,0,0,1,.366-.25,1.2,1.2,0,0,1,.479-.092,1.128,1.128,0,0,1,.6.152.963.963,0,0,1,.374.4l-.458.145a.588.588,0,0,0-.218-.22.6.6,0,0,0-.3-.079.626.626,0,0,0-.263.056.634.634,0,0,0-.212.156.744.744,0,0,0-.141.237.859.859,0,0,0-.051.3.833.833,0,0,0,.053.3.775.775,0,0,0,.145.242.67.67,0,0,0,.214.16.6.6,0,0,0,.259.058.643.643,0,0,0,.171-.024.613.613,0,0,0,.156-.066.608.608,0,0,0,.124-.1.372.372,0,0,0,.079-.12l.462.137a.915.915,0,0,1-.372.413,1.153,1.153,0,0,1-.616.16,1.166,1.166,0,0,1-.475-.094,1.116,1.116,0,0,1-.366-.255,1.153,1.153,0,0,1-.235-.37A1.192,1.192,0,0,1,66.023-24.6Zm4.543,1.121H70.1v-1.253a.769.769,0,0,0-.109-.456.367.367,0,0,0-.314-.148.537.537,0,0,0-.2.038.707.707,0,0,0-.186.109.83.83,0,0,0-.156.167.711.711,0,0,0-.1.212v1.33H68.56V-26.6h.471v1.335a.929.929,0,0,1,.349-.359.939.939,0,0,1,.481-.128.7.7,0,0,1,.344.075.6.6,0,0,1,.216.2.8.8,0,0,1,.113.289,1.821,1.821,0,0,1,.032.349Zm2.554,0h-.471v-1.253a.817.817,0,0,0-.1-.46.34.34,0,0,0-.3-.143.581.581,0,0,0-.205.038.719.719,0,0,0-.192.109.85.85,0,0,0-.16.167.764.764,0,0,0-.109.212v1.33h-.471v-2.237h.428v.449a.909.909,0,0,1,.372-.357,1.124,1.124,0,0,1,.539-.13.663.663,0,0,1,.329.073.544.544,0,0,1,.2.2.87.87,0,0,1,.1.291,1.946,1.946,0,0,1,.03.349Zm1.553.043a1.162,1.162,0,0,1-.477-.094,1.113,1.113,0,0,1-.361-.252,1.112,1.112,0,0,1-.231-.37,1.225,1.225,0,0,1-.081-.443,1.225,1.225,0,0,1,.081-.443,1.1,1.1,0,0,1,.233-.37,1.138,1.138,0,0,1,.364-.252,1.151,1.151,0,0,1,.473-.094,1.151,1.151,0,0,1,.473.094,1.138,1.138,0,0,1,.364.252,1.1,1.1,0,0,1,.233.37,1.225,1.225,0,0,1,.081.443,1.225,1.225,0,0,1-.081.443,1.1,1.1,0,0,1-.233.37,1.138,1.138,0,0,1-.364.252A1.151,1.151,0,0,1,74.672-23.432ZM74-24.587a.846.846,0,0,0,.051.3.744.744,0,0,0,.141.237.66.66,0,0,0,.212.158.607.607,0,0,0,.263.058.607.607,0,0,0,.263-.058.646.646,0,0,0,.212-.16.771.771,0,0,0,.141-.24.846.846,0,0,0,.051-.3.851.851,0,0,0-.051-.3.766.766,0,0,0-.141-.242.646.646,0,0,0-.212-.16.607.607,0,0,0-.263-.058.579.579,0,0,0-.259.06.673.673,0,0,0-.212.163.8.8,0,0,0-.143.242A.821.821,0,0,0,74-24.587Zm2.241-2.01h.471v2.477a.279.279,0,0,0,.064.195.23.23,0,0,0,.18.071.417.417,0,0,0,.109-.017q.062-.017.118-.038l.068.368a1.1,1.1,0,0,1-.244.075,1.321,1.321,0,0,1-.252.028.517.517,0,0,1-.379-.133.5.5,0,0,1-.135-.376Zm2.288,3.165a1.162,1.162,0,0,1-.477-.094,1.113,1.113,0,0,1-.361-.252,1.112,1.112,0,0,1-.231-.37,1.225,1.225,0,0,1-.081-.443,1.225,1.225,0,0,1,.081-.443,1.1,1.1,0,0,1,.233-.37,1.138,1.138,0,0,1,.364-.252,1.151,1.151,0,0,1,.473-.094,1.151,1.151,0,0,1,.473.094,1.138,1.138,0,0,1,.364.252,1.1,1.1,0,0,1,.233.37,1.225,1.225,0,0,1,.081.443,1.225,1.225,0,0,1-.081.443,1.1,1.1,0,0,1-.233.37,1.138,1.138,0,0,1-.364.252A1.151,1.151,0,0,1,78.534-23.432Zm-.667-1.155a.846.846,0,0,0,.051.3.744.744,0,0,0,.141.237.66.66,0,0,0,.212.158.607.607,0,0,0,.263.058.607.607,0,0,0,.263-.058.646.646,0,0,0,.212-.16.771.771,0,0,0,.141-.24.846.846,0,0,0,.051-.3.851.851,0,0,0-.051-.3.766.766,0,0,0-.141-.242.646.646,0,0,0-.212-.16.607.607,0,0,0-.263-.058.579.579,0,0,0-.259.06.673.673,0,0,0-.212.163.8.8,0,0,0-.143.242A.821.821,0,0,0,77.867-24.587Zm3.123,1.134a.932.932,0,0,1-.415-.092.991.991,0,0,1-.323-.25,1.177,1.177,0,0,1-.21-.364,1.251,1.251,0,0,1-.075-.432,1.31,1.31,0,0,1,.077-.451,1.145,1.145,0,0,1,.214-.368,1.021,1.021,0,0,1,.327-.248.956.956,0,0,1,.421-.092.866.866,0,0,1,.473.128,1.087,1.087,0,0,1,.336.334v-.423h.415v2.173a.992.992,0,0,1-.09.432.912.912,0,0,1-.25.319,1.127,1.127,0,0,1-.379.2,1.564,1.564,0,0,1-.471.068,1.347,1.347,0,0,1-.618-.126A1.169,1.169,0,0,1,80.01-23l.265-.248a.827.827,0,0,0,.331.274,1.02,1.02,0,0,0,.434.094.97.97,0,0,0,.276-.038.638.638,0,0,0,.229-.12.578.578,0,0,0,.156-.205.694.694,0,0,0,.058-.3v-.342a.818.818,0,0,1-.329.317A.927.927,0,0,1,80.99-23.453Zm.154-.381a.588.588,0,0,0,.205-.036.723.723,0,0,0,.182-.1.708.708,0,0,0,.143-.141.511.511,0,0,0,.086-.169v-.586a.794.794,0,0,0-.111-.195.787.787,0,0,0-.156-.152.76.76,0,0,0-.186-.1.564.564,0,0,0-.2-.036.568.568,0,0,0-.276.066.664.664,0,0,0-.207.175.835.835,0,0,0-.133.246.862.862,0,0,0-.047.282.776.776,0,0,0,.053.289.739.739,0,0,0,.148.235.724.724,0,0,0,.22.16A.635.635,0,0,0,81.144-23.834Zm1.728.885q.064.013.126.021a.769.769,0,0,0,.1.009.189.189,0,0,0,.1-.024.287.287,0,0,0,.083-.083.864.864,0,0,0,.088-.169q.045-.109.1-.28l-.92-2.237h.483l.693,1.822.616-1.822h.445l-1.014,2.755a.7.7,0,0,1-.237.323.69.69,0,0,1-.434.13A.934.934,0,0,1,83-22.51a.684.684,0,0,1-.124-.028Z" transform="translate(45.048 70.389)" fill="#fff"/>
</svg>
