<svg xmlns="http://www.w3.org/2000/svg" width="107" height="107" viewBox="0 0 107 107">
  <g id="restaurants-icon" transform="translate(-1341 -2363)">
    <rect id="Rectangle_1296" data-name="Rectangle 1296" width="107" height="107" rx="53.5" transform="translate(1341 2363)" fill="#e1edff"/>
    <g id="Group_4061" data-name="Group 4061" transform="translate(-6091 232)">
      <g id="Rectangle_1286" data-name="Rectangle 1286" transform="translate(7458 2157)" fill="#fff" stroke="#707070" stroke-width="1" opacity="0">
        <rect width="56" height="56" stroke="none"/>
        <rect x="0.5" y="0.5" width="55" height="55" fill="none"/>
      </g>
      <g id="hotel" transform="translate(7458 2157)">
        <g id="Group_3997" data-name="Group 3997" transform="translate(8.683 24.923)">
          <g id="Group_3996" data-name="Group 3996">
            <path id="Path_626" data-name="Path 626" d="M84.507,230.4H77.754a.965.965,0,0,0-.965.965v9.647a.965.965,0,0,0,.965.965h6.753a.965.965,0,0,0,.965-.965v-9.647A.965.965,0,0,0,84.507,230.4Zm-.965,9.647H78.718v-7.718h4.824Z" transform="translate(-76.789 -230.404)" fill="#002d70"/>
          </g>
        </g>
        <g id="Group_3999" data-name="Group 3999" transform="translate(24.064 24.923)">
          <g id="Group_3998" data-name="Group 3998">
            <path id="Path_627" data-name="Path 627" d="M229.552,230.4H222.8a.965.965,0,0,0-.965.965v9.647a.965.965,0,0,0,.965.965h6.753a.965.965,0,0,0,.965-.965v-9.647A.965.965,0,0,0,229.552,230.4Zm-.965,9.647h-4.824v-7.718h4.824Z" transform="translate(-221.834 -230.404)" fill="#002d70"/>
          </g>
        </g>
        <g id="Group_4001" data-name="Group 4001" transform="translate(24.064 39.484)">
          <g id="Group_4000" data-name="Group 4000">
            <path id="Path_628" data-name="Path 628" d="M229.552,366.917H222.8a.965.965,0,0,0-.965.965v9.647a.965.965,0,0,0,.965.965h6.753a.965.965,0,0,0,.965-.965v-9.647A.965.965,0,0,0,229.552,366.917Zm-.965,9.647h-4.824v-7.718h4.824Z" transform="translate(-221.834 -366.917)" fill="#002d70"/>
          </g>
        </g>
        <g id="Group_4003" data-name="Group 4003" transform="translate(38.872 24.923)">
          <g id="Group_4002" data-name="Group 4002">
            <path id="Path_629" data-name="Path 629" d="M366.066,230.4h-6.753a.965.965,0,0,0-.965.965v9.647a.965.965,0,0,0,.965.965h6.753a.965.965,0,0,0,.965-.965v-9.647A.965.965,0,0,0,366.066,230.4Zm-.965,9.647h-4.824v-7.718H365.1Z" transform="translate(-358.348 -230.404)" fill="#002d70"/>
          </g>
        </g>
        <g id="Group_4005" data-name="Group 4005" transform="translate(8.683 39.484)">
          <g id="Group_4004" data-name="Group 4004">
            <path id="Path_630" data-name="Path 630" d="M84.507,366.917H77.754a.965.965,0,0,0-.965.965v9.647a.965.965,0,0,0,.965.965h6.753a.965.965,0,0,0,.965-.965v-9.647A.965.965,0,0,0,84.507,366.917Zm-.965,9.647H78.718v-7.718h4.824Z" transform="translate(-76.789 -366.917)" fill="#002d70"/>
          </g>
        </g>
        <g id="Group_4007" data-name="Group 4007" transform="translate(38.872 39.484)">
          <g id="Group_4006" data-name="Group 4006">
            <path id="Path_631" data-name="Path 631" d="M366.066,366.917h-6.753a.965.965,0,0,0-.965.965v9.647a.965.965,0,0,0,.965.965h6.753a.965.965,0,0,0,.965-.965v-9.647A.965.965,0,0,0,366.066,366.917Zm-.965,9.647h-4.824v-7.718H365.1Z" transform="translate(-358.348 -366.917)" fill="#002d70"/>
          </g>
        </g>
        <g id="Group_4009" data-name="Group 4009" transform="translate(0 0)">
          <g id="Group_4008" data-name="Group 4008">
            <path id="Path_632" data-name="Path 632" d="M52.159,54.059V22.391h.931a.931.931,0,0,0,.931-.931V16.8a.931.931,0,0,0-.931-.931h-.931V12.145a.931.931,0,0,0-.931-.931H49.365V.968a.931.931,0,0,0-.931-.931H7.451A.931.931,0,0,0,6.52.968V11.214H4.657a.931.931,0,0,0-.931.931v3.726H2.794a.931.931,0,0,0-.931.931v4.657a.931.931,0,0,0,.931.931h.931V54.058H0v1.863H55.893V54.058H52.159ZM8.383,1.9H47.5v9.314H8.383ZM5.589,13.077H50.3v2.794H5.589ZM50.3,54.059H5.589V22.391H50.3V54.059ZM4.657,20.528H3.726V17.734H52.159v2.794H4.657Z" transform="translate(0 -0.037)" fill="#002d70"/>
          </g>
        </g>
        <g id="Group_4011" data-name="Group 4011" transform="translate(20.498 3.3)">
          <g id="Group_4010" data-name="Group 4010">
            <path id="Path_633" data-name="Path 633" d="M194.741,31.156a3,3,0,0,0-.647-1.016,2.971,2.971,0,0,0-1-.671,3.357,3.357,0,0,0-1.3-.243,3.4,3.4,0,0,0-1.3.241,2.948,2.948,0,0,0-1.007.671,3.012,3.012,0,0,0-.649,1.018,3.667,3.667,0,0,0,0,2.557,3.014,3.014,0,0,0,.649,1.018,2.948,2.948,0,0,0,1.007.671,3.623,3.623,0,0,0,2.6,0,2.927,2.927,0,0,0,1-.671,3.03,3.03,0,0,0,.647-1.018,3.667,3.667,0,0,0,0-2.557Zm-1.1,2.205a1.937,1.937,0,0,1-.393.695,1.7,1.7,0,0,1-.623.436,2.332,2.332,0,0,1-1.656,0,1.719,1.719,0,0,1-.627-.436,1.946,1.946,0,0,1-.4-.695,3.16,3.16,0,0,1,0-1.854,1.967,1.967,0,0,1,.4-.7,1.708,1.708,0,0,1,.627-.438,2.332,2.332,0,0,1,1.656,0,1.693,1.693,0,0,1,.623.438,1.961,1.961,0,0,1,.393.7,3.21,3.21,0,0,1,0,1.854Z" transform="translate(-188.607 -29.226)" fill="#002d70"/>
          </g>
        </g>
        <g id="Group_4013" data-name="Group 4013" transform="translate(14.531 3.37)">
          <g id="Group_4012" data-name="Group 4012">
            <path id="Path_634" data-name="Path 634" d="M137.707,29.84v2.7h-2.943v-2.7h-1.177v6.278h1.177V33.374h2.943v2.744h1.176V29.84Z" transform="translate(-133.587 -29.84)" fill="#002d70"/>
          </g>
        </g>
        <g id="Group_4015" data-name="Group 4015" transform="translate(36.992 3.37)">
          <g id="Group_4014" data-name="Group 4014">
            <path id="Path_635" data-name="Path 635" d="M340.856,35.154V29.84h-1.168v6.278h3.682v-.964Z" transform="translate(-339.688 -29.84)" fill="#002d70"/>
          </g>
        </g>
        <g id="Group_4017" data-name="Group 4017" transform="translate(26.694 3.37)">
          <g id="Group_4016" data-name="Group 4016">
            <path id="Path_636" data-name="Path 636" d="M245.353,29.84V30.8h1.9v5.318h1.168V30.8h1.888V29.84Z" transform="translate(-245.353 -29.84)" fill="#002d70"/>
          </g>
        </g>
        <g id="Group_4019" data-name="Group 4019" transform="translate(32.198 3.37)">
          <g id="Group_4018" data-name="Group 4018">
            <path id="Path_637" data-name="Path 637" d="M299.686,30.769V29.84h-3.959v6.278h3.959v-.933H296.9V33.409H299.1v-.9H296.9V30.769Z" transform="translate(-295.727 -29.84)" fill="#002d70"/>
          </g>
        </g>
      </g>
    </g>
  </g>
</svg>
