<svg xmlns="http://www.w3.org/2000/svg" width="107" height="107" viewBox="0 0 107 107">
  <g id="retail-shop-icon" transform="translate(-756 -2369)">
    <rect id="Rectangle_1295" data-name="Rectangle 1295" width="107" height="107" rx="53.5" transform="translate(756 2369)" fill="#e1edff"/>
    <g id="Group_4063" data-name="Group 4063" transform="translate(-7419.949 238)">
      <g id="Rectangle_1289" data-name="Rectangle 1289" transform="translate(8202.019 2157)" fill="#fff" stroke="#707070" stroke-width="1" opacity="0">
        <rect width="55.931" height="56" stroke="none"/>
        <rect x="0.5" y="0.5" width="54.931" height="55" fill="none"/>
      </g>
      <g id="shop" transform="translate(8201.949 2158.116)">
        <path id="Path_638" data-name="Path 638" d="M52.445,57.737H49.222V31.483h2.329a1.916,1.916,0,0,0,1.914-1.913v-13a1.916,1.916,0,0,0-1.914-1.913H49.222V11.913A1.916,1.916,0,0,0,47.308,10H8.692a1.916,1.916,0,0,0-1.914,1.913v2.741H4.449a1.916,1.916,0,0,0-1.914,1.913v13a1.916,1.916,0,0,0,1.914,1.913H6.778v9.129a.82.82,0,0,0,1.641,0V31.483H47.582V45.447H44.615a.82.82,0,1,0,0,1.639h2.967v5.644h-9.85V47.086h7.211a.82.82,0,1,0,0-1.639H37.732V42.09h1.3a1.366,1.366,0,0,0,1.286-1.83l-1.662-4.6a1.919,1.919,0,0,0-1.8-1.263H19.141a1.919,1.919,0,0,0-1.8,1.263l-1.662,4.6a1.366,1.366,0,0,0,1.286,1.83h1.3v3.357H8.418V40.59a.82.82,0,0,0-1.641,0V57.737H3.555A3.557,3.557,0,0,0,0,61.289V62.4a1.368,1.368,0,0,0,1.367,1.366H54.633A1.368,1.368,0,0,0,56,62.4V61.289A3.557,3.557,0,0,0,52.445,57.737ZM4.176,29.57v-13a.274.274,0,0,1,.273-.273H44.559a.82.82,0,1,0,0-1.639H8.418V11.913a.274.274,0,0,1,.273-.273H47.308a.274.274,0,0,1,.273.273v2.741H44.275a.82.82,0,1,0,0,1.639h7.276a.274.274,0,0,1,.273.273v13a.274.274,0,0,1-.273.273H4.449A.274.274,0,0,1,4.176,29.57Zm43.406,24.8v3.367h-9.85V54.37ZM36.091,57.737H28.82V42.089h7.271Zm-5.652-21.7,1.6,4.413H23.966l1.595-4.413Zm6.677.18,1.53,4.232H33.779l-1.6-4.413h4.675a.274.274,0,0,1,.257.18Zm-18.232,0a.274.274,0,0,1,.257-.18h4.675L22.221,40.45H17.354Zm8.3,5.872V57.737H19.909V42.089Zm-8.911,5v5.644H8.418V47.086ZM8.418,54.37h9.85v3.367H8.418ZM54.359,62.13H1.641v-.841a1.916,1.916,0,0,1,1.914-1.913H52.445a1.916,1.916,0,0,1,1.914,1.913Z" transform="translate(0 -10)" fill="#002d70"/>
        <path id="Path_639" data-name="Path 639" d="M172.27,81.307a.53.53,0,0,0-.53.53v2.252h-2.927V81.837a.53.53,0,0,0-1.06,0V87.6a.53.53,0,0,0,1.06,0V85.148h2.927V87.6a.53.53,0,1,0,1.06,0V81.837A.53.53,0,0,0,172.27,81.307Z" transform="translate(-145.777 -71.958)" fill="#002d70"/>
        <path id="Path_640" data-name="Path 640" d="M86.565,84.262c-.739-.272-1.424-.57-1.6-.647a.585.585,0,0,1-.232-.567.782.782,0,0,1,.592-.617,2.112,2.112,0,0,1,1.761.4.53.53,0,0,0,.68-.813,3.157,3.157,0,0,0-2.746-.6A1.838,1.838,0,0,0,83.684,82.9a1.643,1.643,0,0,0,.732,1.626.529.529,0,0,0,.074.04c.033.015.821.365,1.708.693.629.232.948.6.877,1a1.162,1.162,0,0,1-1.194.812,2.2,2.2,0,0,1-1.615-.68.53.53,0,1,0-.785.712,3.274,3.274,0,0,0,2.4,1.028,2.214,2.214,0,0,0,2.237-1.685A1.99,1.99,0,0,0,86.565,84.262Z" transform="translate(-66.985 -71.954)" fill="#002d70"/>
        <path id="Path_641" data-name="Path 641" d="M369.624,81.307h-1.6a.535.535,0,0,0-.53.53V87.6a.53.53,0,0,0,1.06,0V85.622l1.074,0a2.156,2.156,0,1,0,0-4.311Zm0,3.251-1.066,0c0-.374,0-.851,0-1.1,0-.211,0-.707,0-1.1h1.073a1.1,1.1,0,1,1,0,2.192Z" transform="translate(-332.179 -71.958)" fill="#002d70"/>
        <path id="Path_642" data-name="Path 642" d="M257.9,81.307a3.41,3.41,0,1,0,3.41,3.41A3.414,3.414,0,0,0,257.9,81.307Zm0,5.761a2.351,2.351,0,1,1,2.35-2.351A2.353,2.353,0,0,1,257.9,87.068Z" transform="translate(-226.8 -71.958)" fill="#002d70"/>
      </g>
    </g>
  </g>
</svg>
