<svg xmlns="http://www.w3.org/2000/svg" width="107" height="107" viewBox="0 0 107 107">
  <g id="school-icon" transform="translate(-756 -2166)">
    <rect id="Rectangle_1292" data-name="Rectangle 1292" width="107" height="107" rx="53.5" transform="translate(756 2166)" fill="#e1edff"/>
    <g id="Group_4065" data-name="Group 4065" transform="translate(-6676 -415)">
      <rect id="Rectangle_1291" data-name="Rectangle 1291" width="56" height="56" transform="translate(7458 2607)" fill="#fff" opacity="0"/>
      <g id="university" transform="translate(7458 2609.803)">
        <g id="Group_4021" data-name="Group 4021" transform="translate(0 0)">
          <g id="Group_4020" data-name="Group 4020" transform="translate(0 0)">
            <path id="Path_643" data-name="Path 643" d="M55.034,45.094H42.686V42.727a.957.957,0,0,0-.492-.834l-13.228-7.38V30.756h2.617v1.428a.962.962,0,0,0,.966.958h7.888a.962.962,0,0,0,.965-.959.952.952,0,0,0-.058-.326l-.792-2.233.8-2.185a.956.956,0,0,0-.58-1.227.973.973,0,0,0-.328-.057H36.854v-1.39a.962.962,0,0,0-.966-.958H28.966V22.638a.966.966,0,0,0-1.931,0V34.513l-13.228,7.37a.957.957,0,0,0-.492.834v2.367H.966A.962.962,0,0,0,0,46.043V71.115a.962.962,0,0,0,.966.958H55.034A.962.962,0,0,0,56,71.115V46.052A.962.962,0,0,0,55.034,45.094ZM36.854,29.8l-.039-.038V28.111h2.2l-.4,1.227a.952.952,0,0,0,0,.661l.454,1.227H33.513v-.47h2.375A.962.962,0,0,0,36.854,29.8Zm-7.888-4.073h5.957v3.115H28.966ZM13.314,70.156H1.931V47.011H13.314Zm13.72,0H21.966V59.211h5.069Zm7,0H28.966V59.211h5.069Zm6.759,0H35.966v-11.9A.962.962,0,0,0,35,57.294H21a.962.962,0,0,0-.966.958v11.9H15.207V43.321L28,36.171l12.754,7.111.039,2.76Zm13.276,0H42.686V47.011H54.069Z" transform="translate(0 -21.68)" fill="#002d70"/>
          </g>
        </g>
        <g id="Group_4023" data-name="Group 4023" transform="translate(23.666 17.162)">
          <g id="Group_4022" data-name="Group 4022">
            <path id="Path_644" data-name="Path 644" d="M202.814,167.12a4.334,4.334,0,1,0,4.334,4.324A4.345,4.345,0,0,0,202.814,167.12Zm0,6.6a2.266,2.266,0,1,1,2.266-2.255h.01A2.266,2.266,0,0,1,202.814,173.72Z" transform="translate(-198.48 -167.12)" fill="#002d70"/>
          </g>
        </g>
        <g id="Group_4025" data-name="Group 4025" transform="translate(4.562 27.26)">
          <g id="Group_4024" data-name="Group 4024">
            <rect id="Rectangle_1268" data-name="Rectangle 1268" width="2.069" height="4.138" fill="#002d70"/>
          </g>
        </g>
        <g id="Group_4027" data-name="Group 4027" transform="translate(9.662 27.26)">
          <g id="Group_4026" data-name="Group 4026">
            <rect id="Rectangle_1269" data-name="Rectangle 1269" width="2.069" height="4.138" fill="#002d70"/>
          </g>
        </g>
        <g id="Group_4029" data-name="Group 4029" transform="translate(18.046 27.353)">
          <g id="Group_4028" data-name="Group 4028">
            <rect id="Rectangle_1270" data-name="Rectangle 1270" width="4.138" height="2.069" fill="#002d70"/>
          </g>
        </g>
        <g id="Group_4031" data-name="Group 4031" transform="translate(25.931 27.353)">
          <g id="Group_4030" data-name="Group 4030">
            <rect id="Rectangle_1271" data-name="Rectangle 1271" width="4.138" height="2.069" fill="#002d70"/>
          </g>
        </g>
        <g id="Group_4033" data-name="Group 4033" transform="translate(33.816 27.353)">
          <g id="Group_4032" data-name="Group 4032">
            <rect id="Rectangle_1272" data-name="Rectangle 1272" width="4.138" height="2.069" fill="#002d70"/>
          </g>
        </g>
        <g id="Group_4035" data-name="Group 4035" transform="translate(18.046 31.805)">
          <g id="Group_4034" data-name="Group 4034">
            <rect id="Rectangle_1273" data-name="Rectangle 1273" width="4.138" height="2.069" fill="#002d70"/>
          </g>
        </g>
        <g id="Group_4037" data-name="Group 4037" transform="translate(25.931 31.805)">
          <g id="Group_4036" data-name="Group 4036">
            <rect id="Rectangle_1274" data-name="Rectangle 1274" width="4.138" height="2.069" fill="#002d70"/>
          </g>
        </g>
        <g id="Group_4039" data-name="Group 4039" transform="translate(33.816 31.805)">
          <g id="Group_4038" data-name="Group 4038">
            <rect id="Rectangle_1275" data-name="Rectangle 1275" width="4.138" height="2.069" fill="#002d70"/>
          </g>
        </g>
        <g id="Group_4041" data-name="Group 4041" transform="translate(4.562 34.753)">
          <g id="Group_4040" data-name="Group 4040">
            <rect id="Rectangle_1276" data-name="Rectangle 1276" width="2.069" height="4.138" fill="#002d70"/>
          </g>
        </g>
        <g id="Group_4043" data-name="Group 4043" transform="translate(9.662 34.753)">
          <g id="Group_4042" data-name="Group 4042">
            <rect id="Rectangle_1277" data-name="Rectangle 1277" width="2.069" height="4.138" fill="#002d70"/>
          </g>
        </g>
        <g id="Group_4045" data-name="Group 4045" transform="translate(4.562 41.91)">
          <g id="Group_4044" data-name="Group 4044">
            <rect id="Rectangle_1278" data-name="Rectangle 1278" width="2.069" height="4.138" fill="#002d70"/>
          </g>
        </g>
        <g id="Group_4047" data-name="Group 4047" transform="translate(9.662 41.91)">
          <g id="Group_4046" data-name="Group 4046">
            <rect id="Rectangle_1279" data-name="Rectangle 1279" width="2.069" height="4.138" fill="#002d70"/>
          </g>
        </g>
        <g id="Group_4049" data-name="Group 4049" transform="translate(44.269 27.26)">
          <g id="Group_4048" data-name="Group 4048">
            <rect id="Rectangle_1280" data-name="Rectangle 1280" width="2.069" height="4.138" fill="#002d70"/>
          </g>
        </g>
        <g id="Group_4051" data-name="Group 4051" transform="translate(49.369 27.26)">
          <g id="Group_4050" data-name="Group 4050">
            <rect id="Rectangle_1281" data-name="Rectangle 1281" width="2.069" height="4.138" fill="#002d70"/>
          </g>
        </g>
        <g id="Group_4053" data-name="Group 4053" transform="translate(44.269 34.753)">
          <g id="Group_4052" data-name="Group 4052">
            <rect id="Rectangle_1282" data-name="Rectangle 1282" width="2.069" height="4.138" fill="#002d70"/>
          </g>
        </g>
        <g id="Group_4055" data-name="Group 4055" transform="translate(49.369 34.753)">
          <g id="Group_4054" data-name="Group 4054">
            <rect id="Rectangle_1283" data-name="Rectangle 1283" width="2.069" height="4.138" fill="#002d70"/>
          </g>
        </g>
        <g id="Group_4057" data-name="Group 4057" transform="translate(44.269 41.91)">
          <g id="Group_4056" data-name="Group 4056">
            <rect id="Rectangle_1284" data-name="Rectangle 1284" width="2.069" height="4.138" fill="#002d70"/>
          </g>
        </g>
        <g id="Group_4059" data-name="Group 4059" transform="translate(49.369 41.91)">
          <g id="Group_4058" data-name="Group 4058">
            <rect id="Rectangle_1285" data-name="Rectangle 1285" width="2.069" height="4.138" fill="#002d70"/>
          </g>
        </g>
      </g>
    </g>
  </g>
</svg>
